<svg width="32" height="32" viewBox="0 0 32 32" fill="none" xmlns="http://www.w3.org/2000/svg">
<g clip-path="url(#clip0_2_107)">
<circle cx="15.9544" cy="16.0456" r="16.0456" fill="white"/>
<path d="M3.19615 18.8909L6.07915 13.8096L10.3713 19.0094C12.6102 18.719 14.8662 18.5724 17.1303 18.5724C17.4282 18.5724 17.7217 18.5751 18.0119 18.5801L24.1542 10.8004L28.5817 18.8909H29.0729L24.2673 10.1107L19.871 11.358L19.1433 12.2855V10.52L18.1357 10.4106V11.8517L16.6627 12.2709H13.7814L11.8747 15.075L11.738 14.9534L12.3864 14.006H10.8102V12.9647L10.061 12.6362V14.6671L9.47944 13.8572L6.85573 13.4066L5.90387 13.2428L2.69944 18.8905L1.94687 20.2172H2.44315L3.19573 18.8905L3.19615 18.8909ZM12.824 14.6245L14.1106 12.7319L16.004 15.1295H17.2182L15.7323 17.3591L12.8124 17.3319L12.8236 14.6249L12.824 14.6245Z" fill="#9D2142"/>
<path d="M23.2002 15.6082H22.2959V16.7847H23.2002V15.6082Z" fill="#4F5D75"/>
<path d="M24.2853 15.6082H23.381V16.7847H24.2853V15.6082Z" fill="#4F5D75"/>
<path d="M23.381 15.4167H24.2853V15.2661C24.2853 14.7166 23.888 14.2656 23.381 14.2175V15.4167Z" fill="#4F5D75"/>
<path d="M24.2853 16.9762H23.381V17.5506H24.2853V16.9762Z" fill="#4F5D75"/>
<path d="M23.2002 15.4167V14.2175C22.6932 14.266 22.2959 14.7166 22.2959 15.2661V15.4167H23.2002Z" fill="#4F5D75"/>
<path d="M23.2002 16.9762H22.2959V17.5506H23.2002V16.9762Z" fill="#4F5D75"/>
<path d="M6.33503 17.5533H5.64203V18.4549H6.33503V17.5533Z" fill="#4F5D75"/>
<path d="M7.16688 17.5533H6.47388V18.4549H7.16688V17.5533Z" fill="#4F5D75"/>
<path d="M6.47388 17.4063H7.16688V17.2911C7.16688 16.87 6.86259 16.5247 6.47388 16.4875V17.4063Z" fill="#4F5D75"/>
<path d="M7.16688 18.6015H6.47388V19.0416H7.16688V18.6015Z" fill="#4F5D75"/>
<path d="M6.33503 17.4063V16.4875C5.94674 16.5247 5.64203 16.87 5.64203 17.2911V17.4063H6.33503Z" fill="#4F5D75"/>
<path d="M6.33503 18.6015H5.64203V19.0416H6.33503V18.6015Z" fill="#4F5D75"/>
<path d="M14.033 15.1853H13.5749V15.781H14.033V15.1853Z" fill="#0F2345"/>
<path d="M14.5828 15.1853H14.1247V15.781H14.5828V15.1853Z" fill="#0F2345"/>
<path d="M14.1247 15.0882H14.5828V15.012C14.5828 14.7338 14.3814 14.5051 14.1247 14.4806V15.0882Z" fill="#0F2345"/>
<path d="M14.5828 15.8781H14.1247V16.169H14.5828V15.8781Z" fill="#0F2345"/>
<path d="M14.033 15.0882V14.4806C13.7763 14.5051 13.5749 14.7334 13.5749 15.012V15.0882H14.033Z" fill="#0F2345"/>
<path d="M14.033 15.8781H13.5749V16.169H14.033V15.8781Z" fill="#0F2345"/>
<path d="M16.6627 12.2705L18.6993 15.1168L16.004 15.1295L13.7819 12.2705H16.6627Z" fill="#592244"/>
<path d="M28.5817 18.891L24.1541 10.8004L24.4533 10.4515L29.0724 18.891" fill="#2F405E"/>
<path d="M19.1433 12.2855L18.1357 11.8517V10.3285L19.1433 10V12.2855Z" fill="#842142"/>
<path d="M17.0784 18.5724L15.7263 17.3591L12.8253 17.2634V14.6372L12.515 15.1023L11.8657 15.0846L11.7376 14.9534L12.386 14.006H10.8097L10.0606 14.6671L9.47901 13.8572L5.90387 13.2428L10.6863 18.969C12.8043 18.7072 14.9377 18.5742 17.0784 18.572V18.5724Z" fill="#0F2345"/>
<path d="M0.5 21.6129C0.5 21.6129 14.8927 17.4 30.5 20.7921C30.5 20.7921 17.2181 16.032 0.5 21.6129Z" fill="#842142"/>
<path d="M3.65255 20.2998V19.0525L3.74384 18.891L6.31698 14.3559L6.10098 14.0991L3.38212 18.891L2.70712 20.0811L2.73198 20.5838L3.65255 20.2998Z" fill="#EBEBEB"/>
<path d="M26.921 19.4245L28.1724 19.7549L28.1317 18.6037L24.1263 11.1947L23.6604 11.7832L26.921 17.7711V19.4245Z" fill="#EBEBEB"/>
</g>
<defs>
<clipPath id="clip0_2_107">
<rect width="32" height="32" fill="white"/>
</clipPath>
</defs>
</svg>
