<svg width="32" height="32" viewBox="0 0 32 32" fill="none" xmlns="http://www.w3.org/2000/svg">
<g clip-path="url(#clip0_2_299)">
<circle cx="16" cy="16" r="16.0911" fill="white"/>
<path d="M3.69612 18.9134L6.57912 14.1138L10.8713 19.0253C13.1101 18.751 15.3661 18.6126 17.6303 18.6126C17.9281 18.6126 18.2217 18.6151 18.5118 18.6198L24.6541 11.2716L29.0817 18.9134H29.5728L24.7673 10.6201L20.371 11.7983L19.6433 12.6743V11.0067L18.6357 10.9034V12.2646L17.1627 12.6606H14.2814L12.3747 15.3091L12.238 15.1943L12.8864 14.2994H11.3101V13.3158L10.561 13.0056V14.9238L9.97941 14.1588L7.3557 13.7333L6.40384 13.5786L3.19941 18.913L2.44684 20.1661H2.94312L3.6957 18.913L3.69612 18.9134ZM13.324 14.8836L14.6106 13.096L16.504 15.3606H17.7181L16.2323 17.4666L13.3124 17.4408L13.3236 14.884L13.324 14.8836Z" fill="#263678"/>
<path d="M23.7001 15.8127H22.7958V16.924H23.7001V15.8127Z" fill="#814840"/>
<path d="M24.7853 15.8127H23.881V16.924H24.7853V15.8127Z" fill="#814840"/>
<path d="M23.881 15.6318H24.7853V15.4896C24.7853 14.9706 24.388 14.5446 23.881 14.4991V15.6318Z" fill="#814840"/>
<path d="M24.7853 17.1048H23.881V17.6474H24.7853V17.1048Z" fill="#814840"/>
<path d="M23.7001 15.6318V14.4991C23.1931 14.545 22.7958 14.9706 22.7958 15.4896V15.6318H23.7001Z" fill="#814840"/>
<path d="M23.7001 17.1048H22.7958V17.6474H23.7001V17.1048Z" fill="#814840"/>
<path d="M6.83503 17.65H6.14203V18.5016H6.83503V17.65Z" fill="#814840"/>
<path d="M7.66688 17.65H6.97388V18.5016H7.66688V17.65Z" fill="#814840"/>
<path d="M6.97388 17.5111H7.66688V17.4023C7.66688 17.0046 7.36259 16.6784 6.97388 16.6433V17.5111Z" fill="#814840"/>
<path d="M7.66688 18.64H6.97388V19.0557H7.66688V18.64Z" fill="#814840"/>
<path d="M6.83503 17.5111V16.6433C6.44674 16.6784 6.14203 17.0046 6.14203 17.4023V17.5111H6.83503Z" fill="#814840"/>
<path d="M6.83503 18.64H6.14203V19.0557H6.83503V18.64Z" fill="#814840"/>
<path d="M14.533 15.4133H14.0748V15.976H14.533V15.4133Z" fill="#814840"/>
<path d="M15.0828 15.4133H14.6247V15.976H15.0828V15.4133Z" fill="#814840"/>
<path d="M14.6247 15.3216H15.0828V15.2496C15.0828 14.9869 14.8814 14.7709 14.6247 14.7477V15.3216Z" fill="#814840"/>
<path d="M15.0828 16.0677H14.6247V16.3424H15.0828V16.0677Z" fill="#814840"/>
<path d="M14.533 15.3216V14.7477C14.2763 14.7709 14.0748 14.9864 14.0748 15.2496V15.3216H14.533Z" fill="#814840"/>
<path d="M14.533 16.0677H14.0748V16.3424H14.533V16.0677Z" fill="#814840"/>
<path d="M17.1627 12.6601L19.1993 15.3486L16.504 15.3606L14.2819 12.6601H17.1627Z" fill="#436DB5"/>
<path d="M29.0817 18.9134L24.6541 11.2716L24.9533 10.942L29.5724 18.9134" fill="#436DB5"/>
<path d="M19.6433 12.6743L18.6357 12.2646V10.8258L19.6433 10.5156V12.6743Z" fill="#436DB5"/>
<path d="M17.5784 18.6126L16.2263 17.4666L13.3253 17.3761V14.8956L13.015 15.3349L12.3657 15.3181L12.2376 15.1943L12.886 14.2994H11.3097L10.5606 14.9239L9.97901 14.1589L6.40387 13.5786L11.1863 18.9871C13.3043 18.7399 15.4377 18.6143 17.5784 18.6121V18.6126Z" fill="#436DB5"/>
<path d="M1 21.4844C1 21.4844 15.3927 17.5051 31 20.7091C31 20.7091 17.7181 16.213 1 21.4844Z" fill="#814840"/>
<path d="M4.15258 20.2441V19.066L4.24387 18.9134L6.81701 14.6299L6.60101 14.3873L3.88215 18.9134L3.20715 20.0376L3.23201 20.5124L4.15258 20.2441Z" fill="#EBEBEB"/>
<path d="M27.421 19.4174L28.6724 19.7294L28.6317 18.6421L24.6263 11.644L24.1604 12.1999L27.421 17.8557V19.4174Z" fill="#EBEBEB"/>
</g>
<defs>
<clipPath id="clip0_2_299">
<rect width="32" height="32" fill="white"/>
</clipPath>
</defs>
</svg>
