<svg width="30" height="30" viewBox="0 0 30 30" fill="none" xmlns="http://www.w3.org/2000/svg">
<path d="M1.94429 30.0238C1.44674 30.0238 0.948834 29.8334 0.570154 29.4544C-0.190051 28.6945 -0.190051 27.4659 0.570154 26.7061L26.6816 0.594302C27.4414 -0.165548 28.67 -0.165548 29.4299 0.594302C30.1901 1.35415 30.1901 2.58272 29.4299 3.34257L3.31843 29.4544C2.93726 29.8352 2.44184 30.0238 1.94429 30.0238Z" fill="white"/>
<path d="M28.0557 30.0238C27.5582 30.0238 27.0606 29.8334 26.6816 29.4544L0.570154 3.34257C-0.190051 2.58272 -0.190051 1.35415 0.570154 0.594302C1.33 -0.165548 2.55822 -0.165548 3.31843 0.594302L29.4299 26.7061C30.1901 27.4659 30.1901 28.6945 29.4299 29.4544C29.0508 29.8352 28.5533 30.0238 28.0557 30.0238Z" fill="white"/>
</svg>
