<svg width="47" height="34" viewBox="0 0 47 34" fill="none" xmlns="http://www.w3.org/2000/svg">
<path d="M45.6687 1.07184C46.1798 1.61493 46.4542 2.33876 46.4317 3.08418C46.4092 3.8296 46.0916 4.53557 45.5487 5.04684L15.8112 33.0743C15.205 33.6452 14.3994 33.9562 13.5669 33.9408C12.7343 33.9254 11.9408 33.5848 11.3562 32.9918L1.30619 22.7918C1.04006 22.5303 0.82861 22.2185 0.684166 21.8745C0.539722 21.5305 0.465168 21.1612 0.464845 20.7881C0.464522 20.415 0.538437 20.0456 0.682285 19.7013C0.826133 19.3571 1.03704 19.0449 1.30272 18.7829C1.5684 18.521 1.88355 18.3145 2.2298 18.1755C2.57605 18.0366 2.9465 17.9679 3.31956 17.9735C3.69261 17.9791 4.06083 18.0589 4.40276 18.2082C4.74469 18.3574 5.05349 18.5733 5.31119 18.8431L13.6887 27.3443L41.6937 0.951837C42.2368 0.440749 42.9606 0.166279 43.706 0.188782C44.4515 0.211285 45.1574 0.528919 45.6687 1.07184Z" fill="#00B43D"/>
</svg>
