<svg width="32" height="32" viewBox="0 0 32 32" fill="none" xmlns="http://www.w3.org/2000/svg">
<g clip-path="url(#clip0_1_117)">
<circle cx="16" cy="16" r="16" fill="#F4F4F4"/>
<g clip-path="url(#clip1_1_117)">
<path d="M4.21295 20.5304L6.97485 15.155L11.0867 20.6557C13.2315 20.3485 15.3927 20.1935 17.5618 20.1935C17.8471 20.1935 18.1284 20.1964 18.4063 20.2016L24.2906 11.9717L28.5322 20.5304H29.0027L24.399 11.2421L20.1874 12.5616L19.4902 13.5427V11.6751L18.525 11.5594V13.0839L17.1139 13.5274H14.3536L12.527 16.4937L12.396 16.3651L13.0172 15.3629H11.5071V14.2613L10.7894 13.9138V16.0622L10.2323 15.2054L7.7188 14.7288L6.80693 14.5555L3.7371 20.53L3.01614 21.9335H3.49158L4.21254 20.53L4.21295 20.5304ZM13.4364 16.0171L14.6689 14.015L16.4828 16.5513H17.646L16.2225 18.91L13.4253 18.8812L13.436 16.0176L13.4364 16.0171Z" fill="#BC9E2F"/>
<path d="M23.3767 17.0577H22.5104V18.3023H23.3767V17.0577Z" fill="#0D4C88"/>
<path d="M24.4163 17.0577H23.55V18.3023H24.4163V17.0577Z" fill="#0D4C88"/>
<path d="M23.55 16.8552H24.4163V16.6958C24.4163 16.1145 24.0357 15.6374 23.55 15.5865V16.8552Z" fill="#0D4C88"/>
<path d="M24.4163 18.5049H23.55V19.1125H24.4163V18.5049Z" fill="#0D4C88"/>
<path d="M23.3767 16.8552V15.5865C22.891 15.6379 22.5104 16.1145 22.5104 16.6958V16.8552H23.3767Z" fill="#0D4C88"/>
<path d="M23.3767 18.5049H22.5104V19.1125H23.3767V18.5049Z" fill="#0D4C88"/>
<path d="M7.21998 19.1154H6.55609V20.0692H7.21998V19.1154Z" fill="#0D4C88"/>
<path d="M8.01689 19.1154H7.353V20.0692H8.01689V19.1154Z" fill="#0D4C88"/>
<path d="M7.353 18.9599H8.01689V18.838C8.01689 18.3926 7.72538 18.0273 7.353 17.9879V18.9599Z" fill="#0D4C88"/>
<path d="M8.01689 20.2242H7.353V20.6898H8.01689V20.2242Z" fill="#0D4C88"/>
<path d="M7.21998 18.9599V17.9879C6.84801 18.0273 6.55609 18.3926 6.55609 18.838V18.9599H7.21998Z" fill="#0D4C88"/>
<path d="M7.21998 20.2242H6.55609V20.6898H7.21998V20.2242Z" fill="#0D4C88"/>
<path d="M14.5955 16.6104H14.1557V17.2406H14.5955V16.6104Z" fill="#0D4C88"/>
<path d="M15.1223 16.6104H14.6825V17.2406H15.1223V16.6104Z" fill="#0D4C88"/>
<path d="M14.6825 16.5076H15.1223V16.427C15.1223 16.1328 14.9289 15.8908 14.6825 15.8649V16.5076Z" fill="#0D4C88"/>
<path d="M15.1223 17.3433H14.6825V17.651H15.1223V17.3433Z" fill="#0D4C88"/>
<path d="M14.5955 16.5076V15.8649C14.3491 15.8908 14.1557 16.1323 14.1557 16.427V16.5076H14.5955Z" fill="#0D4C88"/>
<path d="M14.5955 17.3433H14.1557V17.651H14.5955V17.3433Z" fill="#0D4C88"/>
<path d="M17.1139 13.5269L19.0649 16.5379L16.4828 16.5513L14.354 13.5269H17.1139Z" fill="#B71F42"/>
<path d="M28.5322 20.5304L24.2906 11.9717L24.5772 11.6026L29.0023 20.5304" fill="#B71F42"/>
<path d="M19.4902 13.5427L18.525 13.0838V11.4725L19.4902 11.125V13.5427Z" fill="#B71F42"/>
<path d="M17.5121 20.1935L16.2168 18.91L13.4376 18.8087V16.0305L13.1404 16.5225L12.5184 16.5038L12.3956 16.3651L13.0168 15.3629H11.5067L10.7891 16.0622L10.2319 15.2054L6.80695 14.5555L11.3885 20.613C13.4175 20.336 15.4613 20.1954 17.5121 20.193V20.1935Z" fill="#B71F42"/>
<path d="M2.28122 23.3449C2.28122 23.3449 15.4446 19.0901 29.7188 22.5159C29.7188 22.5159 17.5714 17.7085 2.28122 23.3449Z" fill="#248644"/>
<path d="M4.65022 22.0208V20.7013L4.73767 20.5304L7.20273 15.7329L6.9958 15.4612L4.39115 20.5304L3.74451 21.7895L3.76832 22.3213L4.65022 22.0208Z" fill="#EBEBEB"/>
<path d="M26.9413 21.0949L28.1401 21.4443L28.1011 20.2266L24.2639 12.3888L23.8177 13.0114L26.9413 19.3458V21.0949Z" fill="#EBEBEB"/>
</g>
<path d="M3.40012 24.1976C3.40012 24.1976 14.3363 34.4039 29.0027 23.5122C29.0027 23.5122 17.6678 19.5397 3.40012 24.1976Z" fill="#258B43"/>
</g>
<defs>
<clipPath id="clip0_1_117">
<rect width="32" height="32" fill="white"/>
</clipPath>
<clipPath id="clip1_1_117">
<rect width="28.7398" height="12.2849" fill="white" transform="translate(1.63007 11.125)"/>
</clipPath>
</defs>
</svg>
