<svg width="32" height="32" viewBox="0 0 32 32" fill="none" xmlns="http://www.w3.org/2000/svg">
<g clip-path="url(#clip0_1_2)">
<path d="M31.9601 15.9342C31.9601 24.6569 24.8447 31.7396 16.0523 31.7396C7.25998 31.7396 0.144623 24.6569 0.144623 15.9342C0.144623 7.2115 7.25998 0.128784 16.0523 0.128784C24.8447 0.128784 31.9601 7.21194 31.9601 15.9342Z" fill="#F4F4F4"/>
<path d="M22.5675 14.4543L21.5369 14.6767C20.4752 12.2038 19.1332 10.1686 17.6363 9.25143C18.5716 9.37084 19.4646 9.95317 20.2909 10.8574C20.2909 10.8583 20.2918 10.8591 20.2927 10.86C21.1302 11.7772 21.8969 13.024 22.5675 14.4543Z" fill="#AB1D39"/>
<path d="M17.6354 9.25144C17.5177 9.23673 17.3992 9.22894 17.2806 9.22894C14.825 9.22894 12.6254 12.4832 11.1467 16.4938L10.9814 16.5215L10.9364 16.9931L9.5191 16.6971C10.997 12.4443 13.3609 8.72968 15.9256 8.72968C16.5123 8.72968 17.0842 8.91571 17.6354 9.25317V9.25144Z" fill="#C1A22E"/>
<path d="M20.2831 10.8496C17.8214 8.0288 15.2091 8.81447 15.2091 8.81447L15.2152 8.82226C15.4497 8.75996 15.6868 8.72795 15.9256 8.72795C16.5122 8.72795 17.0842 8.91398 17.6354 9.25144C18.5673 9.36998 19.4585 9.94972 20.2831 10.8496Z" fill="#0D84A9"/>
<path d="M22.5675 14.4543L21.5369 14.6767C20.4752 12.2038 19.1332 10.1686 17.6363 9.25143C18.5716 9.37084 19.4646 9.95317 20.2909 10.8574C20.2909 10.8583 20.2918 10.8591 20.2927 10.86C21.1302 11.7772 21.8969 13.024 22.5675 14.4543Z" fill="#AB1D39"/>
<path d="M17.6354 9.25144C17.5177 9.23673 17.3992 9.22894 17.2806 9.22894C14.825 9.22894 12.6254 12.4832 11.1467 16.4938L10.9814 16.5215L10.9364 16.9931L9.5191 16.6971C10.997 12.4443 13.3609 8.72968 15.9256 8.72968C16.5123 8.72968 17.0842 8.91571 17.6354 9.25317V9.25144Z" fill="#C1A22E"/>
<path d="M20.2831 10.8496C17.8214 8.0288 15.2091 8.81447 15.2091 8.81447L15.2152 8.82226C15.4497 8.75996 15.6868 8.72795 15.9256 8.72795C16.5122 8.72795 17.0842 8.91398 17.6354 9.25144C18.5673 9.36998 19.4585 9.94972 20.2831 10.8496Z" fill="#0D84A9"/>
<path d="M6.01816 21.6984L8.36739 17.8177L11.8648 21.7893C13.6888 21.5669 15.5276 21.4553 17.3723 21.4553C17.6146 21.4553 17.8543 21.457 18.0905 21.4614L23.0953 15.5195L26.7035 21.6984H27.1032L23.1879 14.9917L19.6056 15.9444L19.0129 16.653V15.3049L18.1917 15.221V16.3216L16.9916 16.6418H14.6441L13.0901 18.7842L12.9785 18.6916L13.5071 17.9682H12.2231V17.173L11.6122 16.9221V18.4736L11.1389 17.8549L9.00164 17.5105L8.22635 17.3859L5.61495 21.6993L5.00146 22.7125H5.40555L6.01903 21.6993L6.01816 21.6984ZM13.8628 18.4398L14.9115 16.9939L16.4543 18.8249H17.4441L16.2336 20.5277L13.8541 20.507L13.8636 18.4389L13.8628 18.4398Z" fill="#0D4D8C"/>
<path d="M22.3183 19.1909H21.5811V20.089H22.3183V19.1909Z" fill="#AB1D39"/>
<path d="M23.2017 19.1909H22.4645V20.089H23.2017V19.1909Z" fill="#AB1D39"/>
<path d="M22.4645 19.0446H23.2017V18.9296C23.2017 18.5099 22.8781 18.1655 22.4645 18.1283V19.0438V19.0446Z" fill="#AB1D39"/>
<path d="M23.2017 20.2352H22.4645V20.6739H23.2017V20.2352Z" fill="#AB1D39"/>
<path d="M22.3183 19.0446V18.1292C21.9047 18.1664 21.5811 18.5108 21.5811 18.9304V19.0455H22.3183V19.0446Z" fill="#AB1D39"/>
<path d="M22.3183 20.2352H21.5811V20.6739H22.3183V20.2352Z" fill="#AB1D39"/>
<path d="M8.57592 20.6765H8.01089V21.3653H8.57592V20.6765Z" fill="#AB1D39"/>
<path d="M9.25344 20.6765H8.68842V21.3653H9.25344V20.6765Z" fill="#AB1D39"/>
<path d="M8.68842 20.5641H9.25344V20.4758C9.25344 20.1539 9.00511 19.8909 8.68842 19.8615V20.5632V20.5641Z" fill="#AB1D39"/>
<path d="M9.25344 21.4769H8.68842V21.8135H9.25344V21.4769Z" fill="#AB1D39"/>
<path d="M8.57592 20.5641V19.8623C8.25923 19.89 8.01089 20.1548 8.01089 20.4767V20.5649H8.57592V20.5641Z" fill="#AB1D39"/>
<path d="M8.57592 21.4769H8.01089V21.8135H8.57592V21.4769Z" fill="#AB1D39"/>
<path d="M14.8483 18.8681H14.4754V19.3233H14.8483V18.8681Z" fill="#AB1D39"/>
<path d="M15.2957 18.8681H14.9227V19.3233H15.2957V18.8681Z" fill="#AB1D39"/>
<path d="M14.9227 18.7937H15.2957V18.7357C15.2957 18.5229 15.1321 18.3489 14.9227 18.3299V18.7937Z" fill="#AB1D39"/>
<path d="M15.2957 19.3968H14.9227V19.6192H15.2957V19.3968Z" fill="#AB1D39"/>
<path d="M14.8483 18.7937V18.3299C14.6389 18.3489 14.4754 18.5229 14.4754 18.7357V18.7937H14.8483Z" fill="#AB1D39"/>
<path d="M14.8483 19.3968H14.4754V19.6192H14.8483V19.3968Z" fill="#AB1D39"/>
<path d="M16.9907 16.6418L18.6503 18.8153L16.4543 18.8257L14.6432 16.6418H16.9907Z" fill="#0D84A9"/>
<path d="M26.7026 21.6984L23.0944 15.5186L23.3384 15.2521L27.1024 21.6984" fill="#0D84A9"/>
<path d="M19.012 16.653L18.1909 16.3216V15.1578L19.012 14.9069V16.653Z" fill="#0D84A9"/>
<path d="M17.3299 21.4553L16.2284 20.5286L13.8645 20.4559V18.4502L13.6118 18.8058L13.0832 18.792L12.9785 18.6925L13.5071 17.9691H12.2231L11.6122 18.4735L11.1389 17.8549L8.22549 17.3859L12.1218 21.7599C13.8481 21.56 15.5864 21.4588 17.3299 21.457V21.4553Z" fill="#0D84A9"/>
<path d="M3.82123 24.6828C3.82123 24.6828 14.2625 34.0243 28.2653 24.0555C28.2653 24.0555 17.4433 20.4196 3.82123 24.6828Z" fill="#258B43"/>
<path d="M6.39025 22.774V21.8213L6.46467 21.6976L8.56123 18.2339L8.38472 18.0383L6.16961 21.6984L5.61929 22.6078L5.63919 22.992L6.38939 22.7748L6.39025 22.774Z" fill="#EBEBEB"/>
<path d="M25.3493 22.106L26.3695 22.3578L26.3366 21.4787L23.0728 15.8198L22.6929 16.2697L25.3493 20.8436V22.106Z" fill="#EBEBEB"/>
</g>
<defs>
<clipPath id="clip0_1_2">
<rect width="32" height="32" fill="white"/>
</clipPath>
</defs>
</svg>
