<svg width="22" height="23" viewBox="0 0 22 23" fill="none" xmlns="http://www.w3.org/2000/svg">
<path d="M10.4414 15.3594C9.96875 15.832 9.23828 15.832 8.76562 15.3594L6.01562 12.6094C5.54297 12.1367 5.54297 11.4062 6.01562 10.9336C6.48828 10.4609 7.21875 10.4609 7.69141 10.9336L9.625 12.8242L14.2656 8.18359C14.7383 7.71094 15.4688 7.71094 15.9414 8.18359C16.4141 8.65625 16.4141 9.38672 15.9414 9.85938L10.4414 15.3594ZM22 11.75C22 17.8516 17.0586 22.75 11 22.75C4.89844 22.75 0 17.8516 0 11.75C0 5.69141 4.89844 0.75 11 0.75C17.0586 0.75 22 5.69141 22 11.75ZM11 2.8125C6.05859 2.8125 2.0625 6.85156 2.0625 11.75C2.0625 16.6914 6.05859 20.6875 11 20.6875C15.8984 20.6875 19.9375 16.6914 19.9375 11.75C19.9375 6.85156 15.8984 2.8125 11 2.8125Z" fill="#00B43D"/>
</svg>
