<svg width="61" height="60" viewBox="0 0 61 60" fill="none" xmlns="http://www.w3.org/2000/svg">
<path d="M30.5027 2.15332C15.1422 2.15332 2.64551 14.6501 2.64551 30.0105C2.64551 45.3709 15.1422 57.8676 30.5027 57.8676C45.8631 57.8676 58.3598 45.3709 58.3598 30.0105C58.3598 14.6501 45.8631 2.15332 30.5027 2.15332ZM30.5027 54.856C23.6781 54.856 17.4881 52.0898 12.9933 47.6206C11.1983 45.8358 9.67464 43.7789 8.48825 41.5183C6.68146 38.0758 5.65713 34.1607 5.65713 30.0105C5.65713 16.3106 16.8028 5.16494 30.5027 5.16494C37.0008 5.16494 42.9232 7.67363 47.3551 11.7721C49.653 13.8968 51.5505 16.4484 52.9187 19.3004C54.4754 22.5452 55.3482 26.1778 55.3482 30.0105C55.3482 43.7103 44.2025 54.856 30.5027 54.856Z" fill="white" stroke="#004C8D" stroke-width="0.2"/>
<path d="M33.4478 43.6762C36.752 42.9852 39.7199 41.1276 41.8051 38.4456L44.1826 40.2939C41.66 43.539 38.0664 45.7871 34.0643 46.6242C27.6279 47.9693 20.861 45.485 16.8252 40.2939L19.2031 38.4456C22.5377 42.7351 28.1293 44.7886 33.4478 43.6762Z" fill="white" stroke="#004C8D" stroke-width="0.2"/>
<path d="M21.2138 26.8094C22.877 26.8094 24.2254 25.461 24.2254 23.7978C24.2254 22.1345 22.877 20.7861 21.2138 20.7861C19.5505 20.7861 18.2021 22.1345 18.2021 23.7978C18.2021 25.461 19.5505 26.8094 21.2138 26.8094Z" fill="white" stroke="#004C8D" stroke-width="0.2"/>
<path d="M39.8466 26.8094C41.5099 26.8094 42.8582 25.461 42.8582 23.7978C42.8582 22.1345 41.5099 20.7861 39.8466 20.7861C38.1833 20.7861 36.835 22.1345 36.835 23.7978C36.835 25.461 38.1833 26.8094 39.8466 26.8094Z" fill="white" stroke="#004C8D" stroke-width="0.2"/>
</svg>
