<svg width="61" height="60" viewBox="0 0 61 60" fill="none" xmlns="http://www.w3.org/2000/svg">
<path d="M54.875 18.75C54.3777 18.75 53.9008 18.9475 53.5492 19.2992C53.1975 19.6508 53 20.1277 53 20.625V50.625C53 51.1223 52.8025 51.5992 52.4508 51.9508C52.0992 52.3025 51.6223 52.5 51.125 52.5H9.875C9.37772 52.5 8.90081 52.3025 8.54918 51.9508C8.19754 51.5992 8 51.1223 8 50.625V9.375C8 8.87772 8.19754 8.40081 8.54918 8.04918C8.90081 7.69754 9.37772 7.5 9.875 7.5H39.875C40.3723 7.5 40.8492 7.30246 41.2008 6.95083C41.5525 6.59919 41.75 6.12228 41.75 5.625C41.75 5.12772 41.5525 4.65081 41.2008 4.29917C40.8492 3.94754 40.3723 3.75 39.875 3.75H9.875C8.38316 3.75 6.95242 4.34263 5.89752 5.39752C4.84263 6.45242 4.25 7.88316 4.25 9.375V50.625C4.25 52.1168 4.84263 53.5476 5.89752 54.6025C6.95242 55.6574 8.38316 56.25 9.875 56.25H51.125C52.6168 56.25 54.0476 55.6574 55.1025 54.6025C56.1574 53.5476 56.75 52.1168 56.75 50.625V20.625C56.75 20.1277 56.5525 19.6508 56.2008 19.2992C55.8492 18.9475 55.3723 18.75 54.875 18.75Z" fill="white"/>
<path d="M16.8312 21.1686C16.4782 20.8155 15.9993 20.6172 15.5 20.6172C15.0007 20.6172 14.5218 20.8155 14.1687 21.1686C13.8157 21.5216 13.6173 22.0005 13.6173 22.4998C13.6173 22.7471 13.666 22.9919 13.7606 23.2203C13.8552 23.4487 13.9939 23.6563 14.1687 23.8311L29.1687 38.8311C29.3439 39.0049 29.5517 39.1423 29.7802 39.2356C30.0086 39.329 30.2532 39.3763 30.5 39.3748H30.6312C30.8951 39.3551 31.1518 39.2798 31.3845 39.1537C31.6172 39.0277 31.8206 38.8538 31.9812 38.6436L56.3562 6.76858C56.6241 6.37355 56.7312 5.89125 56.6558 5.41998C56.5803 4.9487 56.328 4.52393 55.9503 4.23224C55.5725 3.94055 55.0977 3.8039 54.6227 3.85013C54.1477 3.89637 53.7081 4.12201 53.3937 4.48108L30.3125 34.6686L16.8312 21.1686Z" fill="white"/>
</svg>
