<svg width="188" height="45" viewBox="0 0 188 45" fill="none" xmlns="http://www.w3.org/2000/svg">
<path d="M22.6814 44.5837C34.9907 44.5837 44.9693 34.6807 44.9693 22.4647C44.9693 10.2487 34.9907 0.345703 22.6814 0.345703C10.3722 0.345703 0.393555 10.2487 0.393555 22.4647C0.393555 34.6807 10.3722 44.5837 22.6814 44.5837Z" fill="#B0B0B0" fill-opacity="0.1"/>
<mask id="mask0_11_864" style="mask-type:luminance" maskUnits="userSpaceOnUse" x="1" y="1" width="43" height="43">
<path d="M22.6811 43.2125C34.2274 43.2125 43.5875 33.9233 43.5875 22.4645C43.5875 11.0057 34.2274 1.71655 22.6811 1.71655C11.1348 1.71655 1.77466 11.0057 1.77466 22.4645C1.77466 33.9233 11.1348 43.2125 22.6811 43.2125Z" fill="white"/>
</mask>
<g mask="url(#mask0_11_864)">
<path d="M82.2496 20.4142C82.2496 53.1469 55.5474 79.7266 22.5535 79.7266C-10.4402 79.7266 -37.1425 53.1469 -37.1425 20.4142C-37.1425 -12.3187 -10.4402 -38.8984 22.5535 -38.8984C55.5474 -38.8984 82.2496 -12.3187 82.2496 20.4142Z" fill="#F4F4F4"/>
<g style="mix-blend-mode:hard-light">
<path d="M82.2496 20.4142C82.2496 53.1469 55.5474 79.7266 22.5535 79.7266C-10.4402 79.7266 -37.1425 53.1469 -37.1425 20.4142C-37.1425 -12.3187 -10.4402 -38.8984 22.5535 -38.8984C55.5474 -38.8984 82.2496 -12.3187 82.2496 20.4142Z" stroke="#C7C6C7" stroke-width="53.2192"/>
</g>
<path d="M34.9496 18.6752L33.0041 19.0951C31.0007 14.4275 28.4661 10.5848 25.6403 8.85474C27.4054 9.07932 29.0922 10.179 30.6513 11.8867C30.6521 11.8889 30.6536 11.8897 30.6551 11.8919C32.2355 13.6227 33.6837 15.9772 34.9496 18.676V18.6752Z" fill="#AB1D39"/>
<path d="M25.6404 8.85511C25.4178 8.82666 25.1953 8.81243 24.9712 8.81243C20.3359 8.81243 16.1847 14.9556 13.3922 22.5258L13.0806 22.5774L12.9955 23.4668L10.3206 22.9075C13.1101 14.8793 17.5727 7.86768 22.4133 7.86768C23.5207 7.86768 24.6002 8.21877 25.6404 8.85511Z" fill="#C1A22E"/>
<path d="M30.6382 11.8719C25.9914 6.54767 21.0603 8.02995 21.0603 8.02995L21.0724 8.04491C21.5152 7.92813 21.9633 7.8675 22.4136 7.8675C23.521 7.8675 24.6005 8.21859 25.6407 8.85493C27.4006 9.07876 29.082 10.1733 30.6382 11.8711V11.8719Z" fill="#0D84A9"/>
<path d="M34.9496 18.6752L33.0041 19.0951C31.0007 14.4275 28.4661 10.5848 25.6403 8.85474C27.4054 9.07932 29.0922 10.179 30.6513 11.8867C30.6521 11.8889 30.6536 11.8897 30.6551 11.8919C32.2355 13.6227 33.6837 15.9772 34.9496 18.676V18.6752Z" fill="#AB1D39"/>
<path d="M25.6404 8.85511C25.4178 8.82666 25.1953 8.81243 24.9712 8.81243C20.3359 8.81243 16.1847 14.9556 13.3922 22.5258L13.0806 22.5774L12.9955 23.4668L10.3206 22.9075C13.1101 14.8793 17.5727 7.86768 22.4133 7.86768C23.5207 7.86768 24.6002 8.21877 25.6404 8.85511Z" fill="#C1A22E"/>
<path d="M30.6382 11.8719C25.9914 6.54767 21.0603 8.02995 21.0603 8.02995L21.0724 8.04491C21.5152 7.92813 21.9633 7.8675 22.4136 7.8675C23.521 7.8675 24.6005 8.21859 25.6407 8.85493C27.4006 9.07876 29.082 10.1733 30.6382 11.8711V11.8719Z" fill="#0D84A9"/>
<path d="M3.71102 32.3496L8.14579 25.0237L14.7476 32.5203C18.1913 32.1012 21.6613 31.89 25.1432 31.89C25.6012 31.89 26.0529 31.8937 26.4988 31.9012L35.9454 20.6853L42.7555 32.3496H43.5106L36.1204 19.6904L29.3584 21.4885L28.2391 22.8256V20.2804L26.689 20.1224V22.1999L24.4235 22.804H19.9925L17.0598 26.8473L16.8492 26.672L17.8465 25.3066H15.422V23.8049L14.2694 23.3317V26.2596L13.3755 25.0918L9.34056 24.4419L7.87711 24.206L2.94826 32.3489L1.79041 34.2617H2.55381L3.71167 32.3489L3.71102 32.3496ZM18.5194 26.1982L20.4987 23.4694L23.4112 26.9258H25.2791L22.9941 30.1405L18.5028 30.1008L18.5201 26.1974L18.5194 26.1982Z" fill="#0D4D8C"/>
<path d="M34.4795 27.6169H33.0884V29.3126H34.4795V27.6169Z" fill="#AB1D39"/>
<path d="M36.1475 27.6169H34.7565V29.3126H36.1475V27.6169Z" fill="#AB1D39"/>
<path d="M34.7565 27.3407H36.1475V27.1234C36.1475 26.3315 35.5366 25.6817 34.7565 25.6113V27.3399V27.3407Z" fill="#AB1D39"/>
<path d="M36.1475 29.5886H34.7565V30.4167H36.1475V29.5886Z" fill="#AB1D39"/>
<path d="M34.4795 27.3406V25.6121C33.6994 25.6816 33.0884 26.3322 33.0884 27.1242V27.3414H34.4795V27.3406Z" fill="#AB1D39"/>
<path d="M34.4795 29.5886H33.0884V30.4167H34.4795V29.5886Z" fill="#AB1D39"/>
<path d="M8.53953 30.4211H7.47363V31.7208H8.53953V30.4211Z" fill="#AB1D39"/>
<path d="M9.81834 30.4211H8.75244V31.7208H9.81834V30.4211Z" fill="#AB1D39"/>
<path d="M8.75244 30.2094H9.81834V30.0431C9.81834 29.436 9.34991 28.9382 8.75244 28.8843V30.2094Z" fill="#AB1D39"/>
<path d="M9.81834 31.9319H8.75244V32.5668H9.81834V31.9319Z" fill="#AB1D39"/>
<path d="M8.53856 30.2094V28.8843C7.94109 28.9374 7.47266 29.436 7.47266 30.0431V30.2094H8.53856Z" fill="#AB1D39"/>
<path d="M8.53953 31.9319H7.47363V32.5668H8.53953V31.9319Z" fill="#AB1D39"/>
<path d="M20.3791 27.0068H19.6745V27.8655H20.3791V27.0068Z" fill="#AB1D39"/>
<path d="M21.2242 27.0068H20.5197V27.8655H21.2242V27.0068Z" fill="#AB1D39"/>
<path d="M20.5197 26.8667H21.2242V26.7566C21.2242 26.3553 20.915 26.026 20.5197 25.9907V26.8667Z" fill="#AB1D39"/>
<path d="M21.2242 28.0054H20.5197V28.4246H21.2242V28.0054Z" fill="#AB1D39"/>
<path d="M20.3791 26.8667V25.9907C19.9838 26.026 19.6745 26.3553 19.6745 26.7566V26.8667H20.3791Z" fill="#AB1D39"/>
<path d="M20.3791 28.0054H19.6745V28.4246H20.3791V28.0054Z" fill="#AB1D39"/>
<path d="M24.4239 22.8047L27.5566 26.9079L23.4107 26.9267L19.9929 22.8047H24.4239Z" fill="#0D84A9"/>
<path d="M42.7559 32.3497L35.9458 20.6854L36.4067 20.1824L43.5109 32.3497" fill="#0D84A9"/>
<path d="M28.2391 22.8263L26.689 22.2004V20.0039L28.2391 19.5308V22.8263Z" fill="#0D84A9"/>
<path d="M25.0635 31.8909L22.9838 30.1414L18.522 30.0036V26.2171L18.0452 26.8879L17.0464 26.8624L16.8494 26.6737L17.8467 25.3083H15.4223L14.2696 26.2613L13.3757 25.0933L7.87668 24.2078L15.2321 32.4637C18.4903 32.0864 21.7716 31.8946 25.0635 31.8917V31.8909Z" fill="#0D84A9"/>
<path d="M-0.435181 37.9833C-0.435181 37.9833 19.274 55.6157 45.7062 36.7998C45.7062 36.7998 25.2779 29.9371 -0.435181 37.9833Z" fill="#258B43"/>
<path d="M4.41328 34.3807V32.5826L4.55359 32.3497L8.5116 25.8112L8.17905 25.4414L3.99777 32.3497L2.95898 34.0655L2.99736 34.791L4.41328 34.3807Z" fill="#EBEBEB"/>
<path d="M40.2016 33.1196L42.1266 33.5957L42.064 31.9361L35.9033 21.2539L35.1868 22.1029L40.2016 30.7359V33.1196Z" fill="#EBEBEB"/>
</g>
<path d="M55.5402 19.6336C54.8096 19.9226 54.1349 20.0658 53.5136 20.0658C52.4317 20.0658 51.4614 19.7205 50.6052 19.03C49.5139 18.1476 48.9695 16.9967 48.9695 15.5798C48.9695 14.1629 49.5139 13.0043 50.6052 12.1219C51.4614 11.4315 52.4363 11.0862 53.5322 11.0862C54.1279 11.0862 54.798 11.2294 55.5402 11.5184V14.1859C55.3308 13.9301 55.1168 13.7357 54.898 13.6054C54.4978 13.365 54.0697 13.2448 53.6113 13.2448C53.032 13.2448 52.5271 13.4187 52.0989 13.7664C51.5568 14.2063 51.2846 14.81 51.2846 15.5773C51.2846 16.3445 51.5568 16.9429 52.0989 17.3829C52.5271 17.7307 53.032 17.9046 53.6113 17.9046C54.0697 17.9046 54.4978 17.7844 54.898 17.544C55.1121 17.4187 55.3262 17.2243 55.5402 16.9635V19.631V19.6336Z" fill="white"/>
<path d="M65.8093 19.8367H63.5755V16.2739H60.353V19.8367H58.1193V11.2712H60.353V14.5782H63.5755V11.2712H65.8093V19.8367Z" fill="white"/>
<path d="M75.9181 19.8367H73.1422L71.0085 16.5501V19.8367H68.7749V11.2712H72.2487C73.2631 11.2712 74.0148 11.5757 74.501 12.1818C74.8966 12.6703 75.0921 13.2458 75.0921 13.9082C75.0921 14.6653 74.8664 15.2688 74.4126 15.7215C74.124 16.0105 73.7239 16.2101 73.2167 16.3226L75.9181 19.8367ZM72.7792 14.0284C72.7792 13.724 72.6676 13.4682 72.4442 13.2585C72.2325 13.0617 71.895 12.9645 71.4274 12.9645H71.0109V15.0974H71.4274C71.8996 15.0974 72.2371 15.0003 72.4442 14.8033C72.6676 14.5911 72.7792 14.3327 72.7792 14.0284Z" fill="white"/>
<path d="M80.2526 19.8367H78.0189V11.2712H80.2526V19.8367Z" fill="white"/>
<path d="M89.1741 16.9976C89.1741 18.4476 88.5366 19.3913 87.2615 19.8313C86.8171 19.9873 86.3379 20.0641 85.826 20.0641C84.751 20.0641 83.7551 19.7392 82.8361 19.0921L83.7924 17.2968C84.4648 17.9029 85.1232 18.2072 85.7654 18.2072C86.0563 18.2072 86.3006 18.1407 86.503 18.0051C86.738 17.8542 86.8566 17.6368 86.8566 17.358C86.8566 17.1049 86.7264 16.8927 86.4658 16.7238C86.2727 16.5959 85.9469 16.468 85.4886 16.3377C84.9347 16.1739 84.5858 16.0613 84.4414 16.0001C84.2134 15.9029 84.0204 15.7904 83.8621 15.6625C83.4038 15.2865 83.1758 14.7188 83.1758 13.9565C83.1758 13.1944 83.4131 12.5038 83.8877 11.9821C84.4414 11.3682 85.179 11.0613 86.1029 11.0613C87.0265 11.0613 87.9387 11.294 88.8275 11.7571L87.934 13.4885C87.4454 13.1073 86.9545 12.9182 86.4565 12.9182C86.2169 12.9182 86.0027 12.9794 85.812 13.0997C85.598 13.2378 85.4908 13.4219 85.4908 13.6547C85.4908 13.8874 85.6305 14.0767 85.9144 14.2404C86.04 14.3171 86.4192 14.445 87.0498 14.6317C87.8409 14.8618 88.404 15.1893 88.739 15.6112C89.0299 15.9718 89.1741 16.4349 89.1741 17V16.9976Z" fill="white"/>
<path d="M103.014 17.4019C103.014 18.0412 102.832 18.563 102.467 18.9645C101.939 19.5451 101.131 19.8367 100.05 19.8367H96.4733V11.2712H99.7959C101.408 11.2712 102.213 12.0155 102.213 13.5041C102.213 13.9517 102.125 14.325 101.948 14.6269C101.802 14.8827 101.574 15.1001 101.269 15.2791C101.955 15.4223 102.423 15.6959 102.674 16.1C102.9 16.4735 103.014 16.9057 103.014 17.3993V17.4019ZM100.143 13.8008C100.143 13.412 99.9681 13.1536 99.6167 13.0284C99.4911 12.9875 99.3236 12.9645 99.1165 12.9645H98.7093V14.6396H99.1165C99.5005 14.6396 99.7773 14.5451 99.9426 14.3584C100.077 14.2074 100.143 14.0208 100.143 13.8008ZM100.778 17.251C100.778 16.7521 100.519 16.4606 100.005 16.3737C99.8425 16.3481 99.5609 16.3353 99.1653 16.3353H98.707V18.141H99.2025C99.7703 18.141 100.168 18.0745 100.394 17.9415C100.65 17.7906 100.778 17.5605 100.778 17.251Z" fill="white"/>
<path d="M113.098 16.211C113.098 16.725 113.056 17.1648 112.972 17.5281C112.842 18.0934 112.532 18.6074 112.041 19.0702C111.346 19.7277 110.412 20.055 109.247 20.055C108.081 20.055 107.132 19.72 106.464 19.0524C106.113 18.7019 105.871 18.2595 105.74 17.7275C105.647 17.3517 105.601 16.8452 105.601 16.2084V11.2697H107.834V15.9015C107.834 16.2724 107.841 16.551 107.853 16.7353C107.895 17.3157 108.163 17.7224 108.653 17.9501C108.856 18.0473 109.077 18.0934 109.321 18.0934C109.866 18.0934 110.278 17.9041 110.554 17.523C110.759 17.2442 110.864 16.7019 110.864 15.8988V11.2671H113.098V16.2057V16.211Z" fill="white"/>
<path d="M123.561 11.2712L120.346 15.7189V19.834H118.112V15.7189L115.003 11.2712H117.672L119.296 13.6064L120.857 11.2712H123.564H123.561Z" fill="white"/>
<path d="M131.425 16.9976C131.425 18.4476 130.788 19.3913 129.513 19.8313C129.068 19.9873 128.589 20.0641 128.077 20.0641C127.002 20.0641 126.006 19.7392 125.087 19.0921L126.043 17.2968C126.716 17.9029 127.374 18.2072 128.019 18.2072C128.31 18.2072 128.554 18.1407 128.756 18.0051C128.991 17.8542 129.11 17.6368 129.11 17.358C129.11 17.1049 128.98 16.8927 128.719 16.7238C128.526 16.5959 128.2 16.468 127.742 16.3377C127.188 16.1739 126.839 16.0613 126.695 16.0001C126.467 15.9029 126.274 15.7904 126.116 15.6625C125.657 15.2865 125.429 14.7188 125.429 13.9565C125.429 13.1944 125.666 12.5038 126.141 11.9821C126.695 11.3682 127.433 11.0613 128.356 11.0613C129.28 11.0613 130.192 11.294 131.081 11.7571L130.187 13.4885C129.699 13.1073 129.208 12.9182 128.71 12.9182C128.47 12.9182 128.256 12.9794 128.065 13.0997C127.851 13.2378 127.744 13.4219 127.744 13.6547C127.744 13.8874 127.884 14.0767 128.168 14.2404C128.294 14.3171 128.673 14.445 129.303 14.6317C130.094 14.8618 130.657 15.1893 130.992 15.6112C131.283 15.9718 131.428 16.4349 131.428 17L131.425 16.9976Z" fill="white"/>
<path d="M146.417 19.8367H144.183V16.2739H140.961V19.8367H138.727V11.2712H140.961V14.5782H144.183V11.2712H146.417V19.8367Z" fill="white"/>
<path d="M158.511 15.5772C158.511 16.7407 158.122 17.7612 157.347 18.6385C156.463 19.6386 155.265 20.1372 153.752 20.1372C152.24 20.1372 151.049 19.6386 150.165 18.6385C149.387 17.7612 149.001 16.7407 149.001 15.5772C149.001 15.0452 149.106 14.5003 149.315 13.9429C149.525 13.3853 149.806 12.907 150.158 12.508C151.042 11.5079 152.24 11.0093 153.752 11.0093C155.265 11.0093 156.461 11.5105 157.347 12.508C158.124 13.3853 158.511 14.4084 158.511 15.5772ZM156.193 15.5772C156.193 14.9735 156 14.4518 155.612 14.0118C155.116 13.4493 154.495 13.1679 153.75 13.1679C153.236 13.1679 152.773 13.3111 152.354 13.5976C151.938 13.8841 151.642 14.2676 151.465 14.746C151.365 15.0196 151.314 15.2957 151.314 15.5772C151.314 16.1552 151.507 16.6743 151.896 17.1321C152.375 17.6974 152.994 17.9812 153.75 17.9812C154.506 17.9812 155.128 17.7 155.612 17.1398C155.998 16.6922 156.193 16.1705 156.193 15.5796V15.5772Z" fill="white"/>
<path d="M171.473 19.8367H169.24L168.604 14.9057L166.529 19.8367H165.642L163.662 14.9057L162.934 19.8367H160.705L162.166 11.2712H164.377L166.115 15.8391L167.953 11.2712H170.182L171.478 19.8367H171.473Z" fill="white"/>
<path d="M178.94 19.8367H174.049V11.2712H178.94V13.1282H176.283V14.5911H178.793V16.4479H176.283V17.9799H178.94V19.8367Z" fill="white"/>
<path d="M187.472 16.9978C187.472 18.4478 186.834 19.3916 185.559 19.8316C185.115 19.9876 184.636 20.0643 184.124 20.0643C183.049 20.0643 182.053 19.7395 181.134 19.0924L182.09 17.297C182.762 17.9031 183.421 18.2074 184.065 18.2074C184.356 18.2074 184.601 18.141 184.803 18.0054C185.038 17.8545 185.157 17.6371 185.157 17.3583C185.157 17.1051 185.026 16.8929 184.766 16.7241C184.573 16.5962 184.247 16.4683 183.789 16.3379C183.235 16.1741 182.886 16.0616 182.742 16.0003C182.514 15.9031 182.32 15.7906 182.162 15.6627C181.704 15.2867 181.476 14.719 181.476 13.9567C181.476 13.1946 181.713 12.5041 182.188 11.9824C182.742 11.3684 183.479 11.0615 184.403 11.0615C185.327 11.0615 186.239 11.2943 187.127 11.7573L186.234 13.4888C185.745 13.1076 185.254 12.9184 184.757 12.9184C184.517 12.9184 184.303 12.9797 184.112 13.0999C183.898 13.2381 183.791 13.4221 183.791 13.6549C183.791 13.8876 183.931 14.0769 184.214 14.2406C184.34 14.3174 184.719 14.4453 185.35 14.6319C186.141 14.8621 186.704 15.1896 187.039 15.6114C187.33 15.9721 187.474 16.4351 187.474 17.0002L187.472 16.9978Z" fill="white"/>
<path d="M85.6722 33.9191C85.2743 33.9191 84.937 33.85 84.6602 33.7119C84.3831 33.5738 84.1737 33.3718 84.0295 33.1057C83.8853 32.8398 83.8154 32.515 83.8154 32.1313V31.7553H84.8114V32.0955C84.8114 32.3717 84.8857 32.5841 85.0347 32.7298C85.1836 32.8756 85.3953 32.9524 85.6722 32.9524C85.9492 32.9524 86.147 32.8782 86.2912 32.7298C86.4354 32.5814 86.5051 32.3693 86.5051 32.0955V31.4306C86.5051 31.226 86.454 31.0572 86.3493 30.9318C86.2469 30.8039 86.112 30.6966 85.9492 30.6045C85.7839 30.515 85.6094 30.4255 85.4187 30.3436C85.2277 30.2618 85.0417 30.1671 84.8555 30.0675C84.6695 29.9677 84.4971 29.8424 84.339 29.6991C84.1808 29.5533 84.0552 29.3743 83.9621 29.1595C83.8667 28.9446 83.8201 28.6786 83.8201 28.3615V27.9216C83.8201 27.3537 83.9784 26.9191 84.2971 26.6146C84.6159 26.3103 85.0719 26.1594 85.6653 26.1594C86.2585 26.1594 86.6891 26.3128 86.9984 26.6223C87.3056 26.9318 87.4592 27.3717 87.4592 27.942V28.3384H86.4633V27.983C86.4633 27.7042 86.3959 27.4919 86.2585 27.3462C86.1213 27.2003 85.9258 27.1262 85.6653 27.1262C85.3883 27.1262 85.1789 27.1953 85.0324 27.3359C84.8882 27.4765 84.8137 27.6735 84.8137 27.9317V28.4075C84.8137 28.63 84.8695 28.809 84.9811 28.9421C85.0928 29.0777 85.2395 29.1876 85.4187 29.2771C85.5978 29.3666 85.7886 29.4561 85.9887 29.5456C86.1679 29.625 86.3446 29.7093 86.5215 29.7988C86.6984 29.8883 86.8612 29.9984 87.0102 30.1287C87.159 30.2592 87.2777 30.4305 87.3661 30.6378C87.4546 30.8475 87.501 31.1108 87.501 31.4331V32.1289C87.501 32.7043 87.3429 33.1467 87.0288 33.4536C86.7145 33.7605 86.261 33.9165 85.6699 33.9165L85.6722 33.9191Z" fill="white"/>
<path d="M90.9261 33.8413L92.6898 26.2402H93.602L95.3634 33.8413H94.2931L93.1435 27.7978L91.9942 33.8413H90.9239H90.9261ZM92.0523 32.184V31.248H94.314V32.184H92.0523Z" fill="white"/>
<path d="M99.8237 26.2397V33.8409H98.8278V26.2397H99.8237Z" fill="white"/>
<path d="M103.656 33.8369V26.2409H104.527L106.614 32.0695L106.451 32.2051V26.2383H107.4V33.8343H106.518L104.441 28.1871L104.603 28.0516V33.8343H103.654L103.656 33.8369Z" fill="white"/>
<path d="M111.139 27.1809V26.2397H114.844V27.1809H111.139ZM112.491 33.8409V26.8612H113.487V33.8409H112.491Z" fill="white"/>
<path d="M123.112 33.8409V26.2397H124.108V33.8409H123.112ZM123.647 33.8409V32.8997H126.281V33.8409H123.647Z" fill="white"/>
<path d="M131.545 33.9194C131.147 33.9194 130.805 33.8452 130.521 33.6943C130.237 33.5434 130.021 33.3286 129.874 33.0446C129.725 32.7607 129.651 32.4154 129.651 32.0113V28.0702C129.651 27.6635 129.725 27.3157 129.874 27.0317C130.023 26.7478 130.239 26.5304 130.521 26.3821C130.805 26.2338 131.145 26.1597 131.545 26.1597C131.945 26.1597 132.289 26.2338 132.571 26.3821C132.852 26.5304 133.066 26.7454 133.215 27.0317C133.364 27.3157 133.439 27.661 133.439 28.0702V32.0113C133.439 32.4154 133.364 32.7607 133.215 33.0446C133.066 33.3286 132.852 33.546 132.571 33.6943C132.289 33.8426 131.947 33.9194 131.545 33.9194ZM131.545 32.9526C131.829 32.9526 132.047 32.8732 132.206 32.7122C132.364 32.551 132.44 32.3285 132.44 32.042V28.0368C132.44 27.7479 132.361 27.5228 132.206 27.3642C132.047 27.2056 131.829 27.1264 131.545 27.1264C131.261 27.1264 131.037 27.2056 130.882 27.3642C130.726 27.5228 130.649 27.7479 130.649 28.0368V32.042C130.649 32.3285 130.726 32.551 130.882 32.7122C131.037 32.8732 131.259 32.9526 131.545 32.9526Z" fill="white"/>
<path d="M138.751 33.9201C138.19 33.9201 137.762 33.7667 137.466 33.4598C137.171 33.1529 137.02 32.7104 137.02 32.1324V26.2397H138.016V32.1734C138.016 32.424 138.078 32.6157 138.206 32.7513C138.334 32.8868 138.516 32.9533 138.749 32.9533C138.981 32.9533 139.174 32.8868 139.302 32.7513C139.43 32.6183 139.493 32.424 139.493 32.1734V26.2397H140.489V32.1324C140.489 32.7104 140.34 33.1529 140.04 33.4598C139.74 33.7667 139.309 33.9201 138.746 33.9201H138.751Z" fill="white"/>
<path d="M145.163 26.2397V33.8409H144.167V26.2397H145.163Z" fill="white"/>
<path d="M150.799 33.9194C150.401 33.9194 150.063 33.8503 149.787 33.7121C149.51 33.5741 149.3 33.3721 149.156 33.106C149.012 32.8401 148.942 32.5152 148.942 32.1316V31.7556H149.938V32.0958C149.938 32.372 150.012 32.5843 150.161 32.73C150.31 32.8759 150.522 32.9526 150.799 32.9526C151.076 32.9526 151.273 32.8785 151.418 32.73C151.562 32.5817 151.632 32.3694 151.632 32.0958V31.4309C151.632 31.2262 151.581 31.0573 151.476 30.932C151.373 30.8042 151.238 30.6969 151.076 30.6047C150.913 30.5126 150.736 30.4257 150.545 30.3439C150.354 30.2621 150.168 30.1673 149.982 30.0675C149.796 29.9679 149.624 29.8426 149.465 29.6994C149.307 29.5535 149.182 29.3745 149.088 29.1597C148.993 28.9448 148.947 28.6789 148.947 28.3617V27.9218C148.947 27.3539 149.105 26.9192 149.424 26.6149C149.742 26.3106 150.198 26.1597 150.792 26.1597C151.385 26.1597 151.815 26.313 152.125 26.6226C152.434 26.9321 152.586 27.3719 152.586 27.9423V28.3387H151.59V27.9833C151.59 27.7045 151.522 27.4921 151.385 27.3463C151.248 27.2006 151.05 27.1264 150.792 27.1264C150.515 27.1264 150.305 27.1955 150.159 27.3361C150.015 27.4768 149.94 27.6738 149.94 27.932V28.4078C149.94 28.6302 149.996 28.8092 150.108 28.9423C150.219 29.0779 150.366 29.1878 150.545 29.2773C150.724 29.3668 150.915 29.4564 151.115 29.5459C151.294 29.6252 151.471 29.7095 151.648 29.799C151.825 29.8885 151.988 29.9986 152.137 30.1289C152.285 30.2594 152.404 30.4308 152.493 30.6379C152.581 30.8478 152.625 31.1111 152.625 31.4333V32.1291C152.625 32.7045 152.467 33.147 152.153 33.4539C151.839 33.7608 151.385 33.9168 150.794 33.9168L150.799 33.9194Z" fill="white"/>
<path d="M78.118 30.1493C78.118 29.8321 77.8551 29.5765 77.5387 29.5842L53.1681 30.1493L77.5387 30.7146C77.8574 30.7222 78.118 30.4665 78.118 30.1493Z" fill="white"/>
<path d="M158.326 30.1469C158.326 29.7915 158.589 29.5024 158.906 29.5127L183.276 30.1469L158.906 30.7813C158.587 30.789 158.326 30.5025 158.326 30.1469Z" fill="white"/>
</svg>
