<svg width="60" height="60" viewBox="0 0 60 60" fill="none" xmlns="http://www.w3.org/2000/svg">
<g clip-path="url(#clip0_2_897)">
<path d="M21.8372 34.0247L17.1497 38.7122C16.974 38.888 16.8752 39.1264 16.8752 39.375C16.8752 39.6236 16.974 39.862 17.1497 40.0378L19.9622 42.8503C20.138 43.0261 20.3765 43.1248 20.625 43.1248C20.8736 43.1248 21.1121 43.0261 21.2879 42.8503L25.9754 38.1628C26.1511 37.987 26.2498 37.7486 26.2498 37.5C26.2498 37.2514 26.1511 37.013 25.9754 36.8372L23.1629 34.0247C22.9871 33.8489 22.7486 33.7502 22.5 33.7502C22.2515 33.7502 22.013 33.8489 21.8372 34.0247ZM20.625 40.8619L19.1382 39.375L22.5 36.0131L23.9869 37.5L20.625 40.8619Z" fill="white"/>
<path d="M37.5 26.25C37.7487 26.2499 37.9871 26.1511 38.1629 25.9753L42.8504 21.2878C43.0261 21.112 43.1248 20.8736 43.1248 20.625C43.1248 20.3764 43.0261 20.138 42.8504 19.9622L40.0379 17.1497C39.8621 16.9739 39.6236 16.8752 39.375 16.8752C39.1265 16.8752 38.888 16.9739 38.7122 17.1497L34.0247 21.8372C33.849 22.013 33.7502 22.2514 33.7502 22.5C33.7502 22.7486 33.849 22.987 34.0247 23.1628L36.8372 25.9753C37.013 26.1511 37.2514 26.2499 37.5 26.25ZM39.375 19.1381L40.8619 20.625L37.5 23.9869L36.0132 22.5L39.375 19.1381Z" fill="white"/>
<path d="M30 0.9375C24.252 0.9375 18.6331 2.64199 13.8538 5.83541C9.07445 9.02884 5.34944 13.5678 3.14976 18.8783C0.950092 24.1887 0.374558 30.0322 1.49594 35.6698C2.61732 41.3074 5.38526 46.4858 9.44972 50.5503C13.5142 54.6148 18.6926 57.3827 24.3302 58.5041C29.9678 59.6255 35.8113 59.0499 41.1217 56.8503C46.4322 54.6506 50.9712 50.9256 54.1646 46.1463C57.358 41.367 59.0625 35.748 59.0625 30C59.0536 22.2949 55.9888 14.9079 50.5404 9.45957C45.0921 4.01123 37.7051 0.946432 30 0.9375ZM55.9125 21.7744L38.2256 4.0875C42.3696 5.41339 46.1367 7.71027 49.2132 10.7868C52.2897 13.8633 54.5866 17.6305 55.9125 21.7744ZM51.5625 30C51.578 34.4257 50.2171 38.7467 47.6681 42.3647L42.2203 36.9178L51.4322 27.7059C51.516 28.4678 51.5595 29.2336 51.5625 30ZM40.8947 35.5922L39.5691 34.2666L50.6719 23.1628C50.8476 22.987 50.9464 22.7486 50.9464 22.5C50.9464 22.2514 50.8476 22.013 50.6719 21.8372L38.1628 9.32812C37.987 9.15237 37.7486 9.05364 37.5 9.05364C37.2514 9.05364 37.013 9.15237 36.8372 9.32812L25.7334 20.4309L24.4078 19.1053L37.5 6.01312L53.9869 22.5L40.8947 35.5922ZM30.6844 25.3819C31.6765 25.5284 32.5951 25.9904 33.3043 26.6995C34.0134 27.4087 34.4754 28.3273 34.6219 29.3194L30.6844 25.3819ZM30 23.4375C29.6153 23.4416 29.2316 23.4792 28.8535 23.55L27.06 21.7566L37.5 11.3166L48.6835 22.5L38.2435 32.94L36.45 31.1466C36.6283 30.202 36.5949 29.2297 36.3523 28.2996C36.1098 27.3694 35.664 26.5047 35.0472 25.7674C34.4304 25.0302 33.6578 24.4389 32.7851 24.036C31.9124 23.6331 30.9612 23.4287 30 23.4375ZM17.6353 12.3319C21.2533 9.78296 25.5743 8.42202 30 8.4375C30.7665 8.44054 31.5322 8.48404 32.2941 8.56781L23.0822 17.7797L17.6353 12.3319ZM4.08751 38.2256L21.7744 55.9125C17.6305 54.5866 13.8633 52.2897 10.7868 49.2132C7.71028 46.1367 5.41341 42.3695 4.08751 38.2256ZM8.43751 30C8.42194 25.5742 9.78324 21.253 12.3328 17.6353L17.7797 23.0822L8.56783 32.2941C8.48405 31.5322 8.44055 30.7664 8.43751 30ZM19.1053 24.4078L20.431 25.7334L9.32814 36.8372C9.15238 37.013 9.05365 37.2514 9.05365 37.5C9.05365 37.7486 9.15238 37.987 9.32814 38.1628L21.8372 50.6719C22.013 50.8476 22.2514 50.9464 22.5 50.9464C22.7486 50.9464 22.987 50.8476 23.1628 50.6719L34.2666 39.5691L35.5922 40.8947L22.5 53.9869L6.01314 37.5L19.1053 24.4078ZM29.3156 34.6181C28.3235 34.4716 27.4049 34.0096 26.6958 33.3005C25.9866 32.5913 25.5246 31.6727 25.3781 30.6806L29.3156 34.6181ZM30 36.5625C30.3847 36.5585 30.7684 36.5209 31.1466 36.45L32.94 38.2434L22.5 48.6834L11.3166 37.5L21.7566 27.06L23.55 28.8534C23.3718 29.798 23.4051 30.7703 23.6477 31.7004C23.8903 32.6306 24.336 33.4953 24.9528 34.2326C25.5696 34.9698 26.3422 35.5611 27.2149 35.964C28.0876 36.3669 29.0388 36.5713 30 36.5625ZM42.3647 47.6681C38.7467 50.217 34.4257 51.578 30 51.5625C29.2336 51.5595 28.4678 51.516 27.7059 51.4322L36.9178 42.2203L42.3647 47.6681ZM30 57.1875C27.5521 57.1869 25.1156 56.8548 22.7569 56.2003C22.9093 56.1614 23.0491 56.084 23.1628 55.9753L26.041 53.0981C27.3488 53.3221 28.6731 53.4356 30 53.4375C35.2075 53.4552 40.2697 51.7214 44.3728 48.5147C44.4783 48.4331 44.5651 48.3299 44.6275 48.212C44.6899 48.0942 44.7265 47.9644 44.7347 47.8313C44.743 47.6982 44.7228 47.5649 44.6754 47.4402C44.628 47.3156 44.5546 47.2025 44.46 47.1084L12.8888 15.54C12.795 15.4457 12.6822 15.3725 12.5579 15.3255C12.4335 15.2784 12.3005 15.2585 12.1678 15.2672C12.035 15.2753 11.9055 15.3116 11.7878 15.3737C11.6701 15.4358 11.567 15.5222 11.4853 15.6272C8.27863 19.7303 6.54478 24.7925 6.56251 30C6.56427 31.3269 6.67811 32.6513 6.90283 33.9591L4.0247 36.8372C3.91606 36.9509 3.83857 37.0907 3.7997 37.2431C2.51502 32.6085 2.48345 27.7159 3.70822 23.065C4.933 18.4142 7.37022 14.1717 10.771 10.771C14.1718 7.37021 18.4142 4.93298 23.065 3.70821C27.7159 2.48344 32.6085 2.515 37.2431 3.79969C37.0907 3.83855 36.9509 3.91605 36.8372 4.02469L33.9591 6.90188C32.6512 6.67794 31.3269 6.56441 30 6.5625C24.7925 6.54477 19.7303 8.27862 15.6272 11.4853C15.5217 11.5669 15.4349 11.6701 15.3725 11.788C15.3101 11.9058 15.2735 12.0356 15.2653 12.1687C15.257 12.3018 15.2773 12.4351 15.3246 12.5598C15.372 12.6844 15.4454 12.7975 15.54 12.8916L47.1113 44.46C47.287 44.6358 47.5255 44.7346 47.7741 44.7347C47.7938 44.7347 47.8134 44.7347 47.8331 44.7347C47.9658 44.7264 48.0951 44.69 48.2126 44.628C48.3301 44.5659 48.4331 44.4796 48.5147 44.3747C51.7218 40.2711 53.4557 35.2081 53.4375 30C53.4356 28.6731 53.3221 27.3488 53.0981 26.0409L55.9753 23.1628C56.084 23.0491 56.1615 22.9093 56.2003 22.7569C57.3192 26.7936 57.4897 31.0344 56.6984 35.1479C55.9071 39.2614 54.1755 43.1363 51.6389 46.4698C49.1022 49.8033 45.8291 52.5052 42.0754 54.3644C38.3217 56.2236 34.1889 57.1898 30 57.1875Z" fill="white"/>
</g>
<defs>
<clipPath id="clip0_2_897">
<rect width="60" height="60" fill="white"/>
</clipPath>
</defs>
</svg>
