<svg width="194" height="50" viewBox="0 0 194 50" fill="none" xmlns="http://www.w3.org/2000/svg">
<g clip-path="url(#clip0_136_911)">
<path d="M84.5143 34.334L54.2603 33.6273L84.5143 32.9206C84.9073 32.9144 85.2316 33.2271 85.2316 33.6273C85.2316 34.0213 84.9073 34.3403 84.5143 34.334ZM154.766 34.4216L185.02 33.6273L154.766 32.8331C154.373 32.8206 154.049 33.1833 154.049 33.6273C154.049 34.0713 154.373 34.4278 154.766 34.4216Z" fill="white"/>
<path d="M92.711 30.5066C92.8482 30.8005 92.9168 31.1507 92.9168 31.5697V31.8949H91.9063V31.5697C91.9063 31.3571 91.8751 31.182 91.819 31.0319C91.7566 30.8881 91.6693 30.7755 91.557 30.6942C91.4447 30.6129 91.3012 30.5754 91.139 30.5754C90.8958 30.5754 90.7086 30.6629 90.5714 30.8318C90.4342 31.0069 90.3655 31.2508 90.3655 31.5635V35.4722C90.3655 35.7849 90.4342 36.0288 90.5714 36.2039C90.7086 36.379 90.8958 36.4603 91.139 36.4603C91.3823 36.4603 91.5757 36.3727 91.7067 36.2039C91.8377 36.0288 91.9063 35.7849 91.9063 35.4722V35.147H92.9168V35.4722C92.9168 35.8849 92.8482 36.2414 92.711 36.5353C92.5738 36.8293 92.3679 37.0544 92.1059 37.2045C91.8439 37.3546 91.5195 37.4359 91.139 37.4359C90.7585 37.4359 90.4404 37.3609 90.1784 37.2045C89.9164 37.0482 89.7106 36.823 89.5671 36.5353C89.4236 36.2414 89.355 35.8912 89.355 35.4722V31.5635C89.355 31.1445 89.4236 30.788 89.5671 30.4941C89.7106 30.2001 89.9102 29.975 90.1784 29.8249C90.4466 29.6748 90.7648 29.5935 91.139 29.5935C91.5133 29.5935 91.8439 29.6686 92.1059 29.8249C92.3679 29.9812 92.5738 30.2064 92.711 30.4941V30.5066ZM97.5703 29.6811H96.566V37.3671H99.7474V36.4165H97.5641V29.6811H97.5703ZM103.877 29.6811H103.353V37.3671H106.64V36.4165H104.351V34.0275H106.378V33.0769H104.351V30.6379H106.64V29.6873H103.871L103.877 29.6811ZM111.83 35.5785L110.814 29.6811H109.772L111.313 37.3671H112.354L113.895 29.6811H112.853L111.837 35.5785H111.83ZM117.85 29.6811H117.326V37.3671H120.613V36.4165H118.324V34.0275H120.351V33.0769H118.324V30.6379H120.613V29.6873H117.844L117.85 29.6811ZM125.217 29.6811H124.213V37.3671H127.394V36.4165H125.211V29.6811H125.217ZM133.426 29.6811L135.198 37.3671H134.125L133.807 35.6911H132.129L131.81 37.3671H130.737L132.509 29.6811H133.426ZM133.626 34.7405L132.964 31.2508L132.303 34.7405H133.619H133.626ZM141.498 35.1157L139.564 29.6811H138.691V37.3609H139.645V32.1013L141.567 37.3609H142.452V29.6811H141.498V35.1157ZM149.919 31.2883V35.7599C149.919 36.1038 149.857 36.3915 149.732 36.6292C149.607 36.8668 149.42 37.0482 149.183 37.1795C148.946 37.3108 148.653 37.3671 148.316 37.3671H146.32V29.6811H148.322C148.834 29.6811 149.233 29.8186 149.507 30.1001C149.782 30.3815 149.925 30.7755 149.925 31.2883H149.919ZM148.915 31.2633C148.915 31.0632 148.865 30.9068 148.765 30.8005C148.665 30.6942 148.528 30.6379 148.341 30.6379H147.305V36.4228H148.341C148.522 36.4228 148.665 36.3665 148.765 36.2602C148.865 36.1539 148.915 35.9975 148.915 35.7974V31.2758V31.2633Z" fill="white"/>
<path d="M59.6187 13.8086C60.1926 13.8086 60.8414 13.9524 61.5587 14.2463V16.9668C61.3591 16.7041 61.147 16.5103 60.935 16.3789C60.5482 16.135 60.1365 16.01 59.6936 16.01C59.1322 16.01 58.6456 16.1851 58.2339 16.5415C57.7099 16.9918 57.4479 17.6047 57.4479 18.3864C57.4479 19.1682 57.7099 19.7748 58.2339 20.2251C58.6456 20.5816 59.1384 20.7567 59.6936 20.7567C60.1365 20.7567 60.5482 20.6316 60.935 20.3877C61.1408 20.2626 61.3467 20.0625 61.5587 19.7998V22.5203C60.8539 22.8205 60.1989 22.9643 59.6 22.9643C58.5521 22.9643 57.6164 22.6141 56.7805 21.9074C55.7263 21.0068 55.196 19.8311 55.196 18.3927C55.196 16.9543 55.72 15.766 56.7805 14.8655C57.6101 14.165 58.5521 13.8086 59.6187 13.8086ZM69.3437 17.3796H66.2185V14.0087H64.0539V22.7329H66.2185V19.0994H69.3437V22.7329H71.5083V14.0087H69.3437V17.3796ZM78.6881 19.1619L81.3081 22.7454H81.3018L78.6133 22.7392L76.5423 19.3871V22.7392H74.3777V14.015H77.74C78.7193 14.015 79.4492 14.3277 79.9232 14.9405C80.3038 15.4346 80.4971 16.0225 80.4971 16.6979C80.4971 17.4671 80.2788 18.08 79.8422 18.5428C79.5614 18.8367 79.1747 19.0368 78.6881 19.1557V19.1619ZM78.2577 16.8167C78.2577 16.504 78.1517 16.2476 77.9333 16.035C77.7275 15.8348 77.4031 15.7348 76.9477 15.7348H76.5423V17.9111H76.9477C77.4031 17.9111 77.7275 17.8111 77.9333 17.611C78.1517 17.3921 78.2577 17.1294 78.2577 16.823V16.8167ZM83.3354 22.7392H85.5V14.015H83.3354V22.7392ZM92.0748 17.4358C91.4634 17.242 91.1016 17.1106 90.9769 17.0356C90.7024 16.873 90.5652 16.6791 90.5652 16.4415C90.5652 16.2038 90.6712 16.0162 90.8771 15.8786C91.0642 15.7535 91.2701 15.691 91.5009 15.691C91.9812 15.691 92.4553 15.8849 92.9294 16.2726L93.7902 14.509C92.9356 14.04 92.0498 13.8023 91.1515 13.8023C90.2533 13.8023 89.5484 14.115 89.0057 14.7404C88.5503 15.272 88.3195 15.9724 88.3195 16.7479C88.3195 17.5234 88.5379 18.105 88.9807 18.4865C89.1367 18.6178 89.3238 18.7304 89.5422 18.8305C89.6794 18.893 90.0162 19.0056 90.5527 19.1744C90.9956 19.3058 91.3075 19.4371 91.4946 19.5684C91.7504 19.7373 91.8751 19.9562 91.8751 20.2126C91.8751 20.494 91.7566 20.7129 91.5321 20.8692C91.3387 21.0068 91.1016 21.0756 90.8209 21.0756C90.1971 21.0756 89.5609 20.7692 88.9121 20.15L87.9889 21.9762C88.8747 22.6328 89.8353 22.9643 90.8833 22.9643C91.3824 22.9643 91.844 22.883 92.2744 22.7267C93.5033 22.2764 94.1208 21.3195 94.1208 19.8373C94.1208 19.262 93.9773 18.7929 93.6966 18.424C93.3723 17.9987 92.8296 17.661 92.0623 17.4296L92.0748 17.4358ZM107.208 18.9368C107.426 19.3183 107.539 19.756 107.539 20.2564C107.539 20.9068 107.364 21.4383 107.008 21.8448C106.497 22.4327 105.717 22.7329 104.663 22.7329H101.201V14.0087H104.42C105.979 14.0087 106.765 14.7654 106.765 16.2851C106.765 16.7417 106.678 17.1231 106.509 17.4296C106.366 17.6923 106.148 17.9111 105.854 18.0925C106.516 18.2363 106.971 18.5178 107.214 18.9305L107.208 18.9368ZM103.365 17.4421H103.758C104.133 17.4421 104.395 17.3483 104.557 17.1544C104.688 16.9981 104.75 16.8105 104.75 16.5853C104.75 16.1913 104.582 15.9287 104.239 15.7973C104.12 15.7535 103.958 15.7348 103.758 15.7348H103.365V17.4421ZM105.374 20.1063H105.368C105.368 19.5934 105.118 19.2933 104.619 19.2057C104.463 19.1807 104.189 19.1682 103.808 19.1682H103.365V21.0068H103.846C104.395 21.0068 104.781 20.938 105 20.8067C105.249 20.6504 105.374 20.419 105.374 20.1063ZM117.289 14.0024H115.124V18.7241C115.124 19.5372 115.024 20.0938 114.825 20.3752C114.556 20.7629 114.157 20.9568 113.633 20.9568C113.402 20.9568 113.184 20.913 112.991 20.813C112.516 20.5816 112.255 20.1625 112.217 19.5747C112.205 19.3871 112.198 19.0994 112.198 18.7241V14.0024H110.034V19.0306C110.034 19.6747 110.084 20.1938 110.171 20.5753C110.296 21.1194 110.533 21.5697 110.87 21.9262C111.512 22.6016 112.429 22.9455 113.564 22.9455C114.7 22.9455 115.592 22.6141 116.272 21.9449C116.746 21.4759 117.045 20.9505 117.17 20.3752C117.251 20.0062 117.295 19.5622 117.295 19.0368V14.0024H117.289ZM123.308 16.3914L121.736 14.0087H119.147L122.16 18.5428V22.7329H124.325V18.5428L127.438 14.0087H124.824L123.314 16.3914H123.308ZM132.996 17.4358C132.384 17.242 132.016 17.1106 131.898 17.0356C131.623 16.873 131.486 16.6791 131.486 16.4415C131.486 16.2038 131.592 16.0162 131.798 15.8786C131.985 15.7535 132.191 15.691 132.422 15.691C132.902 15.691 133.376 15.8849 133.85 16.2726L134.711 14.509C133.857 14.04 132.971 13.8023 132.072 13.8023C131.174 13.8023 130.469 14.115 129.927 14.7404C129.471 15.272 129.24 15.9724 129.24 16.7479C129.24 17.5234 129.459 18.105 129.902 18.4865C130.058 18.6178 130.245 18.7304 130.463 18.8305C130.6 18.893 130.937 19.0056 131.474 19.1744C131.916 19.3058 132.228 19.4371 132.416 19.5684C132.671 19.7373 132.796 19.9562 132.796 20.2126C132.796 20.494 132.678 20.7129 132.453 20.8692C132.26 21.0068 132.023 21.0756 131.742 21.0756C131.118 21.0756 130.482 20.7692 129.833 20.15L128.91 21.9762C129.796 22.6328 130.756 22.9643 131.804 22.9643C132.297 22.9643 132.759 22.883 133.189 22.7267C134.418 22.2764 135.035 21.3195 135.035 19.8373H135.042C135.042 19.262 134.904 18.7929 134.624 18.424C134.299 17.9987 133.757 17.661 132.989 17.4296L132.996 17.4358ZM147.393 17.3796H144.274V14.0087H142.109V22.7329H144.274V19.0994H147.393V22.7329H149.557V14.0087H147.393V17.3796ZM160.156 15.2782C160.904 16.1726 161.279 17.2107 161.279 18.4052H161.272C161.272 19.5872 160.898 20.6316 160.149 21.5259C159.295 22.5453 158.135 23.0519 156.669 23.0519C155.203 23.0519 154.049 22.5453 153.194 21.5259C152.439 20.6316 152.071 19.5934 152.071 18.4052C152.071 17.8611 152.171 17.3108 152.377 16.7417C152.583 16.1726 152.851 15.6847 153.194 15.2845C154.049 14.2651 155.209 13.7585 156.675 13.7585C158.141 13.7585 159.301 14.2714 160.156 15.2845V15.2782ZM159.02 18.4052C159.02 17.7923 158.833 17.2607 158.459 16.8105C157.979 16.2351 157.38 15.9537 156.656 15.9537C156.157 15.9537 155.708 16.0975 155.309 16.3914C154.903 16.6854 154.623 17.0731 154.448 17.5609C154.354 17.8423 154.304 18.1175 154.304 18.4052C154.304 18.9931 154.492 19.5246 154.866 19.9874C155.327 20.5628 155.926 20.8505 156.656 20.8505C157.386 20.8505 157.991 20.5628 158.459 19.9937C158.833 19.5372 159.02 19.0056 159.02 18.4052ZM170.417 14.0087L168.639 18.6616L166.961 14.0087H164.815L163.399 22.7329H165.564L166.269 17.711L168.184 22.7329H169.038L171.047 17.711L171.658 22.7329H173.835L172.582 14.0087H170.417ZM176.312 22.7392H181.047V20.8505H178.47V19.2933H180.903V17.4046H178.47V15.9161H181.047V14.0275H176.312V22.7517V22.7392ZM188.9 18.4365C188.576 18.0112 188.033 17.6735 187.266 17.4421C186.654 17.2482 186.293 17.1169 186.168 17.0418C185.893 16.8792 185.756 16.6854 185.756 16.4477C185.756 16.2101 185.862 16.0225 186.068 15.8849C186.255 15.7598 186.461 15.6973 186.692 15.6973C187.172 15.6973 187.646 15.8911 188.12 16.2789L188.981 14.5153C188.127 14.0462 187.241 13.8086 186.343 13.8086C185.444 13.8086 184.739 14.1213 184.197 14.7467C183.741 15.2782 183.511 15.9787 183.511 16.7542C183.511 17.5297 183.729 18.1113 184.172 18.4928C184.328 18.6241 184.515 18.7367 184.733 18.8367C184.87 18.8993 185.207 19.0118 185.744 19.1807C186.187 19.312 186.498 19.4433 186.686 19.5747C186.941 19.7435 187.066 19.9624 187.066 20.2188C187.066 20.5003 186.954 20.7191 186.723 20.8755C186.53 21.0131 186.293 21.0819 186.012 21.0819C185.388 21.0819 184.752 20.7754 184.103 20.1563L183.18 21.9824C184.066 22.6391 185.026 22.9706 186.074 22.9706C186.567 22.9706 187.029 22.8893 187.459 22.7329C188.688 22.2826 189.306 21.3258 189.306 19.8436H189.312C189.312 19.2682 189.175 18.7992 188.894 18.4302L188.9 18.4365Z" fill="white"/>
<path d="M24.5027 50.0314C38.1109 50.0314 49.1425 38.9715 49.1425 25.3284C49.1425 11.6854 38.1109 0.625488 24.5027 0.625488C10.8944 0.625488 -0.137207 11.6854 -0.137207 25.3284C-0.137207 38.9715 10.8944 50.0314 24.5027 50.0314Z" fill="white"/>
<path d="M48.2818 25.3283C48.2818 38.399 37.6461 49.0119 24.509 49.0119C11.3719 49.0119 0.72998 38.3927 0.72998 25.3283C0.72998 12.2639 11.3657 1.64478 24.5028 1.64478C37.6399 1.64478 48.2756 12.2577 48.2756 25.3283H48.2818Z" fill="white"/>
<path d="M0.798466 27.0669C0.754801 26.4916 0.736087 25.9099 0.736087 25.3283C0.729849 12.2577 11.3655 1.64478 24.5026 1.64478C37.6397 1.64478 48.2754 12.2577 48.2754 25.3283C48.2754 25.3784 48.2754 25.4221 48.2754 25.4722L41.4199 13.5772L32.7866 15.9037L32.718 13.5772L31.3581 13.3709L29.3807 13.9837V16.823L26.4863 17.6048H20.8285L20.186 17.9925L16.8175 22.6079L18.09 20.838H14.996V18.8931L13.5239 18.2802L12.3823 18.9493V20.5566L7.22978 19.7186L5.3584 19.4121L0.78599 27.0607L0.798466 27.0669Z" fill="#86BFE2"/>
<path d="M48.2753 25.466L41.4198 13.571L32.7865 15.8975L31.358 17.6298V14.334L29.3806 14.1276V16.8168L26.4862 17.5986H20.8284L17.0856 22.8268L16.8174 22.6017L18.0899 20.8318H14.9959V18.8869L13.5238 18.274V22.0639L12.3822 20.5504L7.22968 19.7124L5.3583 19.4059L0.785889 27.0607C0.817078 27.5298 0.866982 27.9926 0.929361 28.4553L5.70139 20.4691L14.1288 30.1689C18.5266 29.6248 22.9555 29.3559 27.4032 29.3559C27.9896 29.3559 28.5634 29.3559 29.1311 29.3684L41.189 14.8593L48.2067 27.0357C48.2441 26.5166 48.2629 25.9913 48.2691 25.466H48.2753ZM24.6647 27.092L18.9321 27.042L18.9508 21.9951L21.4771 18.4616L25.195 22.9331H27.5778L24.6585 27.092H24.6647Z" fill="#9B2042"/>
<path d="M46.7223 33.765C39.873 32.4767 23.0181 30.2815 2.65747 34.6718C6.29419 43.0958 14.7029 49.0057 24.5027 49.0057C34.3025 49.0057 43.3101 42.6705 46.7223 33.765Z" fill="#258B43"/>
<path d="M39.3301 23.8275H37.5523V26.0227H39.3301V23.8275ZM41.4573 23.8275H39.6795V26.0227H41.4573V23.8275ZM39.6857 23.4711H41.4635V23.1896C41.4635 22.164 40.6838 21.326 39.6857 21.2322V23.4711ZM41.4573 26.3791H39.6795V27.4486H41.4573V26.3791ZM39.3301 23.4711V21.2322C38.3321 21.3197 37.5523 22.164 37.5523 23.1896V23.4711H39.3301ZM39.3301 26.3791H37.5523V27.4486H39.3301V26.3791ZM6.2129 27.4548H4.85303V29.1371H6.2129V27.4548ZM7.84724 27.4548H6.48737V29.1371H7.84724V27.4548ZM6.48737 27.1796H7.84724V26.967C7.84724 26.179 7.2484 25.5349 6.48737 25.4661V27.1796ZM7.84724 29.4123H6.48737V30.2316H7.84724V29.4123ZM6.2129 27.1796V25.4661C5.45187 25.5349 4.85303 26.179 4.85303 26.967V27.1796H6.2129ZM6.2129 29.4123H4.85303V30.2316H6.2129V29.4123ZM21.3274 23.0396H20.4292V24.1528H21.3274V23.0396ZM22.4066 23.0396H21.5083V24.1528H22.4066V23.0396ZM21.5083 22.8582H22.4066V22.7144C22.4066 22.1953 22.0136 21.77 21.5083 21.7262V22.8582ZM22.4066 24.3279H21.5083V24.872H22.4066V24.3279ZM21.3274 22.8582V21.7262C20.8222 21.77 20.4292 22.1953 20.4292 22.7144V22.8582H21.3274ZM21.3274 24.3279H20.4292V24.872H21.3274V24.3279Z" fill="#4E5C75"/>
<path d="M48.1444 27.8863C48.0259 29.0057 47.8263 30.1064 47.5518 31.1758L46.6348 30.9444V27.8612L40.2347 16.6918L41.1517 15.5911L48.1444 27.88V27.8863ZM1.0105 28.9557C1.0604 29.2621 1.11031 29.5686 1.17268 29.875L6.18175 21.4948L5.75757 21.0132L1.0105 28.9557Z" fill="#EBEBEB"/>
<path d="M20.8348 17.5986H26.4926L30.4912 22.9082L25.2014 22.9332L20.8411 17.5986H20.8348ZM31.3645 17.6299V13.3647L29.387 13.9776V16.8169L31.3645 17.6237V17.6299ZM48.2194 27.0358C48.2568 26.5167 48.2755 25.9976 48.2818 25.4661L41.7943 14.2028L41.2079 14.8532L48.2256 27.0295L48.2194 27.0358ZM14.7591 30.094C18.9198 29.6061 23.1054 29.356 27.3098 29.356L24.6587 27.0921L18.9634 26.9107V22.0139L18.3521 22.8832L17.0796 22.8519L16.8301 22.608L18.1026 20.8382H15.0086L13.5364 22.0702L12.3949 20.5567L5.3772 19.4123L14.7653 30.094H14.7591Z" fill="#0F2245"/>
</g>
<defs>
<clipPath id="clip0_136_911">
<rect width="194" height="50" fill="white"/>
</clipPath>
</defs>
</svg>
