<svg width="50" height="50" viewBox="0 0 50 50" fill="none" xmlns="http://www.w3.org/2000/svg">
<g clip-path="url(#clip0_10_203)">
<path d="M9.71752 24.4947L24.2199 12.4863C24.6718 12.1121 25.328 12.112 25.78 12.4863L42.5452 26.3685C42.6821 26.4818 42.8479 26.5371 43.0128 26.5371C43.2238 26.5371 43.4333 26.4465 43.5785 26.2713C43.8369 25.9591 43.7935 25.4965 43.4813 25.2381L26.7161 11.3559C26.4205 11.1112 26.085 10.9411 25.7337 10.8418V8.56416H35.0453C35.4506 8.56416 35.7791 8.23564 35.7791 7.83027V1.99551C35.7791 1.59014 35.4506 1.26162 35.0453 1.26162H25.7337V0.733887C25.7338 0.328516 25.4053 0 24.9999 0C24.5947 0 24.2661 0.328516 24.2661 0.733887V10.8419C23.9149 10.9411 23.5792 11.1113 23.2838 11.356L8.78148 23.3644C8.46927 23.6229 8.42582 24.0854 8.68422 24.3976C8.94281 24.7097 9.40541 24.7534 9.71752 24.4947ZM34.3115 2.7293V7.09639H25.7337V2.7293H34.3115Z" fill="white"/>
<path d="M49.0254 29.8286L45.7417 27.1096C45.4295 26.851 44.9669 26.8946 44.7085 27.2068C44.45 27.519 44.4935 27.9816 44.8057 28.24L48.0893 30.9588C48.3708 31.192 48.5323 31.5354 48.5323 31.901V48.2805C48.5323 48.4193 48.4193 48.5322 48.2807 48.5322H31.8827V32.0359C31.8827 31.6305 31.5542 31.302 31.1488 31.302H18.851C18.4457 31.302 18.1171 31.6305 18.1171 32.0359V48.5324H1.71943C1.58066 48.5324 1.46768 48.4194 1.46768 48.2807V31.9011C1.46768 31.5355 1.6292 31.1921 1.91074 30.9589L7.45478 26.3684C7.76699 26.1099 7.81045 25.6474 7.55205 25.3352C7.29346 25.023 6.83086 24.9795 6.51875 25.238L0.974707 29.8286C0.355273 30.3416 0 31.0968 0 31.9011V48.2806C0 49.2288 0.771387 50.0001 1.71943 50.0001H48.2806C49.2286 50.0001 50 49.2288 50 48.2806V31.9011C50 31.0969 49.6448 30.3417 49.0254 29.8286ZM19.585 32.7698H24.2661V42.2382C24.2661 42.6436 24.5947 42.9721 25 42.9721C25.4054 42.9721 25.7339 42.6436 25.7339 42.2382V32.7698H30.415V48.5324H25.7339V45.1737C25.7339 44.7683 25.4054 44.4398 25 44.4398C24.5947 44.4398 24.2661 44.7683 24.2661 45.1737V48.5324H19.585V32.7698Z" fill="white"/>
<path d="M6.25293 36.8938V42.0709C6.25293 42.8915 6.92051 43.5591 7.74102 43.5591H12.9181C13.7386 43.5591 14.4062 42.8915 14.4062 42.0709V36.8938C14.4062 36.0733 13.7386 35.4058 12.9181 35.4058H7.74102C6.92051 35.4059 6.25293 36.0733 6.25293 36.8938ZM7.7207 36.8938C7.7207 36.8827 7.72988 36.8735 7.74102 36.8735H12.9181C12.9293 36.8735 12.9385 36.8827 12.9385 36.8938V42.0709C12.9385 42.0821 12.9293 42.0913 12.9181 42.0913H7.74102C7.72979 42.0913 7.7207 42.0821 7.7207 42.0709V36.8938Z" fill="white"/>
<path d="M42.2591 35.4059H37.0821C36.2616 35.4059 35.594 36.0735 35.594 36.894V42.071C35.594 42.8916 36.2616 43.5592 37.0821 43.5592H42.2591C43.0796 43.5592 43.7472 42.8916 43.7472 42.071V36.894C43.7472 36.0734 43.0796 35.4059 42.2591 35.4059ZM42.2794 42.0709C42.2794 42.0822 42.2703 42.0913 42.2591 42.0913H37.0821C37.0709 42.0913 37.0617 42.0822 37.0617 42.0709V36.8939C37.0617 36.8827 37.0709 36.8736 37.0821 36.8736H42.2591C42.2704 36.8736 42.2794 36.8827 42.2794 36.8939V42.0709Z" fill="white"/>
<path d="M30.1606 21.8603C30.0073 21.3884 29.6284 21.0352 29.1469 20.9153L27.2485 20.4422L26.2122 18.7829C26.2122 18.7829 26.2122 18.7829 26.2121 18.7829C25.9492 18.3621 25.496 18.111 24.9999 18.111C24.5038 18.111 24.0506 18.362 23.7878 18.7829L22.7514 20.4422L20.8532 20.9153C20.3717 21.0351 19.9927 21.3884 19.8394 21.8602C19.6861 22.3322 19.7849 22.8407 20.104 23.221L21.3618 24.7194L21.2249 26.6709C21.1903 27.1659 21.4092 27.6356 21.8107 27.9272C22.0599 28.1081 22.3525 28.2011 22.6487 28.2011C22.8296 28.2011 23.0119 28.1664 23.1863 28.0959L24.9999 27.3628L26.8137 28.096C27.2739 28.282 27.7881 28.2188 28.1894 27.9273C28.5909 27.6356 28.8097 27.1659 28.775 26.671L28.6382 24.7194L29.896 23.2211C30.2151 22.8408 30.314 22.3323 30.1606 21.8603ZM27.5039 23.7878C27.2646 24.0733 27.147 24.435 27.1732 24.8066L27.3068 26.7122L25.5356 25.9963C25.3629 25.9265 25.1815 25.8916 25 25.8916C24.8186 25.8916 24.6372 25.9265 24.4645 25.9963L22.6934 26.7122L22.8269 24.8066C22.853 24.4351 22.7355 24.0733 22.4958 23.7876L21.2677 22.3245L23.1212 21.8626C23.4828 21.7726 23.7906 21.549 23.9879 21.233L24.9999 19.6128L26.012 21.233C26.2093 21.549 26.5171 21.7726 26.8787 21.8626L28.7323 22.3245L27.5039 23.7878Z" fill="white"/>
</g>
<defs>
<clipPath id="clip0_10_203">
<rect width="50" height="50" fill="white"/>
</clipPath>
</defs>
</svg>
