<svg width="50" height="50" viewBox="0 0 50 50" fill="none" xmlns="http://www.w3.org/2000/svg">
<g clip-path="url(#clip0_10_188)">
<path d="M45.9029 49.1845L45.0315 40.9963C44.8944 39.7218 44.3665 38.521 43.5201 37.5583C42.6738 36.5957 41.5504 35.9183 40.304 35.6191L30.6556 33.3148L30.3318 29.5046C32.5844 27.7679 34.2746 25.4053 35.1909 22.7126C35.3133 22.7214 35.4357 22.7307 35.5551 22.7307C36.1083 22.7481 36.6584 22.6407 37.1644 22.4165C37.6705 22.1924 38.1196 21.8572 38.4784 21.4358C38.9131 20.9118 39.2071 20.2858 39.3329 19.6168C39.4586 18.9477 39.4119 18.2577 39.1971 17.6117C39.0801 17.2672 38.8913 16.9516 38.6432 16.6855C38.3951 16.4194 38.0934 16.209 37.758 16.0682C37.3625 15.9167 36.9384 15.8547 36.5161 15.8865C37.2731 13.4704 38.3968 8.28623 35.5454 4.7586C35.2544 4.36454 31.8336 0 22.9435 0C17.1461 0 15.7519 3.15418 15.439 4.29767C11.2078 6.86517 12.5637 13.1441 13.4069 15.8874C12.9795 15.853 12.5498 15.9148 12.1495 16.0682C11.814 16.209 11.5123 16.4194 11.2642 16.6855C11.0162 16.9516 10.8274 17.2672 10.7103 17.6117C10.4955 18.2577 10.4488 18.9477 10.5746 19.6168C10.7003 20.2858 10.9944 20.9118 11.429 21.4358C11.7878 21.8572 12.2369 22.1925 12.743 22.4166C13.2491 22.6408 13.7991 22.7481 14.3523 22.7307C14.4718 22.7307 14.5942 22.7214 14.7165 22.7126C15.6329 25.4053 17.3231 27.7679 19.5756 29.5046L19.2518 33.3148L9.6034 35.6191C8.35702 35.9183 7.23367 36.5957 6.38733 37.5583C5.54098 38.521 5.01306 39.7218 4.87593 40.9963L4.00411 49.1845C3.99391 49.2807 4.00274 49.3779 4.03011 49.4706C4.05747 49.5633 4.10284 49.6497 4.1636 49.7249C4.22437 49.8001 4.29935 49.8625 4.38427 49.9087C4.46918 49.9549 4.56237 49.9839 4.6585 49.9941C4.68461 49.997 4.71087 49.9984 4.73714 49.9983C4.91868 49.998 5.0937 49.9306 5.2286 49.8092C5.36351 49.6877 5.44879 49.5207 5.46807 49.3401L6.33988 41.1519C6.44449 40.1798 6.84716 39.2639 7.49271 38.5297C8.13825 37.7955 8.99507 37.2788 9.94574 37.0506L16.5682 35.471L20.7318 43.4078C20.7904 43.5194 20.8768 43.6141 20.9825 43.6828C21.0882 43.7515 21.2098 43.7919 21.3357 43.8001H21.384C21.502 43.8 21.6182 43.7716 21.7228 43.7172C21.8275 43.6628 21.9175 43.5841 21.9854 43.4877L24.2173 40.3184V49.2628C24.2173 49.458 24.2949 49.6451 24.4329 49.7832C24.5709 49.9212 24.7581 49.9987 24.9533 49.9987C25.1485 49.9987 25.3357 49.9212 25.4737 49.7832C25.6117 49.6451 25.6893 49.458 25.6893 49.2628V40.3179L27.9212 43.4873C27.9891 43.5837 28.0791 43.6624 28.1838 43.7168C28.2884 43.7712 28.4046 43.7996 28.5226 43.7997H28.5709C28.6968 43.7915 28.8184 43.7511 28.9241 43.6824C29.0298 43.6137 29.1162 43.519 29.1749 43.4073L33.3384 35.4706L39.9609 37.0523C40.9115 37.2805 41.7684 37.7971 42.4139 38.5314C43.0594 39.2656 43.4621 40.1815 43.5667 41.1536L44.4385 49.3418C44.4578 49.5223 44.5431 49.6894 44.678 49.8108C44.8129 49.9323 44.9879 49.9997 45.1695 50C45.1957 50.0001 45.222 49.9987 45.2481 49.9958C45.3445 49.9857 45.4379 49.9567 45.523 49.9105C45.6081 49.8642 45.6832 49.8016 45.7441 49.7262C45.8049 49.6508 45.8503 49.5642 45.8775 49.4712C45.9048 49.3783 45.9134 49.2808 45.9029 49.1845ZM37.2121 17.4354C37.3582 17.5012 37.4884 17.5977 37.5938 17.7184C37.6992 17.8391 37.7773 17.9812 37.8228 18.1348C37.9445 18.5357 37.9653 18.9605 37.8833 19.3713C37.8014 19.7822 37.6192 20.1664 37.353 20.4899C37.1382 20.7384 36.871 20.9363 36.5706 21.0692C36.2702 21.2021 35.9441 21.2668 35.6157 21.2587C35.9086 20.007 36.0689 18.7279 36.0939 17.4426C36.4572 17.3266 36.8473 17.3241 37.2121 17.4354ZM12.5561 20.4895C12.2899 20.166 12.1078 19.7818 12.0258 19.3709C11.9439 18.96 11.9647 18.5353 12.0864 18.1344C12.1315 17.9817 12.2088 17.8403 12.3131 17.72C12.4174 17.5996 12.5463 17.503 12.6911 17.4367C13.0576 17.3231 13.4501 17.3252 13.8153 17.4426C13.8405 18.727 14.0008 20.0053 14.2935 21.2562C13.9652 21.2645 13.6393 21.2 13.3389 21.0675C13.0386 20.9349 12.7712 20.7375 12.5561 20.4895ZM16.4311 5.42602C16.5362 5.36876 16.626 5.28719 16.6931 5.18813C16.7602 5.08906 16.8026 4.97539 16.8168 4.85659C16.8336 4.71823 17.2891 1.47195 22.9435 1.47195C31.2427 1.47195 34.3334 5.59341 34.3616 5.63546C34.3708 5.6485 34.3805 5.66111 34.3906 5.67289C36.8412 8.6887 35.7364 13.4637 35.0635 15.5741L34.1841 14.6867C33.5062 14.0005 33.0711 13.1116 32.9451 12.1554L32.5957 9.45664C32.5824 9.35318 32.5472 9.25373 32.4926 9.16488C32.438 9.07603 32.365 8.99981 32.2787 8.94127C32.1924 8.88273 32.0946 8.84322 31.9918 8.82534C31.8891 8.80746 31.7837 8.81164 31.6826 8.83758C29.4742 9.33116 27.2165 9.57033 24.9537 9.55042C22.6909 9.57033 20.4332 9.33116 18.2248 8.83758C18.1237 8.81122 18.0182 8.80669 17.9152 8.82426C17.8122 8.84184 17.7141 8.88113 17.6275 8.93952C17.5408 8.99792 17.4676 9.07408 17.4127 9.16295C17.3577 9.25181 17.3224 9.35136 17.3088 9.45496L16.9594 12.1537C16.8334 13.11 16.3983 13.9989 15.7204 14.685L14.8515 15.5614C14.1034 13.142 12.7824 7.37068 16.4311 5.42602ZM15.2809 17.2189L16.7655 15.7221C17.6699 14.8061 18.2503 13.6196 18.4183 12.3433L18.6647 10.442C20.7377 10.8359 22.8437 11.0302 24.9537 11.0224C27.0632 11.03 29.1686 10.8355 31.241 10.4416L31.4875 12.3429C31.6554 13.6191 32.2358 14.8054 33.1403 15.7213L34.6265 17.2189C34.5088 24.8848 29.9037 28.3888 27.1406 29.7998C26.4633 30.1449 25.7139 30.3248 24.9537 30.3248C24.1935 30.3248 23.4442 30.1449 22.7668 29.7998C20.0055 28.3884 15.4004 24.8843 15.2809 17.2189ZM21.4761 41.6532L18.0457 35.1161L19.7573 34.7073L23.957 38.1315L21.4761 41.6532ZM24.9537 37.0447L20.7061 33.5819L20.9702 30.474C21.3651 30.7183 21.7449 30.9303 22.0969 31.1098C22.9815 31.5607 23.9604 31.7958 24.9533 31.7958C25.9462 31.7958 26.9251 31.5607 27.8097 31.1098C28.1617 30.9303 28.5415 30.7183 28.9364 30.474L29.2005 33.5819L24.9537 37.0447ZM28.4313 41.6532L25.95 38.1298L30.1497 34.7056L31.8614 35.1144L28.4313 41.6532Z" fill="white"/>
<path d="M22.0364 16.3865C22.1826 16.5129 22.3727 16.5768 22.5656 16.5642C22.7585 16.5517 22.9387 16.4637 23.0673 16.3194C23.1959 16.1751 23.2626 15.9859 23.2529 15.7928C23.2432 15.5998 23.1579 15.4183 23.0154 15.2876C22.4007 14.8001 21.6323 14.548 20.8483 14.5764C20.0644 14.5479 19.2961 14.8001 18.6816 15.2876C18.5399 15.4165 18.4546 15.5961 18.4443 15.7874C18.434 15.9788 18.4994 16.1665 18.6265 16.3099C18.7548 16.4546 18.9344 16.5436 19.1272 16.5581C19.32 16.5726 19.5109 16.5115 19.6594 16.3877C20.0163 16.1663 20.4279 16.049 20.8479 16.049C21.2679 16.049 21.6795 16.1663 22.0364 16.3877V16.3865Z" fill="white"/>
<path d="M19.833 18.3573C19.833 18.5582 19.8926 18.7546 20.0042 18.9216C20.1158 19.0887 20.2745 19.2188 20.4601 19.2957C20.6457 19.3726 20.8499 19.3926 21.0469 19.3534C21.244 19.3142 21.4249 19.2174 21.567 19.0753C21.709 18.9333 21.8057 18.7522 21.8448 18.5552C21.884 18.3582 21.8638 18.1539 21.7869 17.9684C21.7099 17.7828 21.5797 17.6242 21.4126 17.5126C21.2455 17.4011 21.0491 17.3416 20.8482 17.3417C20.7149 17.3417 20.5828 17.3679 20.4596 17.419C20.3364 17.47 20.2245 17.5449 20.1302 17.6392C20.0359 17.7335 19.9612 17.8455 19.9102 17.9687C19.8592 18.0919 19.833 18.224 19.833 18.3573Z" fill="white"/>
<path d="M27.8699 16.3879C28.2267 16.1664 28.6384 16.0491 29.0583 16.0491C29.4783 16.0491 29.89 16.1664 30.2468 16.3879C30.3931 16.5143 30.5832 16.5782 30.7761 16.5656C30.969 16.5531 31.1492 16.4651 31.2778 16.3208C31.4064 16.1764 31.473 15.9873 31.4633 15.7942C31.4536 15.6011 31.3683 15.4196 31.2259 15.2889C30.5977 14.8272 29.8385 14.5782 29.059 14.5782C28.2794 14.5782 27.5202 14.8272 26.8921 15.2889C26.7504 15.4179 26.6652 15.5976 26.655 15.7889C26.6447 15.9803 26.7103 16.1679 26.8374 16.3113C26.9658 16.4557 27.1454 16.5445 27.3381 16.5588C27.5308 16.5731 27.7216 16.5118 27.8699 16.3879Z" fill="white"/>
<path d="M28.0435 18.3573C28.0435 18.5582 28.103 18.7546 28.2146 18.9216C28.3262 19.0886 28.4848 19.2188 28.6704 19.2957C28.856 19.3725 29.0602 19.3926 29.2572 19.3534C29.4543 19.3143 29.6352 19.2175 29.7773 19.0755C29.9193 18.9334 30.016 18.7525 30.0552 18.5555C30.0944 18.3584 30.0743 18.1542 29.9974 17.9686C29.9206 17.7831 29.7904 17.6244 29.6234 17.5128C29.4563 17.4012 29.26 17.3417 29.0591 17.3417C28.9257 17.3416 28.7936 17.3679 28.6704 17.4189C28.5471 17.4699 28.4351 17.5447 28.3408 17.639C28.2465 17.7333 28.1717 17.8453 28.1207 17.9686C28.0696 18.0918 28.0434 18.2239 28.0435 18.3573Z" fill="white"/>
<path d="M27.1624 26.6944L29.4393 26.8727H29.497C29.6044 26.8727 29.7106 26.8492 29.808 26.8037C29.9054 26.7583 29.9917 26.692 30.0607 26.6096C30.1298 26.5272 30.1799 26.4307 30.2076 26.3268C30.2353 26.223 30.24 26.1143 30.2212 26.0085C30.2052 25.9168 29.8006 23.7497 28.1243 22.7202C27.6497 22.4433 27.1223 22.269 26.5763 22.2083C26.0302 22.1477 25.4774 22.2022 24.9537 22.3682C24.4298 22.2023 23.8771 22.148 23.331 22.2089C22.7849 22.2697 22.2576 22.4443 21.7831 22.7214C20.1059 23.7509 19.7022 25.9177 19.6862 26.0098C19.6664 26.1204 19.6722 26.2342 19.7032 26.3423C19.7342 26.4504 19.7896 26.55 19.8651 26.6333C19.9406 26.7166 20.0342 26.7816 20.1387 26.8231C20.2433 26.8646 20.3559 26.8816 20.468 26.8727L22.7449 26.6944C23.511 26.6355 24.2597 26.4362 24.9537 26.1065C25.6477 26.4362 26.3964 26.6355 27.1624 26.6944ZM24.597 24.6337C23.9916 24.9701 23.3207 25.1718 22.6301 25.225L21.4525 25.3167C21.6812 24.7694 22.0657 24.3014 22.5582 23.9709C22.8899 23.7902 23.2571 23.6845 23.6341 23.6611C24.0111 23.6377 24.3886 23.6972 24.74 23.8355C24.8788 23.8775 25.0269 23.8775 25.1656 23.8355C25.5171 23.6974 25.8946 23.6379 26.2716 23.6613C26.6485 23.6847 27.0158 23.7904 27.3475 23.9709C27.8399 24.3015 28.2243 24.7695 28.4531 25.3167L27.2756 25.225C26.5849 25.1718 25.9138 24.9701 25.3082 24.6337C25.1991 24.5733 25.0765 24.5416 24.9518 24.5416C24.8271 24.5416 24.7044 24.5733 24.5954 24.6337H24.597Z" fill="white"/>
</g>
<defs>
<clipPath id="clip0_10_188">
<rect width="50" height="50" fill="white"/>
</clipPath>
</defs>
</svg>
