<svg width="60" height="60" viewBox="0 0 60 60" fill="none" xmlns="http://www.w3.org/2000/svg">
<mask id="mask0_2_919" style="mask-type:luminance" maskUnits="userSpaceOnUse" x="0" y="0" width="60" height="60">
<path d="M0 3.8147e-06H60V60H0V3.8147e-06Z" fill="white"/>
</mask>
<g mask="url(#mask0_2_919)">
<path d="M56.1179 41.2227V55.6055C56.1179 57.547 54.5439 59.1211 52.6023 59.1211H7.39746C5.4559 59.1211 3.88184 57.547 3.88184 55.6055V50.7149" stroke="white" stroke-width="2" stroke-miterlimit="10" stroke-linecap="round" stroke-linejoin="round"/>
<path d="M43.0382 55.6055H7.40332C5.45847 55.6055 3.88184 54.0288 3.88184 52.084V8.41688C3.88184 6.47203 5.45847 4.89539 7.40332 4.89539H52.5963C54.5413 4.89539 56.1179 6.47203 56.1179 8.41688V42.5257C56.1179 43.4597 55.7469 44.3555 55.0864 45.0158L45.5283 54.574C44.8678 55.2345 43.9721 55.6055 43.0382 55.6055Z" stroke="white" stroke-width="2" stroke-miterlimit="10" stroke-linecap="round" stroke-linejoin="round"/>
<path d="M41.5952 55.6055C43.1887 55.6055 44.4806 54.3137 44.4806 52.7201V46.8533C44.4806 45.2598 45.7724 43.9679 47.3659 43.9679H53.2328C54.8263 43.9679 56.118 42.6762 56.118 41.0827" stroke="white" stroke-width="2" stroke-miterlimit="10" stroke-linecap="round" stroke-linejoin="round"/>
<path d="M14.2733 17.4555H3.88184" stroke="white" stroke-width="2" stroke-miterlimit="10" stroke-linecap="round" stroke-linejoin="round"/>
<path d="M56.118 17.4555H17.7891" stroke="white" stroke-width="2" stroke-miterlimit="10" stroke-linecap="round" stroke-linejoin="round"/>
<path d="M13.8338 10.1523C12.8431 10.1523 12.04 9.3492 12.04 8.35849V2.67267C12.04 1.68197 12.8431 0.878884 13.8338 0.878884H14.2373C15.228 0.878884 16.0311 1.68197 16.0311 2.67267V4.89537" stroke="white" stroke-width="2" stroke-miterlimit="10" stroke-linecap="round" stroke-linejoin="round"/>
<path d="M45.7625 10.1523C44.7718 10.1523 43.9688 9.3492 43.9688 8.35849V2.67267C43.9688 1.68197 44.7718 0.878884 45.7625 0.878884H46.166C47.1567 0.878884 47.9598 1.68197 47.9598 2.67267V4.89537" stroke="white" stroke-width="2" stroke-miterlimit="10" stroke-linecap="round" stroke-linejoin="round"/>
<path d="M14.1776 28.5883H9.99234C9.53004 28.5883 9.15527 28.2136 9.15527 27.7512V23.566C9.15527 23.1037 9.53004 22.7289 9.99234 22.7289H14.1776C14.6399 22.7289 15.0146 23.1037 15.0146 23.566V27.7512C15.0146 28.2136 14.6399 28.5883 14.1776 28.5883Z" stroke="white" stroke-width="2" stroke-miterlimit="10" stroke-linecap="round" stroke-linejoin="round"/>
<path d="M26.1209 28.5883H21.9357C21.4734 28.5883 21.0986 28.2136 21.0986 27.7512V23.566C21.0986 23.1037 21.4734 22.7289 21.9357 22.7289H26.1209C26.5832 22.7289 26.958 23.1037 26.958 23.566V27.7512C26.958 28.2136 26.5832 28.5883 26.1209 28.5883Z" stroke="white" stroke-width="2" stroke-miterlimit="10" stroke-linecap="round" stroke-linejoin="round"/>
<path d="M38.0641 28.5883H33.8788C33.4165 28.5883 33.0417 28.2136 33.0417 27.7512V23.566C33.0417 23.1037 33.4165 22.7289 33.8788 22.7289H38.0641C38.5264 22.7289 38.9011 23.1037 38.9011 23.566V27.7512C38.9011 28.2136 38.5264 28.5883 38.0641 28.5883Z" stroke="white" stroke-width="2" stroke-miterlimit="10" stroke-linecap="round" stroke-linejoin="round"/>
<path d="M50.0074 28.5883H45.8222C45.3599 28.5883 44.9851 28.2136 44.9851 27.7512V23.566C44.9851 23.1037 45.3599 22.7289 45.8222 22.7289H50.0074C50.4697 22.7289 50.8445 23.1037 50.8445 23.566V27.7512C50.8445 28.2136 50.4697 28.5883 50.0074 28.5883Z" stroke="white" stroke-width="2" stroke-miterlimit="10" stroke-linecap="round" stroke-linejoin="round"/>
<path d="M14.1776 39.4602H9.99234C9.53004 39.4602 9.15527 39.0854 9.15527 38.6231V34.4379C9.15527 33.9756 9.53004 33.6008 9.99234 33.6008H14.1776C14.6399 33.6008 15.0146 33.9756 15.0146 34.4379V38.6231C15.0146 39.0854 14.6399 39.4602 14.1776 39.4602Z" stroke="white" stroke-width="2" stroke-miterlimit="10" stroke-linecap="round" stroke-linejoin="round"/>
<path d="M26.1209 39.4602H21.9357C21.4734 39.4602 21.0986 39.0854 21.0986 38.6231V34.4379C21.0986 33.9756 21.4734 33.6008 21.9357 33.6008H26.1209C26.5832 33.6008 26.958 33.9756 26.958 34.4379V38.6231C26.958 39.0854 26.5832 39.4602 26.1209 39.4602Z" stroke="white" stroke-width="2" stroke-miterlimit="10" stroke-linecap="round" stroke-linejoin="round"/>
<path d="M38.0641 39.4602H33.8788C33.4165 39.4602 33.0417 39.0854 33.0417 38.6231V34.4379C33.0417 33.9756 33.4165 33.6008 33.8788 33.6008H38.0641C38.5264 33.6008 38.9011 33.9756 38.9011 34.4379V38.6231C38.9011 39.0854 38.5264 39.4602 38.0641 39.4602Z" stroke="white" stroke-width="2" stroke-miterlimit="10" stroke-linecap="round" stroke-linejoin="round"/>
<path d="M50.0074 39.7211H45.8222C45.3599 39.7211 44.9851 39.3464 44.9851 38.8841V34.6988C44.9851 34.2365 45.3599 33.8618 45.8222 33.8618H50.0074C50.4697 33.8618 50.8445 34.2365 50.8445 34.6988V38.8841C50.8445 39.3464 50.4697 39.7211 50.0074 39.7211Z" stroke="white" stroke-width="2" stroke-miterlimit="10" stroke-linecap="round" stroke-linejoin="round"/>
<path d="M14.1776 50.332H9.99234C9.53004 50.332 9.15527 49.9573 9.15527 49.495V45.3097C9.15527 44.8474 9.53004 44.4727 9.99234 44.4727H14.1776C14.6399 44.4727 15.0146 44.8474 15.0146 45.3097V49.495C15.0146 49.9573 14.6399 50.332 14.1776 50.332Z" stroke="white" stroke-width="2" stroke-miterlimit="10" stroke-linecap="round" stroke-linejoin="round"/>
<path d="M26.1209 50.332H21.9357C21.4734 50.332 21.0986 49.9573 21.0986 49.495V45.3097C21.0986 44.8474 21.4734 44.4727 21.9357 44.4727H26.1209C26.5832 44.4727 26.958 44.8474 26.958 45.3097V49.495C26.958 49.9573 26.5832 50.332 26.1209 50.332Z" stroke="white" stroke-width="2" stroke-miterlimit="10" stroke-linecap="round" stroke-linejoin="round"/>
<path d="M33.0417 46.5167V45.3098C33.0417 44.8474 33.4165 44.4727 33.8788 44.4727H38.0641C38.5264 44.4727 38.9011 44.8474 38.9011 45.3098V49.495C38.9011 49.9573 38.5264 50.3321 38.0641 50.3321H33.8788C33.4165 50.3321 33.0417 49.9573 33.0417 49.495" stroke="white" stroke-width="2" stroke-miterlimit="10" stroke-linecap="round" stroke-linejoin="round"/>
</g>
</svg>
