<svg width="61" height="60" viewBox="0 0 61 60" fill="none" xmlns="http://www.w3.org/2000/svg">
<path d="M53.9278 19.5113C54.2232 19.2159 54.6238 19.05 55.0415 19.05C55.4592 19.05 55.8598 19.2159 56.1552 19.5113C56.4506 19.8067 56.6165 20.2073 56.6165 20.625V50.625C56.6165 52.0373 56.0555 53.3917 55.0569 54.3903C54.0582 55.389 52.7038 55.95 51.2915 55.95H10.0415C8.62923 55.95 7.27479 55.389 6.27616 54.3903C5.27753 53.3917 4.7165 52.0373 4.7165 50.625V9.375C4.7165 7.96272 5.27753 6.60829 6.27616 5.60966C7.27479 4.61103 8.62923 4.05 10.0415 4.05H40.0415C40.4592 4.05 40.8598 4.21594 41.1552 4.51131C41.4506 4.80668 41.6165 5.20728 41.6165 5.625C41.6165 6.04272 41.4506 6.44332 41.1552 6.73869C40.8598 7.03406 40.4592 7.2 40.0415 7.2H10.0415C9.46466 7.2 8.91144 7.42915 8.50355 7.83704C8.09566 8.24493 7.8665 8.79815 7.8665 9.375V50.625C7.8665 51.2018 8.09565 51.7551 8.50355 52.163C8.91144 52.5709 9.46466 52.8 10.0415 52.8H51.2915C51.8683 52.8 52.4216 52.5709 52.8295 52.163C53.2374 51.7551 53.4665 51.2018 53.4665 50.625V20.625C53.4665 20.2073 53.6324 19.8067 53.9278 19.5113Z" fill="white" stroke="#004C8D" stroke-width="0.6"/>
<path d="M30.6665 39.075L30.6647 39.075C30.4575 39.0762 30.252 39.0365 30.0601 38.9581C29.8683 38.8798 29.6939 38.7644 29.5467 38.6185C29.5467 38.6184 29.5466 38.6183 29.5465 38.6183L14.5474 23.6191C14.4004 23.4722 14.2838 23.2977 14.2043 23.1057C14.1248 22.9137 14.0838 22.7079 14.0838 22.5C14.0838 22.0803 14.2506 21.6777 14.5474 21.3809C14.8442 21.0841 15.2467 20.9173 15.6665 20.9173C16.0862 20.9173 16.4887 21.084 16.7855 21.3807L16.7856 21.3809L30.2667 34.8807L30.509 35.1234L30.7173 34.851L53.7922 4.67174C54.0559 4.37429 54.4224 4.18743 54.8183 4.1489C55.2173 4.11007 55.6161 4.22486 55.9334 4.46988C56.2507 4.7149 56.4627 5.0717 56.526 5.46757C56.589 5.86076 56.5006 6.26307 56.279 6.59362L31.9094 38.4615L31.9094 38.4616C31.7744 38.6382 31.6036 38.7842 31.4081 38.8901C31.2158 38.9943 31.004 39.0572 30.7861 39.075L30.6665 39.075Z" fill="white" stroke="#004C8D" stroke-width="0.6"/>
</svg>
