<svg width="108" height="28" viewBox="0 0 108 28" fill="white" xmlns="http://www.w3.org/2000/svg">
<g id="Group 1484580185">
<path id="Vector" fill-rule="evenodd" clip-rule="evenodd" d="M65.3996 7.82996C63.6908 7.82996 62.3445 8.19243 60.9982 8.96915C60.9982 5.06828 60.9982 1.44358 61.1363 0.235352L52.834 1.71975V2.42743L53.6797 2.56552C54.8189 2.77264 55.1642 3.41128 55.3885 4.91294C55.5957 7.899 55.5266 23.5888 55.3885 26.2124C57.5979 26.7129 59.928 27.0581 62.2755 27.0581C68.7999 27.0581 72.7181 23.0019 72.7181 16.6155C72.7871 11.5237 69.5766 7.82996 65.3996 7.82996ZM62.5516 25.6428C62.0511 25.6428 61.4124 25.6428 61.0672 25.5047C60.9291 23.7959 60.8601 16.5638 60.9291 10.1601C61.6368 9.953 62.1374 9.79766 62.776 9.79766C65.4687 9.79766 66.9703 12.9908 66.9703 16.8917C66.9531 21.88 65.1062 25.6428 62.5516 25.6428Z" fill="whitef"/>
<path id="Vector_2" fill-rule="evenodd" clip-rule="evenodd" d="M21.8689 0.718506H0.207031V1.8577L1.41526 1.99578C3.05501 2.20291 3.62461 3.20401 3.90077 5.55144C4.26324 9.95286 4.1079 17.979 3.90077 21.8108C3.69365 24.1582 3.05501 25.2111 1.41526 25.3665L0.207031 25.5736V26.5747H14.119V25.5736L12.6346 25.3665C10.9948 25.2284 10.4252 24.1582 10.1491 21.8108C10.011 20.1711 9.94194 17.6165 9.94194 14.4233L12.928 14.5614C14.7749 14.5614 15.6206 16.0458 15.9831 18.1171H17.1223V9.31422H15.9831C15.6206 11.3682 14.7749 12.8699 12.928 12.8699L9.94194 13.008C9.94194 8.81367 10.08 4.9128 10.1491 2.56538H14.4814C17.8127 2.56538 19.5215 4.61937 20.7297 8.31312L21.938 7.95064L21.8689 0.718506Z" fill="whitef"/>
<path id="Vector_3" fill-rule="evenodd" clip-rule="evenodd" d="M28.8247 7.60547C35.0039 7.60547 38.059 11.7998 38.059 17.3404C38.059 22.5876 34.6587 27.0753 28.4795 27.0753C22.3002 27.0753 19.2451 22.881 19.2451 17.3404C19.2451 12.0069 22.7145 7.60547 28.8247 7.60547ZM28.4622 8.8137C25.7696 8.8137 25.0619 12.5074 25.0619 17.2713C25.0619 21.9662 26.2701 25.729 28.7556 25.729C31.6036 25.729 32.3113 22.0352 32.3113 17.2713C32.3113 12.6455 31.1031 8.8137 28.4622 8.8137Z" fill="whitef"/>
<path id="Vector_4" fill-rule="evenodd" clip-rule="evenodd" d="M74.3408 17.4096C74.3408 12.3696 77.534 7.53662 83.7823 7.53662C88.9604 7.53662 91.3769 11.3684 91.3769 16.4085H79.9505C79.8124 20.948 82.0045 24.2965 86.4749 24.2965C88.4599 24.2965 89.461 23.796 90.6692 22.9502L91.1698 23.5889C89.9616 25.2976 87.2689 26.9892 83.7823 26.9892C78.3107 27.0755 74.3408 23.0883 74.3408 17.4096ZM80.0195 15.1312L85.7673 14.9931C85.7673 12.5076 85.4048 8.8139 83.2817 8.8139C81.2277 8.8139 80.1576 12.3005 80.0195 15.1312Z" fill="whitef"/>
<path id="Vector_5" fill-rule="evenodd" clip-rule="evenodd" d="M106.083 8.60657C104.599 7.96794 102.683 7.60547 100.404 7.60547C95.8647 7.60547 93.0168 10.2981 93.0168 13.4913C93.0168 16.6845 95.0708 18.0308 98.0568 19.0319C101.112 20.1711 101.958 21.0169 101.958 22.4322C101.958 23.9166 100.819 25.2802 98.9026 25.2802C96.5552 25.2802 94.8464 23.9339 93.5001 20.2401L92.6543 20.4473L92.7924 25.8498C94.2768 26.4884 96.9867 26.989 99.3168 26.989C104.15 26.989 107.205 24.5035 107.205 20.7407C107.205 18.1861 105.859 16.6845 102.665 15.4935C99.2651 14.1472 97.9705 13.2842 97.9705 11.6617C97.9705 10.0219 99.1097 8.96905 100.525 8.96905C102.734 8.96905 104.219 10.3154 105.358 13.6639L106.204 13.4568L106.083 8.60657Z" fill="whitef"/>
<path id="Vector_6" fill-rule="evenodd" clip-rule="evenodd" d="M54.0427 8.10626C51.9887 6.89802 48.295 7.46762 46.31 11.9381L46.4481 7.60571L38.2148 9.24545V9.95313L39.0606 10.0912C40.1998 10.2293 40.7003 10.7989 40.7694 12.4386C40.9765 15.4247 40.9075 20.5338 40.7694 23.1574C40.6313 24.6418 40.1308 25.3667 39.0606 25.5048L38.2148 25.6429V26.644H49.6413V25.6429L48.1569 25.5048C46.9486 25.3667 46.5171 24.6591 46.4481 23.1574C46.241 20.81 46.241 16.1324 46.31 13.2154C46.9486 12.3696 49.6413 11.5756 52.0577 13.2154L54.0427 8.10626Z" fill="whitef"/>
</g>
</svg>
