<svg width="40" height="36" viewBox="0 0 40 36" fill="none" xmlns="http://www.w3.org/2000/svg">
<g id="NBC" clip-path="url(#clip0_1027_54181)">
<g id="Group">
<path id="Vector" fill-rule="evenodd" clip-rule="evenodd" d="M4.58887 20.1161C2.37706 20.1161 0.583984 18.5169 0.583984 16.5445C0.583984 14.572 2.37706 12.9727 4.58887 12.9727C5.39664 12.9727 6.14869 13.186 6.7779 13.553L17.6883 20.1161H4.58887ZM5.69579 12.0788C3.84292 11.0049 3.31621 8.79406 4.51952 7.14044C5.72284 5.487 8.20045 5.0169 10.0531 6.09075C10.705 6.46716 11.2194 7.00562 11.5328 7.63978L17.1085 18.9878L5.69579 12.0788ZM34.6169 20.1195C36.834 20.1195 38.6313 18.5189 38.6313 16.5443C38.6313 14.5697 36.834 12.9691 34.6169 12.9691C33.8075 12.9691 33.0538 13.1826 32.4232 13.5499L21.4876 20.1197L34.6169 20.1195ZM33.5102 12.0786C35.3671 11.0038 35.895 8.79061 34.6891 7.13554C33.4831 5.48047 31.0002 5.01 29.1433 6.08494C28.49 6.46148 27.9744 7.00053 27.6601 7.6356L22.0718 18.9943L33.5102 12.0786ZM21.1943 5.35863C20.9084 5.55637 20.1246 5.66386 20.2946 6.90984L21.9874 17.4807L27.6333 5.95783C28.5358 4.15332 27.6241 2.03923 25.5976 1.23593C23.5706 0.432453 21.1957 1.24392 20.2934 3.04843C20.0008 3.63116 19.8895 4.27353 19.9713 4.90796L21.0353 4.90632C21.6383 4.93301 21.9557 5.0761 21.1943 5.35863ZM11.5696 5.96074C10.6691 4.15786 11.5788 2.04558 13.6012 1.24301C15.6239 0.440443 17.9937 1.25118 18.8942 3.05406C19.2119 3.68716 19.315 4.38947 19.1907 5.07428L17.2037 17.4734L11.5696 5.96074ZM36.084 33.9097C35.4354 34.1454 34.4713 34.3842 33.5777 34.3842C29.4933 34.3842 26.1819 31.5845 26.1819 28.1311C26.1819 24.6775 29.4933 21.8779 33.5777 21.8779C34.4566 21.8779 35.4206 22.0691 36.084 22.3408V24.7314C35.3399 24.2943 34.4684 24.0618 33.5777 24.063C31.0563 24.063 29.0119 25.8842 29.0119 28.1309C29.0119 30.3774 31.0563 32.1986 33.5777 32.1986C34.4987 32.1986 35.3667 31.9556 36.084 31.5374V33.9097ZM11.5104 22.2865H14.2256V34.2344L5.86702 27.4187V33.9729H3.15189V22.0281L11.5104 28.8438V22.2865ZM23.324 27.7278C24.1529 27.1794 24.8746 26.6561 24.8679 25.276C24.8588 23.4595 23.2127 22.2752 21.1711 22.2752H15.7834V33.9844H21.8266C23.967 33.9844 25.5956 32.5347 25.5956 30.6296C25.5956 28.7248 23.832 27.8934 23.324 27.7278ZM18.5131 24.0454L20.5313 24.0456C21.4762 24.0456 22.2421 24.7272 22.2421 25.5681C22.2421 26.4088 21.4762 27.0906 20.5313 27.0906H18.5131V24.0454ZM20.9702 32.2267H18.5135V28.8399L20.9704 28.83C22.0238 28.83 22.8778 29.5904 22.8778 30.5284C22.8778 31.4665 22.0236 32.2267 20.9702 32.2267Z" fill="white"/>
</g>
</g>
<defs>
<clipPath id="clip0_1027_54181">
<rect width="39.2" height="35" fill="white" transform="translate(0.0078125 0.155273)"/>
</clipPath>
</defs>
</svg>
