<svg width="60" height="60" viewBox="0 0 60 60" fill="none" xmlns="http://www.w3.org/2000/svg">
<g clip-path="url(#clip0_2_907)">
<path d="M28.7502 33.0985L27.0504 31.3867L27.3673 31.0668C28.0479 30.3867 28.4302 29.4641 28.4302 28.502C28.4302 27.54 28.0478 26.6173 27.3673 25.9373L25.4564 23.9995C24.782 23.3161 23.8608 22.9334 22.9007 22.9375C21.943 22.935 21.0245 23.3177 20.3519 23.9995L20.052 24.3065L18.5521 22.7806C18.1533 22.3736 17.6072 22.1447 17.0373 22.1456C16.4673 22.1448 15.9211 22.3733 15.5215 22.7796L13.6357 24.6794C12.808 25.5216 12.808 26.8719 13.6357 27.7141L15.1575 29.25L14.8435 29.5669C13.4446 30.9895 13.4446 33.2709 14.8435 34.6934L16.7573 36.6252C17.4234 37.3164 18.3412 37.7082 19.3011 37.7112C20.2617 37.7136 21.1822 37.3261 21.8518 36.6373L22.1518 36.3373L23.8516 38.0501L16.6023 45.3695C15.7618 46.2013 15.2878 47.3339 15.2853 48.5165C15.2829 49.699 15.7523 50.8337 16.5892 51.6689C17.4108 52.519 18.542 52.9994 19.7241 53.0006C20.9063 53.0017 22.0384 52.5233 22.8616 51.6749L30.1049 44.3626L37.6442 51.9739C38.3292 52.6643 39.2729 53.0348 40.2445 52.9951C41.2162 52.9553 42.1265 52.5089 42.7527 51.7649C43.9123 50.3176 43.7824 48.2262 42.4527 46.9334L35.0084 39.4181L37.6932 36.7183C40.2477 37.2017 42.8752 36.3827 44.7025 34.5335C46.4607 32.7587 47.2805 30.2596 46.9154 27.7881C46.8094 26.996 46.2584 26.3347 45.4985 26.0873C44.7134 25.8191 43.8441 26.0235 43.2607 26.6133L40.8609 29.036C40.355 29.5238 39.5539 29.5238 39.048 29.036C38.5416 28.5203 38.5416 27.694 39.048 27.1782L41.4478 24.7554C42.0348 24.1618 42.2329 23.2861 41.9587 22.4977C41.717 21.7511 41.0731 21.206 40.2969 21.0908C37.8302 20.7175 35.334 21.5479 33.5825 23.3246C31.7434 25.1843 30.935 27.8287 31.4197 30.3989L28.7502 33.0985ZM15.0514 26.3122C15.0221 26.2831 15.0056 26.2435 15.0056 26.2022C15.0056 26.161 15.0221 26.1214 15.0514 26.0923L16.9362 24.1924C16.9605 24.1657 16.995 24.1504 17.0312 24.1505C17.0667 24.1501 17.1008 24.1646 17.1251 24.1905L18.645 25.7324L16.5602 27.8382L15.0514 26.3122ZM19.31 35.7114C18.8832 35.7114 18.4747 35.5373 18.1792 35.2294L16.2603 33.2926C15.6292 32.6513 15.6292 31.6222 16.2603 30.9809L17.2153 30.017C17.2359 30.005 17.2559 29.992 17.2753 29.978C17.2942 29.959 17.3012 29.9329 17.3183 29.913L20.732 26.4664C20.74 26.4594 20.75 26.4574 20.7579 26.4494C20.7659 26.4414 20.7689 26.4294 20.7769 26.4204L21.7769 25.4105C22.075 25.1072 22.4825 24.9367 22.9077 24.9375C23.333 24.9365 23.7406 25.107 24.0385 25.4105L25.9614 27.3512C26.2667 27.6561 26.4382 28.0698 26.4382 28.5011C26.4382 28.9325 26.2667 29.3462 25.9614 29.651L20.4309 35.2345C20.135 35.5407 19.7269 35.7129 19.3011 35.7115L19.31 35.7114ZM21.4408 50.2689C20.8175 50.8795 19.9157 51.111 19.0753 50.8764C18.2349 50.6418 17.5835 49.9766 17.3665 49.1316C17.1494 48.2865 17.3998 47.3898 18.0231 46.7793L25.2654 39.467L28.7001 42.9377L21.4408 50.2689ZM41.234 50.4689C40.965 50.7766 40.5822 50.9613 40.1739 50.9802C39.7657 50.999 39.3674 50.8504 39.0712 50.5689L23.5726 34.9184L25.6555 32.8186L41.032 48.3412C41.6239 48.8989 41.7084 49.81 41.229 50.4669L41.234 50.4689ZM33.4816 30.4488C32.939 28.409 33.5164 26.2343 34.9995 24.7324C36.2977 23.4099 38.1515 22.7902 39.9841 23.0665C39.9901 23.0665 40.0561 23.1375 40.0611 23.1385C40.0866 23.2103 40.0721 23.2901 40.0231 23.3485L37.6233 25.7703C36.4093 27.068 36.441 29.0942 37.6952 30.3533C38.9494 31.6123 40.9754 31.6519 42.2779 30.4429L44.6777 28.0201C44.7274 27.9754 44.7977 27.9616 44.8607 27.9841L44.9326 28.0681C45.2077 29.9186 44.5945 31.7905 43.2778 33.1196C41.8104 34.6082 39.6555 35.1918 37.6373 34.6474C37.2893 34.5504 36.9159 34.65 36.6624 34.9074L33.5997 37.9932L30.16 34.5205L33.2307 31.4108C33.4791 31.1574 33.5746 30.7913 33.4816 30.4488Z" fill="white"/>
<path d="M47.9984 2.00147H41.9989C40.8944 2.00147 39.9991 2.89679 39.9991 4.00128V5.78412L31.5999 0.466693C30.6197 -0.150356 29.3725 -0.150356 28.3923 0.466693L0.949785 17.851C0.0304786 18.424 -0.27158 19.6212 0.265808 20.5617L1.89564 23.4235C2.17115 23.9071 2.63381 24.2557 3.17456 24.3874C3.32934 24.4252 3.48817 24.4444 3.64749 24.4444C4.0377 24.4448 4.41971 24.3322 4.74734 24.1204L6.00227 23.3114V55.9964C6.00227 58.2054 7.793 59.996 10.0019 59.996H49.9982C52.2071 59.996 53.9978 58.2053 53.9978 55.9964V23.3115L55.2497 24.1115C55.7155 24.4155 56.2862 24.5136 56.8269 24.3823C57.3674 24.2511 57.8298 23.9023 58.1044 23.4185L59.7342 20.5578C60.2713 19.6173 59.9698 18.4208 59.0514 17.847L49.9982 12.1176V4.00128C49.9982 2.89689 49.1028 2.00147 47.9984 2.00147ZM41.9989 4.00128H47.9984V10.8506L41.9989 7.05099V4.00128ZM51.998 55.9964C51.998 57.1009 51.1027 57.9962 49.9982 57.9962H10.0019C8.8974 57.9962 8.00208 57.1009 8.00208 55.9964V22.0246L30 7.87691L51.998 22.0246V55.9964ZM57.9974 19.5728L56.3376 22.4375L31.081 6.19516C30.4223 5.77168 29.5769 5.77168 28.9182 6.19516L3.63347 22.4346L2.01963 19.5408L29.466 2.15655C29.7922 1.95053 30.2078 1.95053 30.5339 2.15655L57.9973 19.5719V19.5728H57.9974Z" fill="white"/>
</g>
<defs>
<clipPath id="clip0_2_907">
<rect width="60" height="60" fill="white"/>
</clipPath>
</defs>
</svg>
