<svg width="30" height="30" viewBox="0 0 30 30" fill="none" xmlns="http://www.w3.org/2000/svg">
<g clip-path="url(#clip0_290_3961)">
<path d="M29.681 12.1914L15.4605 1.77946C15.1863 1.57872 14.8138 1.57872 14.5397 1.77946L0.319077 12.1914C-0.0282669 12.4458 -0.103736 12.9335 0.15062 13.2808C0.404975 13.6282 0.892768 13.7035 1.24005 13.4493L15 3.37444L28.76 13.4492C28.8988 13.5509 29.06 13.5998 29.2199 13.5998C29.4599 13.5998 29.6967 13.4894 29.8494 13.2808C30.1038 12.9335 30.0283 12.4458 29.681 12.1914Z" fill="#004C8D"/>
<path d="M25.9137 13.626C25.4833 13.626 25.1342 13.975 25.1342 14.4054V26.8126H18.8986V20.04C18.8986 17.8908 17.15 16.1423 15.0009 16.1423C12.8518 16.1423 11.1033 17.8909 11.1033 20.04V26.8127H4.86754V14.4055C4.86754 13.975 4.5185 13.626 4.08807 13.626C3.65764 13.626 3.30859 13.975 3.30859 14.4055V27.5922C3.30859 28.0227 3.65764 28.3717 4.08807 28.3717H11.8827C12.2927 28.3717 12.6281 28.055 12.6592 27.6529C12.661 27.6347 12.6622 27.6148 12.6622 27.5922V20.0401C12.6622 18.7505 13.7113 17.7013 15.0009 17.7013C16.2905 17.7013 17.3396 18.7505 17.3396 20.0401V27.5922C17.3396 27.6146 17.3408 27.6342 17.3427 27.6522C17.3734 28.0546 17.7089 28.3717 18.1191 28.3717H25.9138C26.3443 28.3717 26.6932 28.0227 26.6932 27.5922V14.4055C26.6932 13.975 26.3442 13.626 25.9137 13.626Z" fill="#004C8D"/>
</g>
<defs>
<clipPath id="clip0_290_3961">
<rect width="30" height="30" fill="white"/>
</clipPath>
</defs>
</svg>
