<svg width="50" height="50" viewBox="0 0 50 50" fill="none" xmlns="http://www.w3.org/2000/svg">
<mask id="path-1-outside-1_290_3831" maskUnits="userSpaceOnUse" x="18.2734" y="38.6914" width="13" height="5" fill="black">
<rect fill="white" x="18.2734" y="38.6914" width="13" height="5"/>
<path d="M24.9941 39.6914C22.8967 39.6865 20.8829 40.5136 19.3944 41.9914C19.3561 42.0293 19.3257 42.0744 19.3049 42.1241C19.2841 42.1738 19.2734 42.2271 19.2734 42.281C19.2734 42.3348 19.2841 42.3882 19.3049 42.4379C19.3257 42.4876 19.3561 42.5327 19.3944 42.5705C19.4321 42.6089 19.4772 42.6394 19.527 42.66C19.5767 42.6807 19.6301 42.6911 19.684 42.6907C19.7922 42.6913 19.8963 42.6491 19.9735 42.5732C21.3115 41.2517 23.1163 40.5107 24.9969 40.5107C26.8774 40.5107 28.6823 41.2517 30.0202 42.5732C30.0982 42.6453 30.2012 42.6842 30.3073 42.6819C30.4135 42.6795 30.5146 42.6361 30.5893 42.5606C30.6641 42.4852 30.7066 42.3837 30.7079 42.2775C30.7093 42.1713 30.6694 42.0687 30.5966 41.9914C29.1075 40.513 27.0925 39.6858 24.9941 39.6914Z"/>
</mask>
<path d="M24.9941 39.6914C22.8967 39.6865 20.8829 40.5136 19.3944 41.9914C19.3561 42.0293 19.3257 42.0744 19.3049 42.1241C19.2841 42.1738 19.2734 42.2271 19.2734 42.281C19.2734 42.3348 19.2841 42.3882 19.3049 42.4379C19.3257 42.4876 19.3561 42.5327 19.3944 42.5705C19.4321 42.6089 19.4772 42.6394 19.527 42.66C19.5767 42.6807 19.6301 42.6911 19.684 42.6907C19.7922 42.6913 19.8963 42.6491 19.9735 42.5732C21.3115 41.2517 23.1163 40.5107 24.9969 40.5107C26.8774 40.5107 28.6823 41.2517 30.0202 42.5732C30.0982 42.6453 30.2012 42.6842 30.3073 42.6819C30.4135 42.6795 30.5146 42.6361 30.5893 42.5606C30.6641 42.4852 30.7066 42.3837 30.7079 42.2775C30.7093 42.1713 30.6694 42.0687 30.5966 41.9914C29.1075 40.513 27.0925 39.6858 24.9941 39.6914Z" fill="white"/>
<path d="M24.9941 39.6914L24.993 40.1914L24.9955 40.1914L24.9941 39.6914ZM19.3944 41.9914L19.7458 42.3471L19.7467 42.3462L19.3944 41.9914ZM19.2734 42.281H18.7734H19.2734ZM19.3944 42.5705L19.7512 42.2201L19.7458 42.2148L19.3944 42.5705ZM19.684 42.6907L19.6869 42.1907L19.6802 42.1907L19.684 42.6907ZM19.9735 42.5732L20.3239 42.9299L20.3249 42.929L19.9735 42.5732ZM24.9969 40.5107V41.0107V40.5107ZM30.0202 42.5732L29.6689 42.929L29.6748 42.9349L29.681 42.9406L30.0202 42.5732ZM30.5966 41.9914L30.9607 41.6487L30.9549 41.6426L30.9489 41.6366L30.5966 41.9914ZM24.9953 39.1914C22.7655 39.1862 20.6246 40.0655 19.0421 41.6366L19.7467 42.3462C21.1412 40.9617 23.0279 40.1868 24.993 40.1914L24.9953 39.1914ZM19.043 41.6357C18.9576 41.7201 18.8898 41.8205 18.8435 41.9313L19.7662 42.3168C19.7615 42.3282 19.7545 42.3385 19.7458 42.3471L19.043 41.6357ZM18.8435 41.9313C18.7973 42.0421 18.7734 42.1609 18.7734 42.281L19.7734 42.281C19.7734 42.2933 19.771 42.3055 19.7662 42.3168L18.8435 41.9313ZM18.7734 42.281C18.7734 42.401 18.7973 42.5199 18.8435 42.6306L19.7662 42.2451C19.771 42.2565 19.7734 42.2687 19.7734 42.281H18.7734ZM18.8435 42.6306C18.8898 42.7414 18.9576 42.8419 19.043 42.9262L19.7458 42.2148C19.7545 42.2235 19.7615 42.2338 19.7662 42.2451L18.8435 42.6306ZM19.0377 42.9208C19.1224 43.0071 19.2236 43.0755 19.3353 43.1218L19.7187 42.1982C19.7309 42.2033 19.7419 42.2108 19.7512 42.2202L19.0377 42.9208ZM19.3353 43.1218C19.447 43.1682 19.5668 43.1916 19.6877 43.1907L19.6802 42.1907C19.6934 42.1906 19.7065 42.1932 19.7187 42.1982L19.3353 43.1218ZM19.681 43.1907C19.9214 43.1921 20.1525 43.0983 20.3239 42.9299L19.6231 42.2166C19.6401 42.1999 19.663 42.1906 19.6869 42.1907L19.681 43.1907ZM20.3249 42.929C21.5693 41.6999 23.2478 41.0107 24.9969 41.0107V40.0107C22.9848 40.0107 21.0537 40.8036 19.6221 42.2175L20.3249 42.929ZM24.9969 41.0107C26.7459 41.0107 28.4245 41.6999 29.6689 42.929L30.3716 42.2175C28.94 40.8036 27.009 40.0107 24.9969 40.0107V41.0107ZM29.681 42.9406C29.8542 43.1005 30.0827 43.187 30.3184 43.1818L30.2962 42.182C30.3196 42.1815 30.3423 42.1901 30.3595 42.2059L29.681 42.9406ZM30.3184 43.1818C30.5542 43.1765 30.7786 43.08 30.9446 42.9125L30.2341 42.2087C30.2506 42.1921 30.2729 42.1825 30.2962 42.182L30.3184 43.1818ZM30.9446 42.9125C31.1105 42.745 31.2049 42.5196 31.2079 42.2839L30.208 42.2711C30.2083 42.2477 30.2177 42.2254 30.2341 42.2087L30.9446 42.9125ZM31.2079 42.2839C31.2109 42.0481 31.1223 41.8204 30.9607 41.6487L30.2325 42.3341C30.2165 42.3171 30.2077 42.2945 30.208 42.2711L31.2079 42.2839ZM30.9489 41.6366C29.3657 40.0648 27.2237 39.1854 24.9928 39.1914L24.9955 40.1914C26.9614 40.1861 28.8492 40.9611 30.2443 42.3462L30.9489 41.6366Z" fill="white" mask="url(#path-1-outside-1_290_3831)"/>
<mask id="path-3-outside-2_290_3831" maskUnits="userSpaceOnUse" x="-1" y="-1" width="52" height="52" fill="black">
<rect fill="white" x="-1" y="-1" width="52" height="52"/>
<path d="M49.982 5.73005C49.9719 5.66731 49.9471 5.60786 49.9096 5.55657C49.8721 5.50529 49.8229 5.46364 49.7662 5.43504L39.3671 0.0565695C39.3168 0.0308211 39.2618 0.0156026 39.2054 0.0118452C39.1491 0.00808774 39.0925 0.0158708 39.0393 0.0347174C38.9858 0.053468 38.937 0.0833845 38.896 0.122477C38.8551 0.161569 38.8229 0.20894 38.8016 0.261438L33.5406 12.8267C33.5036 12.9145 33.4984 13.0124 33.5258 13.1037C33.5533 13.1949 33.6116 13.2737 33.6909 13.3266L38.0614 16.2111L35.8324 20.1227C33.8056 18.4269 31.4098 17.2295 28.8369 16.6263L32.9342 9.20735C32.9671 9.14805 32.9848 9.08151 32.9856 9.0137C32.9865 8.94589 32.9705 8.87893 32.9391 8.81882C32.9077 8.75872 32.8618 8.70735 32.8057 8.66932C32.7495 8.6313 32.6848 8.6078 32.6174 8.60094L27.482 8.06828L29.5115 0.537328C29.5276 0.476024 29.5292 0.411854 29.5165 0.349797C29.5037 0.28774 29.4767 0.229465 29.4378 0.179491C29.3999 0.130032 29.3511 0.0899988 29.2952 0.0625162C29.2393 0.0350336 29.1778 0.0208455 29.1155 0.0210597L17.4025 0.146712C17.3461 0.147219 17.2905 0.159427 17.2391 0.182565C17.1877 0.205702 17.1416 0.239263 17.1039 0.281121C17.0661 0.32298 17.0375 0.372223 17.0198 0.42573C17.002 0.479237 16.9956 0.535843 17.0009 0.591959L18.2219 14.1488C18.2316 14.2524 18.28 14.3485 18.3575 14.4179C18.435 14.4873 18.5359 14.5248 18.6399 14.523L24.5729 14.3509L24.521 16.1729C20.7174 16.2784 17.0604 17.6633 14.141 20.1036L11.9175 16.2002L16.288 13.3156C16.3672 13.2628 16.4256 13.184 16.453 13.0927C16.4804 13.0015 16.4752 12.9036 16.4382 12.8158L11.1772 0.250512C11.156 0.198015 11.1238 0.150644 11.0828 0.111551C11.0418 0.072459 10.993 0.0425415 10.9396 0.0237908C10.8863 0.00494428 10.8298 -0.00283778 10.7734 0.000919677C10.717 0.00467713 10.662 0.0198956 10.6118 0.045644L0.220849 5.43504C0.164618 5.46426 0.115928 5.50611 0.0786067 5.55732C0.0412857 5.60853 0.0163506 5.6677 0.00576155 5.73017C-0.00482748 5.79265 -0.00078205 5.85673 0.0175801 5.91738C0.0359422 5.97802 0.0681204 6.03359 0.111585 6.0797L6.66737 13.0534L2.37606 15.9161C2.31914 15.9534 2.27239 16.0042 2.24004 16.0641C2.20769 16.1239 2.19074 16.1909 2.19074 16.2589C2.19074 16.327 2.20769 16.3939 2.24004 16.4538C2.27239 16.5136 2.31914 16.5645 2.37606 16.6017L11.6634 22.6822C9.71369 25.1797 8.50478 28.1747 8.17447 31.3258C7.84417 34.477 8.40575 37.6575 9.79523 40.505C11.1847 43.3525 13.3462 45.7524 16.0333 47.4311C18.7204 49.1099 21.8251 50 24.9935 50C28.1619 50 31.2666 49.1099 33.9537 47.4311C36.6409 45.7524 38.8023 43.3525 40.1918 40.505C41.5813 37.6575 42.1429 34.477 41.8126 31.3258C41.4823 28.1747 40.2734 25.1797 38.3236 22.6822L47.611 16.6017C47.6679 16.5645 47.7146 16.5136 47.747 16.4538C47.7794 16.3939 47.7963 16.327 47.7963 16.2589C47.7963 16.1909 47.7794 16.1239 47.747 16.0641C47.7146 16.0042 47.6679 15.9534 47.611 15.9161L43.3142 13.0534L49.87 6.0797C49.9147 6.03427 49.9482 5.97895 49.9676 5.91822C49.9871 5.85749 49.992 5.79303 49.982 5.73005ZM19.0032 13.6789L17.8559 0.947064L28.5773 0.845996L26.5642 8.32232C26.5483 8.37971 26.5453 8.43988 26.5552 8.49858C26.5652 8.55728 26.5879 8.61308 26.6218 8.66205C26.6556 8.71102 26.6998 8.75196 26.7512 8.78199C26.8026 8.81202 26.86 8.83041 26.9193 8.83586L31.9208 9.34393L25.1929 21.535L25.4033 13.9521C25.4045 13.8965 25.3945 13.8412 25.3739 13.7896C25.3532 13.7379 25.3223 13.691 25.2831 13.6516C25.2454 13.6131 25.2004 13.5825 25.1506 13.5619C25.1008 13.5412 25.0474 13.5309 24.9935 13.5314L19.0032 13.6789ZM3.34577 16.263L7.53055 13.4659C7.58034 13.4335 7.62234 13.3905 7.65351 13.34C7.68469 13.2894 7.70426 13.2326 7.71083 13.1736C7.71741 13.1143 7.71104 13.0543 7.69218 12.9977C7.67331 12.9411 7.6424 12.8893 7.60157 12.8458L1.07856 5.91307L10.6036 0.996233L15.5614 12.8185L11.1472 15.7167C11.0603 15.7743 10.9985 15.8627 10.9742 15.9641C10.9499 16.0654 10.9648 16.1722 11.016 16.263L15.5614 24.242L3.34577 16.263ZM41.0852 33.095C41.0843 35.6606 40.47 38.1888 39.2935 40.4687C38.1169 42.7486 36.4123 44.7142 34.3218 46.2014C32.2313 47.6887 29.8154 48.6545 27.2758 49.0184C24.7361 49.3823 22.1463 49.1336 19.7223 48.2932C17.2982 47.4528 15.1103 46.0449 13.3409 44.1871C11.5715 42.3292 10.272 40.0753 9.55077 37.6131C8.82952 35.151 8.70742 32.5521 9.19467 30.0332C9.68191 27.5144 10.7644 25.1485 12.3518 23.1329L16.5338 25.8645C16.6 25.9092 16.678 25.933 16.7578 25.9328C16.8297 25.9325 16.9002 25.9134 16.9624 25.8775C17.0247 25.8415 17.0764 25.79 17.1126 25.7279C17.1487 25.6658 17.168 25.5953 17.1686 25.5234C17.1691 25.4516 17.1509 25.3808 17.1157 25.3182L14.5589 20.8357C17.3425 18.4702 20.8478 17.1216 24.4991 17.0115L24.3297 23.2067C24.3266 23.2985 24.3545 23.3886 24.4091 23.4625C24.4636 23.5364 24.5416 23.5897 24.6302 23.6137C24.6657 23.6238 24.7026 23.6284 24.7395 23.6273C24.8124 23.627 24.8839 23.6074 24.9468 23.5705C25.0096 23.5335 25.0616 23.4806 25.0973 23.417L28.4326 17.3556C31.0144 17.9203 33.4171 19.1128 35.4281 20.8275L32.8714 25.3155C32.8362 25.3781 32.8179 25.4489 32.8185 25.5207C32.819 25.5926 32.8383 25.663 32.8745 25.7251C32.9106 25.7872 32.9624 25.8388 33.0246 25.8748C33.0868 25.9107 33.1574 25.9298 33.2292 25.9301C33.309 25.9302 33.3871 25.9064 33.4532 25.8618L37.6353 23.1302C39.8675 25.9693 41.0823 29.4753 41.0852 33.0868V33.095ZM42.3855 12.854C42.3446 12.8975 42.3137 12.9493 42.2949 13.0059C42.276 13.0625 42.2696 13.1225 42.2762 13.1818C42.2828 13.2408 42.3024 13.2976 42.3335 13.3482C42.3647 13.3987 42.4067 13.4417 42.4565 13.4741L46.6413 16.263L34.4257 24.2611L38.971 16.263C39.0222 16.1722 39.0372 16.0654 39.0128 15.9641C38.9885 15.8627 38.9267 15.7743 38.8399 15.7167L34.4257 12.8185L39.3835 0.988038L48.9085 5.90488L42.3855 12.854Z"/>
</mask>
<path d="M49.982 5.73005C49.9719 5.66731 49.9471 5.60786 49.9096 5.55657C49.8721 5.50529 49.8229 5.46364 49.7662 5.43504L39.3671 0.0565695C39.3168 0.0308211 39.2618 0.0156026 39.2054 0.0118452C39.1491 0.00808774 39.0925 0.0158708 39.0393 0.0347174C38.9858 0.053468 38.937 0.0833845 38.896 0.122477C38.8551 0.161569 38.8229 0.20894 38.8016 0.261438L33.5406 12.8267C33.5036 12.9145 33.4984 13.0124 33.5258 13.1037C33.5533 13.1949 33.6116 13.2737 33.6909 13.3266L38.0614 16.2111L35.8324 20.1227C33.8056 18.4269 31.4098 17.2295 28.8369 16.6263L32.9342 9.20735C32.9671 9.14805 32.9848 9.08151 32.9856 9.0137C32.9865 8.94589 32.9705 8.87893 32.9391 8.81882C32.9077 8.75872 32.8618 8.70735 32.8057 8.66932C32.7495 8.6313 32.6848 8.6078 32.6174 8.60094L27.482 8.06828L29.5115 0.537328C29.5276 0.476024 29.5292 0.411854 29.5165 0.349797C29.5037 0.28774 29.4767 0.229465 29.4378 0.179491C29.3999 0.130032 29.3511 0.0899988 29.2952 0.0625162C29.2393 0.0350336 29.1778 0.0208455 29.1155 0.0210597L17.4025 0.146712C17.3461 0.147219 17.2905 0.159427 17.2391 0.182565C17.1877 0.205702 17.1416 0.239263 17.1039 0.281121C17.0661 0.32298 17.0375 0.372223 17.0198 0.42573C17.002 0.479237 16.9956 0.535843 17.0009 0.591959L18.2219 14.1488C18.2316 14.2524 18.28 14.3485 18.3575 14.4179C18.435 14.4873 18.5359 14.5248 18.6399 14.523L24.5729 14.3509L24.521 16.1729C20.7174 16.2784 17.0604 17.6633 14.141 20.1036L11.9175 16.2002L16.288 13.3156C16.3672 13.2628 16.4256 13.184 16.453 13.0927C16.4804 13.0015 16.4752 12.9036 16.4382 12.8158L11.1772 0.250512C11.156 0.198015 11.1238 0.150644 11.0828 0.111551C11.0418 0.072459 10.993 0.0425415 10.9396 0.0237908C10.8863 0.00494428 10.8298 -0.00283778 10.7734 0.000919677C10.717 0.00467713 10.662 0.0198956 10.6118 0.045644L0.220849 5.43504C0.164618 5.46426 0.115928 5.50611 0.0786067 5.55732C0.0412857 5.60853 0.0163506 5.6677 0.00576155 5.73017C-0.00482748 5.79265 -0.00078205 5.85673 0.0175801 5.91738C0.0359422 5.97802 0.0681204 6.03359 0.111585 6.0797L6.66737 13.0534L2.37606 15.9161C2.31914 15.9534 2.27239 16.0042 2.24004 16.0641C2.20769 16.1239 2.19074 16.1909 2.19074 16.2589C2.19074 16.327 2.20769 16.3939 2.24004 16.4538C2.27239 16.5136 2.31914 16.5645 2.37606 16.6017L11.6634 22.6822C9.71369 25.1797 8.50478 28.1747 8.17447 31.3258C7.84417 34.477 8.40575 37.6575 9.79523 40.505C11.1847 43.3525 13.3462 45.7524 16.0333 47.4311C18.7204 49.1099 21.8251 50 24.9935 50C28.1619 50 31.2666 49.1099 33.9537 47.4311C36.6409 45.7524 38.8023 43.3525 40.1918 40.505C41.5813 37.6575 42.1429 34.477 41.8126 31.3258C41.4823 28.1747 40.2734 25.1797 38.3236 22.6822L47.611 16.6017C47.6679 16.5645 47.7146 16.5136 47.747 16.4538C47.7794 16.3939 47.7963 16.327 47.7963 16.2589C47.7963 16.1909 47.7794 16.1239 47.747 16.0641C47.7146 16.0042 47.6679 15.9534 47.611 15.9161L43.3142 13.0534L49.87 6.0797C49.9147 6.03427 49.9482 5.97895 49.9676 5.91822C49.9871 5.85749 49.992 5.79303 49.982 5.73005ZM19.0032 13.6789L17.8559 0.947064L28.5773 0.845996L26.5642 8.32232C26.5483 8.37971 26.5453 8.43988 26.5552 8.49858C26.5652 8.55728 26.5879 8.61308 26.6218 8.66205C26.6556 8.71102 26.6998 8.75196 26.7512 8.78199C26.8026 8.81202 26.86 8.83041 26.9193 8.83586L31.9208 9.34393L25.1929 21.535L25.4033 13.9521C25.4045 13.8965 25.3945 13.8412 25.3739 13.7896C25.3532 13.7379 25.3223 13.691 25.2831 13.6516C25.2454 13.6131 25.2004 13.5825 25.1506 13.5619C25.1008 13.5412 25.0474 13.5309 24.9935 13.5314L19.0032 13.6789ZM3.34577 16.263L7.53055 13.4659C7.58034 13.4335 7.62234 13.3905 7.65351 13.34C7.68469 13.2894 7.70426 13.2326 7.71083 13.1736C7.71741 13.1143 7.71104 13.0543 7.69218 12.9977C7.67331 12.9411 7.6424 12.8893 7.60157 12.8458L1.07856 5.91307L10.6036 0.996233L15.5614 12.8185L11.1472 15.7167C11.0603 15.7743 10.9985 15.8627 10.9742 15.9641C10.9499 16.0654 10.9648 16.1722 11.016 16.263L15.5614 24.242L3.34577 16.263ZM41.0852 33.095C41.0843 35.6606 40.47 38.1888 39.2935 40.4687C38.1169 42.7486 36.4123 44.7142 34.3218 46.2014C32.2313 47.6887 29.8154 48.6545 27.2758 49.0184C24.7361 49.3823 22.1463 49.1336 19.7223 48.2932C17.2982 47.4528 15.1103 46.0449 13.3409 44.1871C11.5715 42.3292 10.272 40.0753 9.55077 37.6131C8.82952 35.151 8.70742 32.5521 9.19467 30.0332C9.68191 27.5144 10.7644 25.1485 12.3518 23.1329L16.5338 25.8645C16.6 25.9092 16.678 25.933 16.7578 25.9328C16.8297 25.9325 16.9002 25.9134 16.9624 25.8775C17.0247 25.8415 17.0764 25.79 17.1126 25.7279C17.1487 25.6658 17.168 25.5953 17.1686 25.5234C17.1691 25.4516 17.1509 25.3808 17.1157 25.3182L14.5589 20.8357C17.3425 18.4702 20.8478 17.1216 24.4991 17.0115L24.3297 23.2067C24.3266 23.2985 24.3545 23.3886 24.4091 23.4625C24.4636 23.5364 24.5416 23.5897 24.6302 23.6137C24.6657 23.6238 24.7026 23.6284 24.7395 23.6273C24.8124 23.627 24.8839 23.6074 24.9468 23.5705C25.0096 23.5335 25.0616 23.4806 25.0973 23.417L28.4326 17.3556C31.0144 17.9203 33.4171 19.1128 35.4281 20.8275L32.8714 25.3155C32.8362 25.3781 32.8179 25.4489 32.8185 25.5207C32.819 25.5926 32.8383 25.663 32.8745 25.7251C32.9106 25.7872 32.9624 25.8388 33.0246 25.8748C33.0868 25.9107 33.1574 25.9298 33.2292 25.9301C33.309 25.9302 33.3871 25.9064 33.4532 25.8618L37.6353 23.1302C39.8675 25.9693 41.0823 29.4753 41.0852 33.0868V33.095ZM42.3855 12.854C42.3446 12.8975 42.3137 12.9493 42.2949 13.0059C42.276 13.0625 42.2696 13.1225 42.2762 13.1818C42.2828 13.2408 42.3024 13.2976 42.3335 13.3482C42.3647 13.3987 42.4067 13.4417 42.4565 13.4741L46.6413 16.263L34.4257 24.2611L38.971 16.263C39.0222 16.1722 39.0372 16.0654 39.0128 15.9641C38.9885 15.8627 38.9267 15.7743 38.8399 15.7167L34.4257 12.8185L39.3835 0.988038L48.9085 5.90488L42.3855 12.854Z" fill="white"/>
<path d="M49.982 5.73005C49.9719 5.66731 49.9471 5.60786 49.9096 5.55657C49.8721 5.50529 49.8229 5.46364 49.7662 5.43504L39.3671 0.0565695C39.3168 0.0308211 39.2618 0.0156026 39.2054 0.0118452C39.1491 0.00808774 39.0925 0.0158708 39.0393 0.0347174C38.9858 0.053468 38.937 0.0833845 38.896 0.122477C38.8551 0.161569 38.8229 0.20894 38.8016 0.261438L33.5406 12.8267C33.5036 12.9145 33.4984 13.0124 33.5258 13.1037C33.5533 13.1949 33.6116 13.2737 33.6909 13.3266L38.0614 16.2111L35.8324 20.1227C33.8056 18.4269 31.4098 17.2295 28.8369 16.6263L32.9342 9.20735C32.9671 9.14805 32.9848 9.08151 32.9856 9.0137C32.9865 8.94589 32.9705 8.87893 32.9391 8.81882C32.9077 8.75872 32.8618 8.70735 32.8057 8.66932C32.7495 8.6313 32.6848 8.6078 32.6174 8.60094L27.482 8.06828L29.5115 0.537328C29.5276 0.476024 29.5292 0.411854 29.5165 0.349797C29.5037 0.28774 29.4767 0.229465 29.4378 0.179491C29.3999 0.130032 29.3511 0.0899988 29.2952 0.0625162C29.2393 0.0350336 29.1778 0.0208455 29.1155 0.0210597L17.4025 0.146712C17.3461 0.147219 17.2905 0.159427 17.2391 0.182565C17.1877 0.205702 17.1416 0.239263 17.1039 0.281121C17.0661 0.32298 17.0375 0.372223 17.0198 0.42573C17.002 0.479237 16.9956 0.535843 17.0009 0.591959L18.2219 14.1488C18.2316 14.2524 18.28 14.3485 18.3575 14.4179C18.435 14.4873 18.5359 14.5248 18.6399 14.523L24.5729 14.3509L24.521 16.1729C20.7174 16.2784 17.0604 17.6633 14.141 20.1036L11.9175 16.2002L16.288 13.3156C16.3672 13.2628 16.4256 13.184 16.453 13.0927C16.4804 13.0015 16.4752 12.9036 16.4382 12.8158L11.1772 0.250512C11.156 0.198015 11.1238 0.150644 11.0828 0.111551C11.0418 0.072459 10.993 0.0425415 10.9396 0.0237908C10.8863 0.00494428 10.8298 -0.00283778 10.7734 0.000919677C10.717 0.00467713 10.662 0.0198956 10.6118 0.045644L0.220849 5.43504C0.164618 5.46426 0.115928 5.50611 0.0786067 5.55732C0.0412857 5.60853 0.0163506 5.6677 0.00576155 5.73017C-0.00482748 5.79265 -0.00078205 5.85673 0.0175801 5.91738C0.0359422 5.97802 0.0681204 6.03359 0.111585 6.0797L6.66737 13.0534L2.37606 15.9161C2.31914 15.9534 2.27239 16.0042 2.24004 16.0641C2.20769 16.1239 2.19074 16.1909 2.19074 16.2589C2.19074 16.327 2.20769 16.3939 2.24004 16.4538C2.27239 16.5136 2.31914 16.5645 2.37606 16.6017L11.6634 22.6822C9.71369 25.1797 8.50478 28.1747 8.17447 31.3258C7.84417 34.477 8.40575 37.6575 9.79523 40.505C11.1847 43.3525 13.3462 45.7524 16.0333 47.4311C18.7204 49.1099 21.8251 50 24.9935 50C28.1619 50 31.2666 49.1099 33.9537 47.4311C36.6409 45.7524 38.8023 43.3525 40.1918 40.505C41.5813 37.6575 42.1429 34.477 41.8126 31.3258C41.4823 28.1747 40.2734 25.1797 38.3236 22.6822L47.611 16.6017C47.6679 16.5645 47.7146 16.5136 47.747 16.4538C47.7794 16.3939 47.7963 16.327 47.7963 16.2589C47.7963 16.1909 47.7794 16.1239 47.747 16.0641C47.7146 16.0042 47.6679 15.9534 47.611 15.9161L43.3142 13.0534L49.87 6.0797C49.9147 6.03427 49.9482 5.97895 49.9676 5.91822C49.9871 5.85749 49.992 5.79303 49.982 5.73005ZM19.0032 13.6789L17.8559 0.947064L28.5773 0.845996L26.5642 8.32232C26.5483 8.37971 26.5453 8.43988 26.5552 8.49858C26.5652 8.55728 26.5879 8.61308 26.6218 8.66205C26.6556 8.71102 26.6998 8.75196 26.7512 8.78199C26.8026 8.81202 26.86 8.83041 26.9193 8.83586L31.9208 9.34393L25.1929 21.535L25.4033 13.9521C25.4045 13.8965 25.3945 13.8412 25.3739 13.7896C25.3532 13.7379 25.3223 13.691 25.2831 13.6516C25.2454 13.6131 25.2004 13.5825 25.1506 13.5619C25.1008 13.5412 25.0474 13.5309 24.9935 13.5314L19.0032 13.6789ZM3.34577 16.263L7.53055 13.4659C7.58034 13.4335 7.62234 13.3905 7.65351 13.34C7.68469 13.2894 7.70426 13.2326 7.71083 13.1736C7.71741 13.1143 7.71104 13.0543 7.69218 12.9977C7.67331 12.9411 7.6424 12.8893 7.60157 12.8458L1.07856 5.91307L10.6036 0.996233L15.5614 12.8185L11.1472 15.7167C11.0603 15.7743 10.9985 15.8627 10.9742 15.9641C10.9499 16.0654 10.9648 16.1722 11.016 16.263L15.5614 24.242L3.34577 16.263ZM41.0852 33.095C41.0843 35.6606 40.47 38.1888 39.2935 40.4687C38.1169 42.7486 36.4123 44.7142 34.3218 46.2014C32.2313 47.6887 29.8154 48.6545 27.2758 49.0184C24.7361 49.3823 22.1463 49.1336 19.7223 48.2932C17.2982 47.4528 15.1103 46.0449 13.3409 44.1871C11.5715 42.3292 10.272 40.0753 9.55077 37.6131C8.82952 35.151 8.70742 32.5521 9.19467 30.0332C9.68191 27.5144 10.7644 25.1485 12.3518 23.1329L16.5338 25.8645C16.6 25.9092 16.678 25.933 16.7578 25.9328C16.8297 25.9325 16.9002 25.9134 16.9624 25.8775C17.0247 25.8415 17.0764 25.79 17.1126 25.7279C17.1487 25.6658 17.168 25.5953 17.1686 25.5234C17.1691 25.4516 17.1509 25.3808 17.1157 25.3182L14.5589 20.8357C17.3425 18.4702 20.8478 17.1216 24.4991 17.0115L24.3297 23.2067C24.3266 23.2985 24.3545 23.3886 24.4091 23.4625C24.4636 23.5364 24.5416 23.5897 24.6302 23.6137C24.6657 23.6238 24.7026 23.6284 24.7395 23.6273C24.8124 23.627 24.8839 23.6074 24.9468 23.5705C25.0096 23.5335 25.0616 23.4806 25.0973 23.417L28.4326 17.3556C31.0144 17.9203 33.4171 19.1128 35.4281 20.8275L32.8714 25.3155C32.8362 25.3781 32.8179 25.4489 32.8185 25.5207C32.819 25.5926 32.8383 25.663 32.8745 25.7251C32.9106 25.7872 32.9624 25.8388 33.0246 25.8748C33.0868 25.9107 33.1574 25.9298 33.2292 25.9301C33.309 25.9302 33.3871 25.9064 33.4532 25.8618L37.6353 23.1302C39.8675 25.9693 41.0823 29.4753 41.0852 33.0868V33.095ZM42.3855 12.854C42.3446 12.8975 42.3137 12.9493 42.2949 13.0059C42.276 13.0625 42.2696 13.1225 42.2762 13.1818C42.2828 13.2408 42.3024 13.2976 42.3335 13.3482C42.3647 13.3987 42.4067 13.4417 42.4565 13.4741L46.6413 16.263L34.4257 24.2611L38.971 16.263C39.0222 16.1722 39.0372 16.0654 39.0128 15.9641C38.9885 15.8627 38.9267 15.7743 38.8399 15.7167L34.4257 12.8185L39.3835 0.988038L48.9085 5.90488L42.3855 12.854Z" stroke="white" mask="url(#path-3-outside-2_290_3831)"/>
<mask id="path-4-outside-3_290_3831" maskUnits="userSpaceOnUse" x="15.8047" y="29.4004" width="5" height="7" fill="black">
<rect fill="white" x="15.8047" y="29.4004" width="5" height="7"/>
<path d="M19.7779 32.794L17.5025 30.5214C17.4647 30.483 17.4196 30.4526 17.3699 30.4318C17.3202 30.4111 17.2668 30.4004 17.213 30.4004C17.1591 30.4004 17.1058 30.4111 17.0561 30.4318C17.0064 30.4526 16.9613 30.483 16.9234 30.5214C16.8474 30.5985 16.8047 30.7025 16.8047 30.8109C16.8047 30.9193 16.8474 31.0233 16.9234 31.1005L18.9093 33.0863L16.9234 35.0694C16.8666 35.1271 16.828 35.2002 16.8124 35.2797C16.7968 35.3591 16.805 35.4414 16.8358 35.5163C16.8667 35.5911 16.9189 35.6552 16.986 35.7006C17.0531 35.746 17.132 35.7706 17.213 35.7715C17.2668 35.7716 17.3201 35.761 17.3698 35.7404C17.4195 35.7197 17.4646 35.6894 17.5025 35.6513L19.7779 33.3759C19.8163 33.3378 19.8468 33.2925 19.8676 33.2425C19.8884 33.1926 19.8991 33.139 19.8991 33.0849C19.8991 33.0309 19.8884 32.9773 19.8676 32.9274C19.8468 32.8774 19.8163 32.8321 19.7779 32.794Z"/>
</mask>
<path d="M19.7779 32.794L17.5025 30.5214C17.4647 30.483 17.4196 30.4526 17.3699 30.4318C17.3202 30.4111 17.2668 30.4004 17.213 30.4004C17.1591 30.4004 17.1058 30.4111 17.0561 30.4318C17.0064 30.4526 16.9613 30.483 16.9234 30.5214C16.8474 30.5985 16.8047 30.7025 16.8047 30.8109C16.8047 30.9193 16.8474 31.0233 16.9234 31.1005L18.9093 33.0863L16.9234 35.0694C16.8666 35.1271 16.828 35.2002 16.8124 35.2797C16.7968 35.3591 16.805 35.4414 16.8358 35.5163C16.8667 35.5911 16.9189 35.6552 16.986 35.7006C17.0531 35.746 17.132 35.7706 17.213 35.7715C17.2668 35.7716 17.3201 35.761 17.3698 35.7404C17.4195 35.7197 17.4646 35.6894 17.5025 35.6513L19.7779 33.3759C19.8163 33.3378 19.8468 33.2925 19.8676 33.2425C19.8884 33.1926 19.8991 33.139 19.8991 33.0849C19.8991 33.0309 19.8884 32.9773 19.8676 32.9274C19.8468 32.8774 19.8163 32.8321 19.7779 32.794Z" fill="white"/>
<path d="M19.7779 32.794L19.4246 33.1478L19.4258 33.149L19.7779 32.794ZM17.5025 30.5214L17.1468 30.8728L17.1492 30.8751L17.5025 30.5214ZM17.213 30.4004L17.213 29.9004L17.213 30.4004ZM16.9234 30.5214L16.5677 30.17L16.5673 30.1704L16.9234 30.5214ZM16.9234 31.1005L16.5673 31.4515L16.5699 31.454L16.9234 31.1005ZM18.9093 33.0863L19.2626 33.4401L19.6166 33.0866L19.2628 32.7328L18.9093 33.0863ZM16.9234 35.0694L16.5701 34.7156L16.5674 34.7184L16.9234 35.0694ZM17.213 35.7715L17.2079 36.2714L17.212 36.2715L17.213 35.7715ZM17.5025 35.6513L17.149 35.2977L17.1478 35.2989L17.5025 35.6513ZM19.7779 33.3759L19.4258 33.0209L19.4244 33.0223L19.7779 33.3759ZM19.8991 33.0849L20.3991 33.0849L19.8991 33.0849ZM20.1313 32.4403L17.8559 30.1676L17.1492 30.8751L19.4246 33.1478L20.1313 32.4403ZM17.8582 30.17C17.7739 30.0846 17.6734 30.0168 17.5626 29.9705L17.1771 30.8932C17.1658 30.8885 17.1555 30.8815 17.1468 30.8727L17.8582 30.17ZM17.5626 29.9705C17.4518 29.9242 17.333 29.9004 17.213 29.9004L17.213 30.9004C17.2007 30.9004 17.1885 30.898 17.1771 30.8932L17.5626 29.9705ZM17.213 29.9004C17.0929 29.9004 16.9741 29.9242 16.8633 29.9705L17.2488 30.8932C17.2374 30.898 17.2253 30.9004 17.213 30.9004L17.213 29.9004ZM16.8633 29.9705C16.7526 30.0168 16.6521 30.0846 16.5677 30.17L17.2791 30.8727C17.2705 30.8815 17.2602 30.8885 17.2488 30.8932L16.8633 29.9705ZM16.5673 30.1704C16.399 30.3411 16.3047 30.5712 16.3047 30.8109H17.3047C17.3047 30.8339 17.2957 30.856 17.2795 30.8724L16.5673 30.1704ZM16.3047 30.8109C16.3047 31.0506 16.399 31.2807 16.5673 31.4515L17.2795 30.7495C17.2957 30.7658 17.3047 30.7879 17.3047 30.8109H16.3047ZM16.5699 31.454L18.5557 33.4399L19.2628 32.7328L17.277 30.7469L16.5699 31.454ZM18.556 32.7325L16.5701 34.7156L17.2767 35.4232L19.2626 33.4401L18.556 32.7325ZM16.5674 34.7184C16.4416 34.846 16.3562 35.0077 16.3217 35.1835L17.3031 35.3758C17.2997 35.3927 17.2916 35.4082 17.2795 35.4205L16.5674 34.7184ZM16.3217 35.1835C16.2873 35.3593 16.3053 35.5413 16.3736 35.7069L17.2981 35.3256C17.3046 35.3415 17.3064 35.359 17.3031 35.3758L16.3217 35.1835ZM16.3736 35.7069C16.4419 35.8725 16.5574 36.0143 16.7058 36.1147L17.2662 35.2865C17.2804 35.2961 17.2915 35.3097 17.2981 35.3256L16.3736 35.7069ZM16.7058 36.1147C16.8542 36.2151 17.0288 36.2696 17.2079 36.2714L17.218 35.2715C17.2352 35.2717 17.252 35.2769 17.2662 35.2865L16.7058 36.1147ZM17.212 36.2715C17.3319 36.2717 17.4507 36.2481 17.5615 36.2021L17.1781 35.2786C17.1894 35.2738 17.2016 35.2714 17.2139 35.2715L17.212 36.2715ZM17.5615 36.2021C17.6722 36.1562 17.7728 36.0887 17.8573 36.0036L17.1478 35.2989C17.1564 35.2902 17.1667 35.2833 17.1781 35.2786L17.5615 36.2021ZM17.8561 36.0048L20.1315 33.7294L19.4244 33.0223L17.149 35.2977L17.8561 36.0048ZM20.13 33.7309C20.2153 33.6463 20.283 33.5457 20.3292 33.4348L19.4061 33.0502C19.4106 33.0392 19.4174 33.0293 19.4258 33.0209L20.13 33.7309ZM20.3292 33.4348C20.3753 33.324 20.3991 33.2051 20.3991 33.0849H19.3991C19.3991 33.073 19.4015 33.0612 19.4061 33.0502L20.3292 33.4348ZM20.3991 33.0849C20.3991 32.9648 20.3753 32.8459 20.3292 32.7351L19.4061 33.1197C19.4015 33.1087 19.3991 33.0969 19.3991 33.0849L20.3991 33.0849ZM20.3292 32.7351C20.283 32.6242 20.2153 32.5236 20.13 32.439L19.4258 33.149C19.4174 33.1406 19.4106 33.1307 19.4061 33.1197L20.3292 32.7351Z" fill="white" mask="url(#path-4-outside-3_290_3831)"/>
<mask id="path-6-outside-4_290_3831" maskUnits="userSpaceOnUse" x="29.0859" y="29.4004" width="5" height="7" fill="black">
<rect fill="white" x="29.0859" y="29.4004" width="5" height="7"/>
<path d="M33.0616 30.5214C33.0238 30.483 32.9787 30.4526 32.929 30.4318C32.8793 30.4111 32.826 30.4004 32.7721 30.4004C32.7182 30.4004 32.6649 30.4111 32.6152 30.4318C32.5655 30.4526 32.5204 30.483 32.4825 30.5214L30.2071 32.794C30.1687 32.8321 30.1382 32.8774 30.1174 32.9274C30.0966 32.9773 30.0859 33.0309 30.0859 33.0849C30.0859 33.139 30.0966 33.1926 30.1174 33.2425C30.1382 33.2925 30.1687 33.3378 30.2071 33.3759L32.4825 35.6513C32.5205 35.6894 32.5656 35.7197 32.6153 35.7404C32.665 35.761 32.7183 35.7716 32.7721 35.7715C32.8531 35.7706 32.932 35.746 32.9991 35.7006C33.0661 35.6552 33.1183 35.5911 33.1492 35.5163C33.1801 35.4414 33.1882 35.3591 33.1727 35.2797C33.1571 35.2002 33.1185 35.1271 33.0616 35.0694L31.0758 33.0863L33.0616 31.1005C33.1377 31.0233 33.1803 30.9193 33.1803 30.8109C33.1803 30.7025 33.1377 30.5985 33.0616 30.5214Z"/>
</mask>
<path d="M33.0616 30.5214C33.0238 30.483 32.9787 30.4526 32.929 30.4318C32.8793 30.4111 32.826 30.4004 32.7721 30.4004C32.7182 30.4004 32.6649 30.4111 32.6152 30.4318C32.5655 30.4526 32.5204 30.483 32.4825 30.5214L30.2071 32.794C30.1687 32.8321 30.1382 32.8774 30.1174 32.9274C30.0966 32.9773 30.0859 33.0309 30.0859 33.0849C30.0859 33.139 30.0966 33.1926 30.1174 33.2425C30.1382 33.2925 30.1687 33.3378 30.2071 33.3759L32.4825 35.6513C32.5205 35.6894 32.5656 35.7197 32.6153 35.7404C32.665 35.761 32.7183 35.7716 32.7721 35.7715C32.8531 35.7706 32.932 35.746 32.9991 35.7006C33.0661 35.6552 33.1183 35.5911 33.1492 35.5163C33.1801 35.4414 33.1882 35.3591 33.1727 35.2797C33.1571 35.2002 33.1185 35.1271 33.0616 35.0694L31.0758 33.0863L33.0616 31.1005C33.1377 31.0233 33.1803 30.9193 33.1803 30.8109C33.1803 30.7025 33.1377 30.5985 33.0616 30.5214Z" fill="white"/>
<path d="M33.0616 30.5214L33.4177 30.1704L33.4173 30.17L33.0616 30.5214ZM32.4825 30.5214L32.8359 30.8751L32.8382 30.8727L32.4825 30.5214ZM30.2071 32.794L30.5592 33.149L30.5605 33.1478L30.2071 32.794ZM30.2071 33.3759L30.5607 33.0223L30.5592 33.0209L30.2071 33.3759ZM32.4825 35.6513L32.8373 35.2989L32.8361 35.2977L32.4825 35.6513ZM32.7721 35.7715L32.773 36.2715L32.7772 36.2714L32.7721 35.7715ZM33.0616 35.0694L33.4177 34.7184L33.4149 34.7156L33.0616 35.0694ZM31.0758 33.0863L30.7222 32.7328L30.3684 33.0866L30.7225 33.4401L31.0758 33.0863ZM33.0616 31.1005L33.4152 31.454L33.4177 31.4515L33.0616 31.1005ZM33.1803 30.8109L32.6803 30.8109L33.1803 30.8109ZM33.4173 30.17C33.333 30.0846 33.2325 30.0168 33.1217 29.9705L32.7362 30.8932C32.7249 30.8885 32.7146 30.8815 32.7059 30.8727L33.4173 30.17ZM33.1217 29.9705C33.011 29.9242 32.8921 29.9004 32.7721 29.9004V30.9004C32.7598 30.9004 32.7476 30.898 32.7362 30.8932L33.1217 29.9705ZM32.7721 29.9004C32.6521 29.9004 32.5332 29.9242 32.4224 29.9705L32.8079 30.8932C32.7966 30.8979 32.7844 30.9004 32.7721 30.9004V29.9004ZM32.4224 29.9705C32.3117 30.0168 32.2112 30.0846 32.1268 30.17L32.8382 30.8727C32.8296 30.8815 32.8193 30.8885 32.8079 30.8932L32.4224 29.9705ZM32.1292 30.1676L29.8538 32.4403L30.5605 33.1478L32.8359 30.8751L32.1292 30.1676ZM29.855 32.439C29.7698 32.5236 29.7021 32.6242 29.6559 32.7351L30.579 33.1197C30.5744 33.1307 30.5677 33.1406 30.5592 33.149L29.855 32.439ZM29.6559 32.7351C29.6097 32.846 29.5859 32.9649 29.5859 33.0849H30.5859C30.5859 33.0969 30.5836 33.1087 30.579 33.1197L29.6559 32.7351ZM29.5859 33.0849C29.5859 33.205 29.6097 33.3239 29.6559 33.4348L30.579 33.0502C30.5836 33.0612 30.5859 33.073 30.5859 33.0849H29.5859ZM29.6559 33.4348C29.7021 33.5457 29.7698 33.6463 29.855 33.7309L30.5592 33.0209C30.5677 33.0292 30.5744 33.0392 30.579 33.0502L29.6559 33.4348ZM29.8536 33.7294L32.129 36.0048L32.8361 35.2977L30.5607 33.0223L29.8536 33.7294ZM32.1278 36.0036C32.2123 36.0887 32.3128 36.1562 32.4236 36.2021L32.807 35.2786C32.8183 35.2833 32.8286 35.2902 32.8373 35.2989L32.1278 36.0036ZM32.4236 36.2021C32.5343 36.2481 32.6531 36.2717 32.773 36.2715L32.7711 35.2715C32.7834 35.2714 32.7956 35.2738 32.807 35.2786L32.4236 36.2021ZM32.7772 36.2714C32.9563 36.2696 33.1309 36.2151 33.2793 36.1147L32.7188 35.2865C32.7331 35.2769 32.7498 35.2717 32.767 35.2715L32.7772 36.2714ZM33.2793 36.1147C33.4276 36.0143 33.5431 35.8725 33.6114 35.7069L32.687 35.3256C32.6935 35.3097 32.7046 35.2961 32.7188 35.2865L33.2793 36.1147ZM33.6114 35.7069C33.6797 35.5413 33.6978 35.3593 33.6633 35.1835L32.682 35.3758C32.6787 35.359 32.6804 35.3415 32.687 35.3256L33.6114 35.7069ZM33.6633 35.1835C33.6289 35.0077 33.5434 34.846 33.4177 34.7184L32.7056 35.4205C32.6935 35.4082 32.6853 35.3927 32.682 35.3758L33.6633 35.1835ZM33.4149 34.7156L31.4291 32.7325L30.7225 33.4401L32.7083 35.4232L33.4149 34.7156ZM31.4293 33.4399L33.4152 31.454L32.7081 30.7469L30.7222 32.7328L31.4293 33.4399ZM33.4177 31.4515C33.586 31.2807 33.6803 31.0506 33.6803 30.8109L32.6803 30.8109C32.6803 30.7879 32.6894 30.7658 32.7055 30.7495L33.4177 31.4515ZM33.6803 30.8109C33.6803 30.5712 33.586 30.3411 33.4177 30.1704L32.7055 30.8724C32.6894 30.856 32.6803 30.8339 32.6803 30.8109H33.6803Z" fill="white" mask="url(#path-6-outside-4_290_3831)"/>
</svg>
