<svg width="50" height="50" viewBox="0 0 50 50" fill="none" xmlns="http://www.w3.org/2000/svg">
<g clip-path="url(#clip0_290_3854)">
<path d="M49.4683 20.319L25.7675 2.96577C25.3105 2.6312 24.6896 2.6312 24.2328 2.96577L0.531795 20.319C-0.0471115 20.7429 -0.172893 21.5558 0.251033 22.1347C0.674959 22.7136 1.48795 22.8392 2.06676 22.4155L25.0001 5.62407L47.9334 22.4154C48.1646 22.5848 48.4334 22.6664 48.6998 22.6664C49.0998 22.6664 49.4945 22.4823 49.749 22.1346C50.173 21.5558 50.0472 20.7429 49.4683 20.319Z" fill="white"/>
<path d="M43.1889 22.709C42.4715 22.709 41.8897 23.2906 41.8897 24.0081V44.6867H31.497V33.399C31.497 29.817 28.5827 26.9029 25.0009 26.9029C21.419 26.9029 18.5048 29.8172 18.5048 33.399V44.6868H8.11191V24.0082C8.11191 23.2907 7.53018 22.7091 6.81279 22.7091C6.09541 22.7091 5.51367 23.2907 5.51367 24.0082V45.986C5.51367 46.7035 6.09541 47.2852 6.81279 47.2852H19.8039C20.4871 47.2852 21.0462 46.7573 21.0979 46.0872C21.1011 46.0568 21.103 46.0236 21.103 45.986V33.3991C21.103 31.2498 22.8516 29.5013 25.0009 29.5013C27.1502 29.5013 28.8987 31.2499 28.8987 33.3991V45.986C28.8987 46.0234 28.9007 46.0561 28.9038 46.086C28.955 46.7566 29.5143 47.2852 30.1978 47.2852H43.189C43.9064 47.2852 44.4881 46.7035 44.4881 45.986V24.0082C44.488 23.2906 43.9063 22.709 43.1889 22.709Z" fill="white"/>
</g>
<defs>
<clipPath id="clip0_290_3854">
<rect width="50" height="50" fill="white"/>
</clipPath>
</defs>
</svg>
