<svg width="50" height="50" viewBox="0 0 50 50" fill="none" xmlns="http://www.w3.org/2000/svg">
<path d="M33.7551 23.5154C33.7517 23.5154 33.7483 23.5154 33.7448 23.5154H29.5576V19.3179C29.5633 18.4713 28.8815 17.7803 28.035 17.7747C28.0315 17.7747 28.028 17.7747 28.0247 17.7747H21.9753C21.1287 17.7747 20.4424 18.461 20.4424 19.3076V23.5051H16.2551C15.4085 23.4995 14.7176 24.181 14.7119 25.0276C14.7119 25.0346 14.7119 25.0414 14.7119 25.0483V31.0874C14.7119 31.934 15.3983 32.6203 16.2448 32.6203H20.4424V36.8076C20.4367 37.6542 21.1184 38.3451 21.965 38.3508C21.9685 38.3508 21.9719 38.3508 21.9753 38.3508H28.0144C28.861 38.3508 29.5473 37.6644 29.5473 36.8179V32.6203H33.7448C34.5914 32.626 35.2824 31.9443 35.288 31.0977C35.288 31.0942 35.288 31.0908 35.288 31.0874V25.0483C35.288 24.2017 34.6018 23.5154 33.7551 23.5154ZM33.2304 30.5627H28.5288C27.9606 30.5627 27.5 31.0234 27.5 31.5915V36.2932H22.5V31.5915C22.5 31.0234 22.0393 30.5627 21.4712 30.5627H16.7695V25.573H21.4712C22.0393 25.573 22.5 25.1124 22.5 24.5442V19.8323H27.4897V24.5339C27.4897 25.1021 27.9503 25.5627 28.5185 25.5627H33.2304V30.5627Z" fill="white"/>
<path d="M42.9012 10.0791H34.4239V6.45774C34.4772 4.80522 33.1808 3.42224 31.5283 3.36887C31.4441 3.36617 31.3598 3.36694 31.2757 3.37132H18.7243C17.073 3.28528 15.6647 4.55406 15.5786 6.20516C15.5742 6.28927 15.5733 6.3735 15.5761 6.45774V10.0586H7.09877C3.82716 10.0586 0 11.9207 0 17.1573V39.5339C0 44.7705 3.82716 46.6326 7.09877 46.6326H42.9012C46.1728 46.6326 50 44.7705 50 39.5339V17.1779C50 11.9413 46.1831 10.0791 42.9012 10.0791ZM17.6337 6.45774C17.6337 6.15938 17.6337 5.35691 18.7346 5.35691H31.2757C32.3765 5.35691 32.3765 6.14909 32.3765 6.45774V10.0586H17.6337V6.45774ZM47.9424 39.5339C47.9424 44.0812 44.4239 44.575 42.9012 44.575H7.09877C5.58642 44.575 2.05761 44.0812 2.05761 39.5339V17.1779C2.05761 12.6306 5.57613 12.1367 7.09877 12.1367H42.9012C44.4136 12.1367 47.9424 12.6306 47.9424 17.1779V39.5339Z" fill="white"/>
</svg>
