<svg width="45" height="44" viewBox="0 0 45 44" fill="none" xmlns="http://www.w3.org/2000/svg">
<path d="M42.9785 12.625C42.5641 12.625 42.1667 12.7896 41.8737 13.0826C41.5806 13.3757 41.416 13.7731 41.416 14.1875V39.1875C41.416 39.6019 41.2514 39.9993 40.9584 40.2924C40.6653 40.5854 40.2679 40.75 39.8535 40.75H5.47852C5.06411 40.75 4.66669 40.5854 4.37366 40.2924C4.08064 39.9993 3.91602 39.6019 3.91602 39.1875V4.8125C3.91602 4.3981 4.08064 4.00067 4.37366 3.70765C4.66669 3.41462 5.06411 3.25 5.47852 3.25H30.4785C30.8929 3.25 31.2903 3.08538 31.5834 2.79235C31.8764 2.49933 32.041 2.1019 32.041 1.6875C32.041 1.2731 31.8764 0.875671 31.5834 0.582646C31.2903 0.28962 30.8929 0.125 30.4785 0.125H5.47852C4.23531 0.125 3.04303 0.61886 2.16395 1.49794C1.28488 2.37701 0.791016 3.5693 0.791016 4.8125V39.1875C0.791016 40.4307 1.28488 41.623 2.16395 42.5021C3.04303 43.3811 4.23531 43.875 5.47852 43.875H39.8535C41.0967 43.875 42.289 43.3811 43.1681 42.5021C44.0472 41.623 44.541 40.4307 44.541 39.1875V14.1875C44.541 13.7731 44.3764 13.3757 44.0834 13.0826C43.7903 12.7896 43.3929 12.625 42.9785 12.625Z" fill="white"/>
<path d="M11.2759 14.6406C10.9817 14.3463 10.5826 14.181 10.1665 14.181C9.75045 14.181 9.3514 14.3463 9.05717 14.6406C8.76295 14.9348 8.59766 15.3338 8.59766 15.7499C8.59766 15.956 8.63824 16.16 8.71708 16.3503C8.79593 16.5407 8.91149 16.7136 9.05717 16.8593L21.5572 29.3593C21.7032 29.5041 21.8763 29.6187 22.0667 29.6965C22.2571 29.7742 22.4609 29.8136 22.6665 29.8124H22.7759C22.9958 29.796 23.2098 29.7332 23.4037 29.6282C23.5976 29.5232 23.767 29.3783 23.9009 29.2031L44.2134 2.64056C44.4366 2.31138 44.5259 1.90946 44.463 1.51673C44.4002 1.124 44.1899 0.770025 43.8751 0.526949C43.5603 0.283873 43.1647 0.169995 42.7688 0.208525C42.373 0.247055 42.0067 0.435094 41.7447 0.734314L22.5103 25.8906L11.2759 14.6406Z" fill="white"/>
</svg>
