<svg width="50" height="50" viewBox="0 0 50 50" fill="none" xmlns="http://www.w3.org/2000/svg">
<g clip-path="url(#clip0_290_3868)">
<mask id="path-1-inside-1_290_3868" fill="white">
<path d="M25 50C38.7833 50 50 38.7833 50 25C50 11.2167 38.7834 0 25 0C11.2166 0 0 11.2167 0 25C0 38.7833 11.2167 50 25 50ZM25 3.33328C36.95 3.33328 46.6667 13.0499 46.6667 25C46.6667 36.9501 36.9501 46.6667 25 46.6667C13.0499 46.6667 3.33328 36.9501 3.33328 25C3.33328 13.0499 13.05 3.33328 25 3.33328Z"/>
</mask>
<path d="M25 50C38.7833 50 50 38.7833 50 25C50 11.2167 38.7834 0 25 0C11.2166 0 0 11.2167 0 25C0 38.7833 11.2167 50 25 50ZM25 3.33328C36.95 3.33328 46.6667 13.0499 46.6667 25C46.6667 36.9501 36.9501 46.6667 25 46.6667C13.0499 46.6667 3.33328 36.9501 3.33328 25C3.33328 13.0499 13.05 3.33328 25 3.33328Z" fill="white"/>
<path d="M25 50.5C39.0595 50.5 50.5 39.0595 50.5 25H49.5C49.5 38.5072 38.5072 49.5 25 49.5V50.5ZM50.5 25C50.5 10.9406 39.0596 -0.5 25 -0.5V0.5C38.5073 0.5 49.5 11.4928 49.5 25H50.5ZM25 -0.5C10.9404 -0.5 -0.5 10.9406 -0.5 25H0.5C0.5 11.4928 11.4927 0.5 25 0.5V-0.5ZM-0.5 25C-0.5 39.0595 10.9405 50.5 25 50.5V49.5C11.4928 49.5 0.5 38.5072 0.5 25H-0.5ZM25 3.83328C36.6738 3.83328 46.1667 13.3261 46.1667 25H47.1667C47.1667 12.7738 37.2261 2.83328 25 2.83328V3.83328ZM46.1667 25C46.1667 36.6739 36.6739 46.1667 25 46.1667V47.1667C37.2262 47.1667 47.1667 37.2262 47.1667 25H46.1667ZM25 46.1667C13.3261 46.1667 3.83328 36.6739 3.83328 25H2.83328C2.83328 37.2262 12.7738 47.1667 25 47.1667V46.1667ZM3.83328 25C3.83328 13.3261 13.3262 3.83328 25 3.83328V2.83328C12.7739 2.83328 2.83328 12.7738 2.83328 25H3.83328Z" fill="#004C8D" mask="url(#path-1-inside-1_290_3868)"/>
<path d="M32.4478 32.7724L32.4465 32.7714L24.1142 26.1056C24.114 26.1054 24.1138 26.1053 24.1137 26.1051C23.7796 25.8348 23.582 25.4308 23.582 25V11.6666C23.582 10.888 24.2201 10.25 24.9987 10.25C25.7773 10.25 26.4153 10.888 26.4153 11.6666V24.2V24.3201L26.5091 24.3952L34.2172 30.5616C34.8264 31.0505 34.9253 31.9433 34.4369 32.5519L34.4363 32.5527C34.1607 32.899 33.7506 33.0834 33.332 33.0834C33.0191 33.0834 32.709 32.9841 32.4478 32.7724Z" fill="white" stroke="#004C8D" stroke-width="0.5"/>
</g>
<defs>
<clipPath id="clip0_290_3868">
<rect width="50" height="50" fill="white"/>
</clipPath>
</defs>
</svg>
