<svg width="32" height="32" viewBox="0 0 32 32" fill="none" xmlns="http://www.w3.org/2000/svg">
<g clip-path="url(#clip0_2_206)">
<circle cx="16" cy="16" r="16.0911" fill="white"/>
<path d="M3.69612 18.9448L6.57912 14.0936L10.8713 19.0579C13.1101 18.7806 15.3661 18.6407 17.6303 18.6407C17.9281 18.6407 18.2217 18.6433 18.5118 18.6481L24.6541 11.2207L29.0817 18.9448H29.5728L24.7673 10.5622L20.371 11.7531L19.6433 12.6385V10.953L18.6357 10.8486V12.2244L17.1627 12.6246H14.2814L12.3747 15.3017L12.238 15.1856L12.8864 14.2811H11.3101V13.287L10.561 12.9733V14.9123L9.97941 14.139L7.3557 13.7089L6.40384 13.5525L3.19941 18.9444L2.44684 20.211H2.94312L3.6957 18.9444L3.69612 18.9448ZM13.324 14.8716L14.6106 13.0647L16.504 15.3537H17.7181L16.2323 17.4824L13.3124 17.4564L13.3236 14.872L13.324 14.8716Z" fill="#1E2158"/>
<path d="M23.7001 15.8107H22.7958V16.934H23.7001V15.8107Z" fill="#1E2158"/>
<path d="M24.7853 15.8107H23.881V16.934H24.7853V15.8107Z" fill="#1E2158"/>
<path d="M23.881 15.6279H24.7853V15.4841C24.7853 14.9595 24.388 14.5289 23.881 14.483V15.6279Z" fill="#1E2158"/>
<path d="M24.7853 17.1168H23.881V17.6652H24.7853V17.1168Z" fill="#1E2158"/>
<path d="M23.7001 15.6279V14.483C23.1931 14.5293 22.7958 14.9595 22.7958 15.4841V15.6279H23.7001Z" fill="#1E2158"/>
<path d="M23.7001 17.1168H22.7958V17.6652H23.7001V17.1168Z" fill="#1E2158"/>
<path d="M6.83503 17.6678H6.14203V18.5285H6.83503V17.6678Z" fill="#1E2158"/>
<path d="M7.66688 17.6678H6.97388V18.5285H7.66688V17.6678Z" fill="#1E2158"/>
<path d="M6.97388 17.5274H7.66688V17.4174C7.66688 17.0154 7.36259 16.6857 6.97388 16.6502V17.5274Z" fill="#1E2158"/>
<path d="M7.66688 18.6684H6.97388V19.0886H7.66688V18.6684Z" fill="#1E2158"/>
<path d="M6.83503 17.5274V16.6502C6.44674 16.6857 6.14203 17.0154 6.14203 17.4174V17.5274H6.83503Z" fill="#1E2158"/>
<path d="M6.83503 18.6684H6.14203V19.0886H6.83503V18.6684Z" fill="#1E2158"/>
<path d="M14.533 15.407H14.0748V15.9757H14.533V15.407Z" fill="#1E2158"/>
<path d="M15.0828 15.407H14.6247V15.9757H15.0828V15.407Z" fill="#1E2158"/>
<path d="M14.6247 15.3143H15.0828V15.2415C15.0828 14.9759 14.8814 14.7576 14.6247 14.7342V15.3143Z" fill="#1E2158"/>
<path d="M15.0828 16.0684H14.6247V16.3461H15.0828V16.0684Z" fill="#1E2158"/>
<path d="M14.533 15.3143V14.7342C14.2763 14.7576 14.0748 14.9755 14.0748 15.2415V15.3143H14.533Z" fill="#1E2158"/>
<path d="M14.533 16.0684H14.0748V16.3461H14.533V16.0684Z" fill="#1E2158"/>
<path d="M17.1627 12.6242L19.1993 15.3416L16.504 15.3537L14.2819 12.6242H17.1627Z" fill="#D09C2A"/>
<path d="M29.0817 18.9448L24.6541 11.2207L24.9533 10.8875L29.5724 18.9448" fill="#D09C2A"/>
<path d="M19.6433 12.6385L18.6357 12.2244V10.7702L19.6433 10.4565V12.6385Z" fill="#D09C2A"/>
<path d="M17.5784 18.6407L16.2263 17.4824L13.3253 17.391V14.8837L13.015 15.3277L12.3657 15.3108L12.2376 15.1856L12.886 14.2811H11.3097L10.5606 14.9123L9.97901 14.139L6.40387 13.5525L11.1863 19.0193C13.3043 18.7694 15.4377 18.6424 17.5784 18.6403V18.6407Z" fill="#D09C2A"/>
<path d="M1 21.5435C1 21.5435 15.3927 17.5214 31 20.7599C31 20.7599 17.7181 16.2153 1 21.5435Z" fill="#0F2345"/>
<path d="M4.15258 20.2898V19.099L4.24387 18.9448L6.81701 14.6151L6.60101 14.3699L3.88215 18.9448L3.20715 20.081L3.23201 20.561L4.15258 20.2898Z" fill="#EBEBEB"/>
<path d="M27.421 19.4542L28.6725 19.7696L28.6317 18.6706L24.6263 11.5971L24.1605 12.1589L27.421 17.8757V19.4542Z" fill="#EBEBEB"/>
</g>
<defs>
<clipPath id="clip0_2_206">
<rect width="32" height="32" fill="white"/>
</clipPath>
</defs>
</svg>
