<svg width="32" height="32" viewBox="0 0 32 32" fill="none" xmlns="http://www.w3.org/2000/svg">
<g clip-path="url(#clip0_1_153)">
<path d="M31.605 16.4639C31.605 24.8775 24.6246 31.7089 16.0003 31.7089C7.37603 31.7089 0.39502 24.8775 0.39502 16.4639C0.39502 8.05019 7.37537 1.21883 15.9997 1.21883C24.624 1.21883 31.6043 8.05084 31.6043 16.4639H31.605Z" fill="#F3F3F3"/>
<path d="M3.87729 22.6385C3.87729 22.6385 14.2902 31.8159 28.2545 22.0225C28.2545 22.0225 13.8206 18.213 3.87729 22.6385Z" fill="#93C39E"/>
<path d="M20.3842 14.5176V13.596L21.6435 13.1663V14.242L24.3671 13.6462L21.1591 16.7111L19.357 14.7421L20.3833 14.5176H20.3842Z" fill="#315380"/>
<path d="M7.68018 16.9055H7.0408V17.5296H7.68018V16.9055Z" fill="#221F1F"/>
<path d="M8.50513 16.9055H7.86575V17.5296H8.50513V16.9055Z" fill="#221F1F"/>
<path d="M7.68018 17.6592H7.0408V18.2824H7.68018V17.6592Z" fill="#221F1F"/>
<path d="M8.50513 17.6592H7.86575V18.2824H8.50513V17.6592Z" fill="#221F1F"/>
<path d="M15.8882 16.2887H14.8024V17.348H15.8882V16.2887Z" fill="#221F1F"/>
<path d="M17.2903 16.2887H16.2046V17.348H17.2903V16.2887Z" fill="#221F1F"/>
<path d="M15.8882 17.5688H14.8024V18.6282H15.8882V17.5688Z" fill="#221F1F"/>
<path d="M17.2903 17.5688H16.2046V18.6282H17.2903V17.5688Z" fill="#221F1F"/>
<path d="M16.0469 11.0804L7.4194 20.4358L9.59181 20.1283L16.0469 13.2311L22.501 20.1283L24.6734 20.4358L16.0469 11.0804Z" fill="#221F1F"/>
<path d="M7.73399 13.6462L5.59314 15.9009V15.0286H4.50647V17.046L1.79861 19.8984H3.95525V20.8199H4.38026V19.4066H3.77243L7.76462 15.3051L10.1421 17.5324L10.8947 16.6665L7.73307 13.6462H7.73399Z" fill="#221F1F"/>
<path d="M11.7178 14.5176V13.596L10.4586 13.1663V14.242L7.73492 13.6462L10.8966 16.6664L12.6839 14.7284L11.7188 14.5176H11.7178Z" fill="#315380"/>
<path d="M10.4576 12.8588L9.72543 13.2192V13.5057L10.4576 13.1663L11.7169 13.596V13.3542L10.4576 12.8588Z" fill="#221F1F"/>
<path d="M9.72543 14.0815L10.4576 14.2375V13.1663L9.72543 13.5057V14.0815Z" fill="#E8E7E7"/>
<path d="M25.0603 16.9055H24.421V17.5296H25.0603V16.9055Z" fill="#221F1F"/>
<path d="M24.2354 16.9055H23.596V17.5296H24.2354V16.9055Z" fill="#221F1F"/>
<path d="M25.0603 17.6592H24.421V18.2824H25.0603V17.6592Z" fill="#221F1F"/>
<path d="M24.2354 17.6592H23.596V18.2824H24.2354V17.6592Z" fill="#221F1F"/>
<path d="M24.3662 13.6462L26.508 15.9009V15.0286H27.5938V17.046L30.3016 19.8983H28.145V20.8199H27.72V19.4065H28.3278L24.3356 15.3051L21.959 17.5324L21.1842 16.6874L24.3681 13.6453L24.3662 13.6462Z" fill="#221F1F"/>
<path d="M21.6426 12.8588L22.3748 13.2192V13.5057L21.6426 13.1663L20.3833 13.596V13.3542L21.6426 12.8588Z" fill="#221F1F"/>
<path d="M22.3748 14.0815L21.6426 14.2375V13.1663L22.3748 13.5057V14.0815Z" fill="#E8E7E7"/>
</g>
<defs>
<clipPath id="clip0_1_153">
<rect width="32" height="32" fill="white"/>
</clipPath>
</defs>
</svg>
