<svg width="194" height="50" viewBox="0 0 194 50" fill="none" xmlns="http://www.w3.org/2000/svg">
<g clip-path="url(#clip0_136_896)">
<path d="M79.3948 32.9499L56.7261 32.4183L79.3948 31.8867C79.6879 31.8805 79.9375 32.1181 79.9375 32.4183C79.9375 32.7122 79.6942 32.9561 79.3948 32.9499ZM162.659 33.0187L185.327 32.4246L162.659 31.8304C162.366 31.8242 162.116 32.0931 162.116 32.4246C162.116 32.756 162.359 33.0249 162.659 33.0187Z" fill="white"/>
<path d="M84.4412 28.322H85.4829V36.3145H84.4412V28.322ZM91.7396 33.9693L89.7247 28.322H88.814V36.3083H89.8058V30.8361L91.8082 36.3083H92.7314V28.322H91.7396V33.9693ZM99.3873 28.7535C99.6742 29.0412 99.8177 29.454 99.8177 29.9918V34.6447C99.8177 35.0012 99.7491 35.3014 99.6181 35.5515C99.4871 35.8017 99.2937 35.9893 99.0504 36.1206C98.8009 36.252 98.5015 36.3145 98.1459 36.3145H96.0687V28.322H98.1522C98.6886 28.322 99.0941 28.4659 99.3873 28.7535ZM98.7822 29.9668C98.7822 29.7604 98.7323 29.5978 98.6262 29.4852C98.5202 29.3727 98.3767 29.3164 98.1896 29.3164H97.1167V35.3327H98.1896C98.3767 35.3327 98.5264 35.2764 98.6262 35.1638C98.726 35.0512 98.7822 34.8886 98.7822 34.6822V29.9793V29.9668ZM103.043 36.3145H104.084V28.322H103.043V36.3145ZM109.717 28.322L111.557 36.3145H110.441L110.11 34.5697H108.37L108.039 36.3145H106.923L108.763 28.322H109.717ZM109.929 33.5878L109.243 29.9605L108.557 33.5878H109.929ZM117.446 33.9693L115.431 28.3158H114.521V36.302H115.512V30.8298L117.515 36.302H118.438V28.3158H117.446V33.9693ZM124.083 28.322L125.923 36.3145H124.807L124.476 34.5697H122.736L122.405 36.3145H121.289L123.129 28.322H124.083ZM124.289 33.5878L123.603 29.9605L122.917 33.5878H124.289ZM132.511 29.16C132.648 29.4352 132.717 29.7667 132.717 30.1544V31.424C132.717 31.7992 132.648 32.1244 132.505 32.3933C132.361 32.6622 132.161 32.8624 131.893 33.0062C131.631 33.15 131.307 33.2188 130.939 33.2188H129.922V36.3208H128.88V28.3283H130.939C131.313 28.3283 131.637 28.3971 131.899 28.5409C132.161 28.6847 132.367 28.8911 132.505 29.1663L132.511 29.16ZM131.656 30.1669C131.656 29.898 131.594 29.6854 131.475 29.5353C131.35 29.3852 131.182 29.3101 130.97 29.3101H129.928V32.2245H130.97C131.188 32.2245 131.357 32.1494 131.475 32.0056C131.6 31.8617 131.656 31.6554 131.656 31.3927V30.1669ZM139.647 29.1538C139.803 29.454 139.878 29.8167 139.878 30.242V34.3883C139.878 34.8136 139.803 35.1763 139.647 35.4765C139.491 35.7767 139.266 36.0018 138.973 36.1582C138.68 36.3145 138.325 36.3958 137.9 36.3958C137.476 36.3958 137.127 36.3145 136.834 36.1582C136.54 36.0018 136.31 35.7704 136.16 35.4765C136.004 35.1763 135.929 34.8136 135.929 34.3883V30.242C135.929 29.8105 136.004 29.4477 136.16 29.1538C136.316 28.8536 136.54 28.6285 136.834 28.4721C137.127 28.3158 137.489 28.2407 137.9 28.2407C138.312 28.2407 138.68 28.3158 138.973 28.4721C139.266 28.6285 139.491 28.8536 139.647 29.1538ZM138.842 30.2107C138.842 29.9043 138.761 29.6729 138.593 29.504C138.424 29.3352 138.2 29.2539 137.9 29.2539C137.601 29.2539 137.37 29.3352 137.208 29.504C137.046 29.6729 136.965 29.9043 136.965 30.2107V34.4196C136.965 34.7198 137.046 34.9574 137.208 35.12C137.37 35.2889 137.601 35.3702 137.9 35.3702C138.2 35.3702 138.424 35.2889 138.593 35.12C138.761 34.9512 138.842 34.7198 138.842 34.4196V30.2107ZM144.157 28.322H143.115V36.3145H146.428V35.3264H144.157V28.322ZM149.484 36.3145H150.526V28.322H149.484V36.3145ZM157.519 32.9499C157.425 32.731 157.3 32.5497 157.144 32.4121C156.988 32.2745 156.82 32.1619 156.633 32.0681C156.446 31.9743 156.265 31.8868 156.078 31.7992C155.872 31.7054 155.672 31.6116 155.485 31.5178C155.298 31.424 155.142 31.3051 155.03 31.1676C154.917 31.03 154.855 30.8361 154.855 30.6047V30.1044C154.855 29.8355 154.93 29.6228 155.08 29.479C155.229 29.3352 155.454 29.2601 155.741 29.2601C156.009 29.2601 156.215 29.3352 156.358 29.4915C156.502 29.6479 156.57 29.8667 156.57 30.1607V30.5359H157.612V30.1169C157.612 29.5165 157.45 29.0537 157.132 28.7285C156.808 28.4033 156.346 28.2407 155.741 28.2407C155.136 28.2407 154.643 28.3971 154.312 28.716C153.982 29.035 153.813 29.4915 153.813 30.0919V30.5547C153.813 30.8861 153.863 31.1676 153.963 31.3927C154.063 31.6178 154.194 31.8054 154.356 31.9618C154.518 32.1181 154.699 32.2432 154.899 32.3495C155.098 32.4559 155.292 32.5559 155.485 32.6435C155.678 32.731 155.866 32.8248 156.04 32.9186C156.215 33.0125 156.352 33.1313 156.458 33.2626C156.564 33.3939 156.62 33.569 156.62 33.7879V34.4884C156.62 34.7761 156.546 35.0012 156.396 35.1575C156.246 35.3139 156.028 35.3889 155.747 35.3889C155.466 35.3889 155.236 35.3139 155.08 35.1575C154.924 35.0012 154.849 34.7761 154.849 34.4884V34.1319H153.807V34.5259C153.807 34.9261 153.882 35.2701 154.032 35.5515C154.181 35.833 154.4 36.0456 154.687 36.1894C154.974 36.3333 155.329 36.4083 155.747 36.4083C156.365 36.4083 156.839 36.2457 157.169 35.9205C157.5 35.5953 157.662 35.1325 157.662 34.5259V33.7942C157.662 33.4565 157.612 33.1813 157.525 32.9562L157.519 32.9499Z" fill="white"/>
<path d="M58.4227 13.05C58.9966 13.05 59.6453 13.1939 60.3627 13.4878V16.2083C60.1631 15.9456 59.951 15.7517 59.7389 15.6204C59.3522 15.3765 58.9404 15.2514 58.4976 15.2514C57.9361 15.2514 57.4496 15.4265 57.0379 15.783C56.5139 16.2333 56.2519 16.8462 56.2519 17.6279C56.2519 18.4096 56.5139 19.0163 57.0379 19.4665C57.4496 19.823 57.9424 19.9981 58.4976 19.9981C58.9404 19.9981 59.3522 19.873 59.7389 19.6291C59.9448 19.5041 60.1506 19.3039 60.3627 19.0413V21.7617C59.6578 22.0619 59.0028 22.2058 58.404 22.2058C57.356 22.2058 56.4203 21.8555 55.5844 21.1488C54.5302 20.2483 54 19.0725 54 17.6341C54 16.1957 54.524 15.0075 55.5844 14.1069C56.4141 13.4065 57.356 13.05 58.4227 13.05ZM68.1477 16.621H65.0224V13.2502H62.8579V21.9744H65.0224V18.3408H68.1477V21.9744H70.3122V13.2502H68.1477V16.621ZM77.4858 18.3971L80.1058 21.9806H80.0995L77.411 21.9744L75.34 18.6223V21.9744H73.1754V13.2502H76.5377C77.517 13.2502 78.2469 13.5629 78.721 14.1757C79.1015 14.6698 79.2949 15.2577 79.2949 15.9331C79.2949 16.7023 79.0765 17.3152 78.6399 17.778C78.3592 18.0719 77.9724 18.272 77.4858 18.3909V18.3971ZM77.0554 16.0582C77.0554 15.7455 76.9494 15.4891 76.7311 15.2764C76.5252 15.0763 76.2008 14.9762 75.7455 14.9762H75.34V17.1526H75.7455C76.2008 17.1526 76.5252 17.0525 76.7311 16.8524C76.9494 16.6335 77.0554 16.3709 77.0554 16.0644V16.0582ZM82.1331 21.9744H84.2977V13.2502H82.1331V21.9744ZM90.8725 16.6773C90.2612 16.4834 89.8994 16.3521 89.7746 16.277C89.5001 16.1144 89.3629 15.9206 89.3629 15.6829C89.3629 15.4453 89.4689 15.2577 89.6748 15.1201C89.8619 14.995 90.0678 14.9325 90.2986 14.9325C90.7789 14.9325 91.253 15.1263 91.7271 15.5141L92.5879 13.7505C91.7333 13.2814 90.8475 13.0438 89.9493 13.0438C89.051 13.0438 88.3461 13.3565 87.8034 13.9819C87.348 14.5134 87.1172 15.2139 87.1172 15.9894C87.1172 16.7649 87.3356 17.3465 87.7785 17.728C87.9344 17.8593 88.1215 17.9719 88.3399 18.0719C88.4771 18.1345 88.814 18.247 89.3504 18.4159C89.7933 18.5472 90.1052 18.6785 90.2923 18.8099C90.5481 18.9787 90.6729 19.1976 90.6729 19.454C90.6729 19.7355 90.5543 19.9543 90.3298 20.1107C90.1364 20.2483 89.8994 20.3171 89.6186 20.3171C88.9949 20.3171 88.3586 20.0106 87.7098 19.3915L86.7866 21.2176C87.6724 21.8743 88.6331 22.2058 89.681 22.2058C90.1801 22.2058 90.6417 22.1245 91.0721 21.9681C92.301 21.5178 92.9185 20.561 92.9185 19.0788C92.9185 18.5034 92.775 18.0344 92.4943 17.6654C92.17 17.2402 91.6273 16.9024 90.86 16.671L90.8725 16.6773ZM106.006 18.172C106.224 18.5535 106.336 18.9912 106.336 19.4916C106.336 20.142 106.162 20.6735 105.806 21.0801C105.295 21.6679 104.515 21.9681 103.461 21.9681H99.9986V13.2439H103.217C104.777 13.2439 105.563 14.0006 105.563 15.5203C105.563 15.9769 105.476 16.3583 105.307 16.6648C105.164 16.9275 104.945 17.1463 104.652 17.3277C105.313 17.4715 105.769 17.753 106.012 18.1657L106.006 18.172ZM102.163 16.6836H102.556C102.93 16.6836 103.192 16.5897 103.355 16.3959C103.486 16.2395 103.548 16.0519 103.548 15.8268C103.548 15.4328 103.38 15.1701 103.036 15.0388C102.918 14.995 102.756 14.9762 102.556 14.9762H102.163V16.6836ZM104.178 19.3477H104.172C104.172 18.8349 103.922 18.5347 103.423 18.4472C103.267 18.4221 102.993 18.4096 102.612 18.4096H102.169V20.2483H102.65C103.199 20.2483 103.585 20.1795 103.804 20.0482C104.053 19.8918 104.178 19.6604 104.178 19.3477ZM116.092 13.2439H113.928V17.9656C113.928 18.7786 113.828 19.3352 113.628 19.6166C113.36 20.0044 112.961 20.1983 112.437 20.1983C112.206 20.1983 111.988 20.1545 111.795 20.0544C111.32 19.823 111.058 19.404 111.021 18.8161C111.009 18.6285 111.002 18.3408 111.002 17.9656V13.2439H108.838V18.272C108.838 18.9162 108.888 19.4353 108.975 19.8168C109.1 20.3609 109.337 20.8111 109.674 21.1676C110.316 21.843 111.233 22.187 112.368 22.187C113.504 22.187 114.396 21.8555 115.076 21.1864C115.55 20.7173 115.849 20.192 115.974 19.6166C116.055 19.2477 116.099 18.8036 116.099 18.2783V13.2439H116.092ZM122.106 15.6329L120.534 13.2502H117.945L120.958 17.7842V21.9744H123.123V17.7842L126.235 13.2502H123.622L122.112 15.6329H122.106ZM131.793 16.6773C131.182 16.4834 130.814 16.3521 130.696 16.277C130.421 16.1144 130.284 15.9206 130.284 15.6829C130.284 15.4453 130.39 15.2577 130.596 15.1201C130.783 14.995 130.989 14.9325 131.219 14.9325C131.7 14.9325 132.174 15.1263 132.648 15.5141L133.509 13.7505C132.654 13.2814 131.768 13.0438 130.87 13.0438C129.972 13.0438 129.267 13.3565 128.724 13.9819C128.269 14.5134 128.038 15.2139 128.038 15.9894C128.038 16.7649 128.256 17.3465 128.699 17.728C128.855 17.8593 129.042 17.9719 129.261 18.0719C129.398 18.1345 129.735 18.247 130.271 18.4159C130.714 18.5472 131.026 18.6785 131.213 18.8099C131.469 18.9787 131.594 19.1976 131.594 19.454C131.594 19.7355 131.475 19.9543 131.251 20.1107C131.057 20.2483 130.82 20.3171 130.54 20.3171C129.916 20.3171 129.279 20.0106 128.631 19.3915L127.708 21.2176C128.593 21.8743 129.554 22.2058 130.602 22.2058C131.095 22.2058 131.556 22.1245 131.987 21.9681C133.216 21.5178 133.833 20.561 133.833 19.0788H133.839C133.839 18.5034 133.702 18.0344 133.421 17.6654C133.097 17.2402 132.554 16.9024 131.787 16.671L131.793 16.6773ZM146.197 16.621H143.078V13.2502H140.913V21.9744H143.078V18.3408H146.197V21.9744H148.361V13.2502H146.197V16.621ZM158.953 14.5197C159.702 15.414 160.076 16.4522 160.076 17.6467H160.07C160.07 18.8286 159.696 19.873 158.947 20.7674C158.093 21.7867 156.932 22.2933 155.466 22.2933C154 22.2933 152.846 21.7867 151.992 20.7674C151.237 19.873 150.869 18.8349 150.869 17.6467C150.869 17.1026 150.969 16.5522 151.175 15.9831C151.381 15.414 151.649 14.9262 151.992 14.526C152.846 13.5066 154.007 13 155.473 13C156.939 13 158.099 13.5128 158.953 14.526V14.5197ZM157.824 17.6404C157.824 17.0275 157.637 16.4959 157.263 16.0457C156.783 15.4703 156.184 15.1889 155.46 15.1889C154.961 15.1889 154.512 15.3327 154.113 15.6266C153.707 15.9206 153.427 16.3083 153.252 16.7961C153.158 17.0775 153.108 17.3527 153.108 17.6404C153.108 18.2283 153.296 18.7599 153.67 19.2226C154.131 19.798 154.73 20.0857 155.46 20.0857C156.19 20.0857 156.795 19.798 157.263 19.2289C157.637 18.7724 157.824 18.2408 157.824 17.6404ZM169.221 13.2502L167.443 17.9031L165.765 13.2502H163.619L162.203 21.9744H164.368L165.073 16.9525L166.988 21.9744H167.842L169.851 16.9525L170.462 21.9744H172.639L171.386 13.2502H169.221ZM175.116 21.9744H179.85V20.0857H177.274V18.5285H179.707V16.6398H177.274V15.1513H179.85V13.2627H175.116V21.9869V21.9744ZM187.698 17.6717C187.373 17.2464 186.831 16.9087 186.063 16.6773C185.452 16.4834 185.09 16.3521 184.966 16.277C184.691 16.1144 184.554 15.9206 184.554 15.6829C184.554 15.4453 184.66 15.2577 184.866 15.1201C185.053 14.995 185.259 14.9325 185.49 14.9325C185.97 14.9325 186.444 15.1263 186.918 15.5141L187.779 13.7505C186.924 13.2814 186.039 13.0438 185.14 13.0438C184.242 13.0438 183.537 13.3565 182.994 13.9819C182.539 14.5134 182.308 15.2139 182.308 15.9894C182.308 16.7649 182.527 17.3465 182.969 17.728C183.125 17.8593 183.313 17.9719 183.531 18.0719C183.668 18.1345 184.005 18.247 184.541 18.4159C184.984 18.5472 185.296 18.6785 185.483 18.8099C185.739 18.9787 185.864 19.1976 185.864 19.454C185.864 19.7355 185.752 19.9543 185.521 20.1107C185.327 20.2483 185.09 20.3171 184.81 20.3171C184.186 20.3171 183.55 20.0106 182.901 19.3915L181.978 21.2176C182.863 21.8743 183.824 22.2058 184.872 22.2058C185.365 22.2058 185.826 22.1245 186.257 21.9681C187.486 21.5178 188.103 20.561 188.103 19.0788H188.11C188.11 18.5034 187.972 18.0344 187.692 17.6654L187.698 17.6717Z" fill="white"/>
<path d="M24.6399 49.4059C38.2481 49.4059 49.2797 38.346 49.2797 24.7029C49.2797 11.0599 38.2481 0 24.6399 0C11.0316 0 0 11.0599 0 24.7029C0 38.346 11.0316 49.4059 24.6399 49.4059Z" fill="white"/>
<path d="M48.4128 24.7028C48.4128 37.7735 37.7771 48.3864 24.64 48.3864C11.5029 48.3864 0.867188 37.7735 0.867188 24.7028C0.867188 11.6322 11.5029 1.01929 24.64 1.01929C37.7771 1.01929 48.4128 11.6322 48.4128 24.7028Z" fill="white"/>
<path d="M0.929567 26.4414C0.885901 25.8661 0.867188 25.2845 0.867188 24.7028C0.867188 11.6322 11.5029 1.01929 24.64 1.01929C37.7771 1.01929 48.4128 11.6322 48.4128 24.7028C48.4128 24.7529 48.4128 24.7967 48.4128 24.8467L41.5573 12.9517L32.924 15.2782L32.8554 12.9517L31.4955 12.7454L29.5181 13.3582V16.1975L26.6237 16.9793H20.9658L20.3233 17.367L16.9548 21.9824L18.2274 20.2125H15.1334V18.2676L13.6612 17.6547L12.5197 18.3239V19.9311L7.36712 19.0931L5.49574 18.7866L0.923329 26.4352L0.929567 26.4414Z" fill="#86BFE2"/>
<path d="M48.4128 24.8468L41.5573 12.9519L32.924 15.2784L31.4955 17.0107V13.7149L29.5181 13.5085V16.1977L26.6237 16.9794H20.9658L17.2231 22.2077L16.9549 21.9825L18.2274 20.2127H15.1334V18.2677L13.6612 17.6548V21.4447L12.5197 19.9313L7.36713 19.0932L5.49575 18.7868L0.92334 26.4416C0.95453 26.9106 1.00443 27.3734 1.06681 27.8362L5.83884 19.85L14.2663 29.5498C18.664 29.0057 23.093 28.7368 27.5406 28.7368C28.127 28.7368 28.7009 28.7368 29.2685 28.7493L41.3265 14.2402L48.3442 26.4166C48.3816 25.8975 48.4003 25.3722 48.4066 24.8468H48.4128ZM24.8022 26.4729L19.0695 26.4228L19.0882 21.3759L21.6146 17.8425L25.3324 22.314H27.7153L24.7959 26.4729H24.8022Z" fill="#1E2058"/>
<path d="M46.8593 33.1458C40.01 31.8575 23.1551 29.6624 2.79443 34.0526C6.43115 42.4767 14.8399 48.3866 24.6397 48.3866C34.4395 48.3866 43.4471 42.0514 46.8593 33.1458Z" fill="#258B43"/>
<path d="M39.4611 23.2083H37.6833V25.4034H39.4611V23.2083ZM41.5945 23.2083H39.8167V25.4034H41.5945V23.2083ZM39.8167 22.8456H41.5945V22.5642C41.5945 21.5385 40.8147 20.7005 39.8167 20.6067V22.8456ZM41.5945 25.7599H39.8167V26.8293H41.5945V25.7599ZM39.4611 22.8456V20.6067C38.463 20.6942 37.6833 21.5385 37.6833 22.5642V22.8456H39.4611ZM39.4611 25.7599H37.6833V26.8293H39.4611V25.7599ZM6.35011 26.8356H4.99023V28.5179H6.35011V26.8356ZM7.97821 26.8356H6.61834V28.5179H7.97821V26.8356ZM6.61834 26.5604H7.97821V26.3478C7.97821 25.5598 7.37937 24.9156 6.61834 24.8468V26.5604ZM7.97821 28.7868H6.61834V29.6061H7.97821V28.7868ZM6.35011 26.5604V24.8468C5.58908 24.9156 4.99023 25.5598 4.99023 26.3478V26.5604H6.35011ZM6.35011 28.7868H4.99023V29.6061H6.35011V28.7868ZM21.4646 22.4141H20.5664V23.5273H21.4646V22.4141ZM22.5438 22.4141H21.6455V23.5273H22.5438V22.4141ZM21.6455 22.2327H22.5438V22.0889C22.5438 21.5698 22.1508 21.1445 21.6455 21.1007V22.2327ZM22.5438 23.7086H21.6455V24.2527H22.5438V23.7086ZM21.4646 22.2327V21.1007C20.9594 21.1445 20.5664 21.5698 20.5664 22.0889V22.2327H21.4646ZM21.4646 23.7086H20.5664V24.2527H21.4646V23.7086Z" fill="#1E2058"/>
<path d="M48.2755 27.2608C48.157 28.3802 47.9574 29.4809 47.6829 30.5503L46.7659 30.3189V27.2357L40.3658 16.0663L41.2828 14.9656L48.2755 27.2545V27.2608ZM1.1416 28.3364C1.19151 28.6429 1.24141 28.9493 1.30379 29.2558L6.31286 20.8755L5.88868 20.394L1.1416 28.3364Z" fill="#EBEBEB"/>
<path d="M20.9722 16.9794H26.63L30.6285 22.289L25.3387 22.314L20.9784 16.9794H20.9722ZM31.4956 17.0044V12.7393L29.5181 13.3521V16.1914L31.4956 16.9982V17.0044ZM48.3505 26.4166C48.3879 25.8975 48.4066 25.3784 48.4129 24.8468L41.9254 13.5835L41.339 14.2339L48.3567 26.4103L48.3505 26.4166ZM14.8902 29.4747C19.0509 28.9869 23.2365 28.7368 27.4409 28.7368L24.7898 26.4728L19.0945 26.2915V21.3947L18.4832 22.264L17.2107 22.2327L16.9612 21.9888L18.2337 20.2189H15.1397L13.6675 21.451L12.526 19.9375L5.5083 18.793L14.8964 29.4747H14.8902Z" fill="#CF9B2A"/>
</g>
<defs>
<clipPath id="clip0_136_896">
<rect width="194" height="50" fill="white"/>
</clipPath>
</defs>
</svg>
