<svg width="95" height="13" viewBox="0 0 95 13" fill="none" xmlns="http://www.w3.org/2000/svg">
<path d="M2.49361 12H0.243608L4.3402 0.363636H6.94247L11.0447 12H8.79474L5.68679 2.75H5.59588L2.49361 12ZM2.56747 7.4375H8.70384V9.13068H2.56747V7.4375ZM18.7138 3.5625C18.6607 3.06629 18.4373 2.67992 18.0433 2.40341C17.6532 2.12689 17.1456 1.98864 16.5206 1.98864C16.0812 1.98864 15.7043 2.05492 15.3899 2.1875C15.0755 2.32008 14.835 2.5 14.6683 2.72727C14.5017 2.95455 14.4164 3.21402 14.4126 3.50568C14.4126 3.74811 14.4676 3.95833 14.5774 4.13636C14.6911 4.31439 14.8445 4.46591 15.0376 4.59091C15.2308 4.71212 15.4448 4.81439 15.6797 4.89773C15.9145 4.98106 16.1513 5.05114 16.3899 5.10795L17.4808 5.38068C17.9202 5.48295 18.3426 5.62121 18.7479 5.79545C19.157 5.9697 19.5225 6.18939 19.8445 6.45455C20.1702 6.7197 20.4278 7.03977 20.6172 7.41477C20.8066 7.78977 20.9013 8.22917 20.9013 8.73295C20.9013 9.41477 20.727 10.0152 20.3786 10.5341C20.0301 11.0492 19.5263 11.4527 18.8672 11.7443C18.2119 12.0322 17.4183 12.1761 16.4865 12.1761C15.5812 12.1761 14.7952 12.036 14.1286 11.7557C13.4657 11.4754 12.9467 11.0663 12.5717 10.5284C12.2005 9.99053 11.9998 9.33523 11.9695 8.5625H14.0433C14.0736 8.9678 14.1986 9.30492 14.4183 9.57386C14.638 9.8428 14.924 10.0436 15.2763 10.1761C15.6323 10.3087 16.0301 10.375 16.4695 10.375C16.9278 10.375 17.3293 10.3068 17.674 10.1705C18.0225 10.0303 18.2952 9.83712 18.4922 9.59091C18.6892 9.34091 18.7895 9.04924 18.7933 8.71591C18.7895 8.41288 18.7005 8.16288 18.5263 7.96591C18.352 7.76515 18.1077 7.59848 17.7933 7.46591C17.4827 7.32955 17.1191 7.20833 16.7024 7.10227L15.3786 6.76136C14.4202 6.51515 13.6626 6.14205 13.1058 5.64205C12.5528 5.13826 12.2763 4.4697 12.2763 3.63636C12.2763 2.95076 12.4619 2.35038 12.8331 1.83523C13.2081 1.32008 13.7176 0.920454 14.3615 0.636363C15.0054 0.348484 15.7346 0.204545 16.549 0.204545C17.3748 0.204545 18.0982 0.348484 18.7195 0.636363C19.3445 0.920454 19.835 1.31629 20.1911 1.82386C20.5471 2.32765 20.7308 2.9072 20.7422 3.5625H18.7138ZM33.0732 3.5625C33.0201 3.06629 32.7966 2.67992 32.4027 2.40341C32.0125 2.12689 31.505 1.98864 30.88 1.98864C30.4406 1.98864 30.0637 2.05492 29.7493 2.1875C29.4349 2.32008 29.1944 2.5 29.0277 2.72727C28.861 2.95455 28.7758 3.21402 28.772 3.50568C28.772 3.74811 28.8269 3.95833 28.9368 4.13636C29.0504 4.31439 29.2038 4.46591 29.397 4.59091C29.5902 4.71212 29.8042 4.81439 30.0391 4.89773C30.2739 4.98106 30.5107 5.05114 30.7493 5.10795L31.8402 5.38068C32.2796 5.48295 32.7019 5.62121 33.1072 5.79545C33.5163 5.9697 33.8819 6.18939 34.2038 6.45455C34.5296 6.7197 34.7872 7.03977 34.9766 7.41477C35.166 7.78977 35.2607 8.22917 35.2607 8.73295C35.2607 9.41477 35.0864 10.0152 34.7379 10.5341C34.3894 11.0492 33.8857 11.4527 33.2266 11.7443C32.5713 12.0322 31.7777 12.1761 30.8459 12.1761C29.9406 12.1761 29.1546 12.036 28.4879 11.7557C27.825 11.4754 27.3061 11.0663 26.9311 10.5284C26.5599 9.99053 26.3591 9.33523 26.3288 8.5625H28.4027C28.433 8.9678 28.558 9.30492 28.7777 9.57386C28.9974 9.8428 29.2834 10.0436 29.6357 10.1761C29.9917 10.3087 30.3894 10.375 30.8288 10.375C31.2872 10.375 31.6887 10.3068 32.0334 10.1705C32.3819 10.0303 32.6546 9.83712 32.8516 9.59091C33.0485 9.34091 33.1489 9.04924 33.1527 8.71591C33.1489 8.41288 33.0599 8.16288 32.8857 7.96591C32.7114 7.76515 32.4671 7.59848 32.1527 7.46591C31.8421 7.32955 31.4785 7.20833 31.0618 7.10227L29.7379 6.76136C28.7796 6.51515 28.022 6.14205 27.4652 5.64205C26.9122 5.13826 26.6357 4.4697 26.6357 3.63636C26.6357 2.95076 26.8213 2.35038 27.1925 1.83523C27.5675 1.32008 28.0769 0.920454 28.7209 0.636363C29.3648 0.348484 30.094 0.204545 30.9084 0.204545C31.7341 0.204545 32.4576 0.348484 33.0788 0.636363C33.7038 0.920454 34.1944 1.31629 34.5504 1.82386C34.9065 2.32765 35.0902 2.9072 35.1016 3.5625H33.0732ZM37.1399 12V0.363636H44.7081V2.13068H39.2479V5.28977H44.3161V7.05682H39.2479V10.233H44.7536V12H37.1399ZM46.8587 12V0.363636H54.4268V2.13068H48.9666V5.28977H54.0348V7.05682H48.9666V10.233H54.4723V12H46.8587ZM66.1399 0.363636V12H64.2649L58.782 4.07386H58.6854V12H56.5774V0.363636H58.4638L63.9411 8.29545H64.0433V0.363636H66.1399ZM82.8033 6.18182C82.8033 7.43561 82.5684 8.50947 82.0987 9.40341C81.6328 10.2936 80.9964 10.9754 80.1896 11.4489C79.3866 11.9223 78.4756 12.1591 77.4567 12.1591C76.4377 12.1591 75.5249 11.9223 74.718 11.4489C73.915 10.9716 73.2786 10.2879 72.8089 9.39773C72.343 8.50379 72.1101 7.43182 72.1101 6.18182C72.1101 4.92803 72.343 3.85606 72.8089 2.96591C73.2786 2.07197 73.915 1.38826 74.718 0.914772C75.5249 0.441287 76.4377 0.204545 77.4567 0.204545C78.4756 0.204545 79.3866 0.441287 80.1896 0.914772C80.9964 1.38826 81.6328 2.07197 82.0987 2.96591C82.5684 3.85606 82.8033 4.92803 82.8033 6.18182ZM80.6839 6.18182C80.6839 5.29924 80.5457 4.55492 80.2692 3.94886C79.9964 3.33902 79.6177 2.87879 79.1328 2.56818C78.648 2.25379 78.0893 2.09659 77.4567 2.09659C76.8241 2.09659 76.2654 2.25379 75.7805 2.56818C75.2957 2.87879 74.915 3.33902 74.6385 3.94886C74.3658 4.55492 74.2294 5.29924 74.2294 6.18182C74.2294 7.06439 74.3658 7.81061 74.6385 8.42045C74.915 9.02652 75.2957 9.48674 75.7805 9.80114C76.2654 10.1117 76.8241 10.267 77.4567 10.267C78.0893 10.267 78.648 10.1117 79.1328 9.80114C79.6177 9.48674 79.9964 9.02652 80.2692 8.42045C80.5457 7.81061 80.6839 7.06439 80.6839 6.18182ZM94.3587 0.363636V12H92.4837L87.0007 4.07386H86.9041V12H84.7962V0.363636H86.6825L92.1598 8.29545H92.2621V0.363636H94.3587Z" fill="white"/>
</svg>
