<svg width="71" height="31" viewBox="0 0 71 31" fill="none" xmlns="http://www.w3.org/2000/svg">
<g id="katman_1" clip-path="url(#clip0_1068_2249)">
<path id="Vector" d="M19.1683 8.90127H8.97886C8.93659 10.1472 8.97104 11.5258 8.96008 12.7794C11.7141 12.8025 14.5089 12.7825 17.2817 12.7871V20.9181C14.4901 20.9258 11.675 20.9073 8.89901 20.9258C8.90214 24.1517 8.9178 27.3159 8.9178 30.5417C8.9178 30.5525 8.91467 30.5572 8.90997 30.5602H0.416126C0.400469 30.5633 0.400469 30.5525 0.389509 30.5525C0.370721 20.6498 0.370721 10.6823 0.386378 0.776458C0.386378 0.765664 0.386378 0.750244 0.394206 0.750244H18.5906C18.6016 0.750244 18.6063 0.750244 18.6094 0.757954C18.8004 3.47034 18.9836 6.1858 19.1683 8.90127ZM70.5166 30.5094H60.9252C60.8375 30.5094 60.6763 30.1285 60.6293 30.0483C59.3094 27.7029 57.9911 25.3467 56.6791 23.0044C55.2762 25.4978 53.9109 28.0314 52.5112 30.5279C49.3704 30.5356 46.2563 30.5124 43.1421 30.5202C43.4944 29.871 43.8702 29.2357 44.2459 28.5973C46.8653 24.1409 49.4456 19.6228 52.0697 15.1633C49.2812 10.3662 46.452 5.60755 43.6479 0.822718C43.64 0.822718 43.6212 0.791878 43.64 0.796504H53.2768C54.4621 2.91984 55.616 5.06785 56.7824 7.20507C57.9942 5.08636 59.1638 2.92601 60.3647 0.796504H69.679C69.6868 0.833512 69.6602 0.875146 69.6414 0.905986C66.9218 5.61218 64.138 10.3322 61.4231 15.0462C64.4417 20.2057 67.5183 25.3606 70.5166 30.5094ZM47.2317 12.3276C47.4775 13.3099 47.6184 14.3893 47.6184 15.5273C47.6184 19.0739 46.5757 21.703 45.1259 23.8402C44.8801 24.2026 44.6311 24.5495 44.3634 24.8826C43.5774 25.8648 42.6255 26.7592 41.5639 27.504C40.85 28.0021 40.1063 28.4554 39.2827 28.8378C37.6419 29.5965 35.6582 30.1902 33.3738 30.1902C29.7994 30.1902 27.1612 29.1169 25.0256 27.6443C22.89 26.1671 21.2257 24.2149 20.0937 21.7523C19.3343 20.1024 18.8364 18.198 18.7785 15.8788C18.7519 14.73 18.8975 13.5982 19.1089 12.616C19.6459 10.138 20.6996 8.19658 22.0351 6.5235C23.3691 4.85351 25.0616 3.54744 27.1048 2.5621C27.9064 2.1766 28.8036 1.84815 29.7821 1.61068C30.7607 1.37321 31.841 1.20976 33.0106 1.20976H33.0294C34.1723 1.15733 35.3842 1.33775 36.3345 1.54592C37.324 1.7618 38.24 2.09024 39.0573 2.45262C41.589 3.57828 43.4756 5.26214 44.9943 7.36698C45.9933 8.74244 46.7448 10.397 47.2317 12.3276ZM35.727 22.1702C35.8194 21.8078 35.7928 21.3437 35.7928 20.8641V9.94983C35.7928 9.48106 35.7396 9.11869 35.6018 8.77945C35.475 8.46951 35.2793 8.18578 35.0491 7.95602C34.5998 7.5073 33.9249 7.10175 33.0779 7.16652C32.6677 7.19736 32.3264 7.32534 32.0273 7.51038C31.4715 7.85734 31.0488 8.39087 30.8766 9.09711C30.7889 9.45639 30.792 9.91282 30.792 10.3847V21.299C30.792 21.5334 30.781 21.76 30.8108 21.9605C30.8906 22.5341 31.1521 22.9952 31.4934 23.339C31.935 23.7816 32.6176 24.1517 33.4991 24.0561C34.6373 23.9327 35.4734 23.1895 35.727 22.1702Z" fill="white"/>
</g>
<defs>
<clipPath id="clip0_1068_2249">
<rect width="70.1412" height="29.81" fill="white" transform="translate(0.375 0.750244)"/>
</clipPath>
</defs>
</svg>
