<svg width="16" height="10" viewBox="0 0 16 10" fill="none" xmlns="http://www.w3.org/2000/svg">
<path d="M15 5.625L15.625 5.625L15.625 4.375L15 4.375L15 5.625ZM0.320771 4.55806C0.0766933 4.80213 0.0766933 5.19786 0.320771 5.44194L4.29825 9.41942C4.54232 9.66349 4.93805 9.66349 5.18213 9.41942C5.42621 9.17534 5.42621 8.77961 5.18213 8.53553L1.6466 5L5.18213 1.46447C5.42621 1.22039 5.42621 0.824659 5.18213 0.580582C4.93805 0.336504 4.54232 0.336504 4.29825 0.580582L0.320771 4.55806ZM15 4.375L0.762713 4.375L0.762713 5.625L15 5.625L15 4.375Z" fill="#004C8D"/>
</svg>
