<svg width="16" height="10" viewBox="0 0 16 10" fill="none" xmlns="http://www.w3.org/2000/svg">
<path d="M1 5.625L0.375 5.625L0.375 4.375L1 4.375L1 5.625ZM15.6792 4.55806C15.9233 4.80213 15.9233 5.19786 15.6792 5.44194L11.7018 9.41942C11.4577 9.66349 11.0619 9.66349 10.8179 9.41942C10.5738 9.17534 10.5738 8.77961 10.8179 8.53553L14.3534 5L10.8179 1.46447C10.5738 1.22039 10.5738 0.824659 10.8179 0.580582C11.0619 0.336504 11.4577 0.336504 11.7018 0.580582L15.6792 4.55806ZM1 4.375L15.2373 4.375L15.2373 5.625L1 5.625L1 4.375Z" fill="#004C8D"/>
</svg>
