<svg width="96" height="88" viewBox="0 0 96 88" fill="none" xmlns="http://www.w3.org/2000/svg">
<mask id="path-1-inside-1_370_3351" fill="white">
<path d="M89.6654 16.9167H70.9154V10.6667C70.9121 7.90499 69.8136 5.25736 67.8608 3.30456C65.908 1.35177 63.2604 0.253253 60.4987 0.25H35.4987C32.737 0.253253 30.0894 1.35177 28.1366 3.30456C26.1838 5.25736 25.0853 7.90499 25.082 10.6667V16.9167H6.33203C4.67499 16.9185 3.08633 17.5776 1.91462 18.7493C0.742916 19.921 0.083851 21.5096 0.0820312 23.1667V39.8333C0.0843539 40.7074 0.271118 41.5712 0.630115 42.3682C0.989113 43.1651 1.51226 43.8774 2.16536 44.4583V81.5C2.16718 83.157 2.82625 84.7457 3.99796 85.9174C5.16967 87.0891 6.75832 87.7482 8.41537 87.75H87.582C89.2391 87.7482 90.8277 87.0891 91.9995 85.9174C93.1712 84.7457 93.8302 83.157 93.832 81.5V44.4583C94.4851 43.8774 95.0083 43.1651 95.3673 42.3682C95.7263 41.5712 95.913 40.7074 95.9154 39.8333V23.1667C95.9136 21.5096 95.2545 19.921 94.0828 18.7493C92.9111 17.5776 91.3224 16.9185 89.6654 16.9167ZM29.2487 10.6667C29.2505 9.00962 29.9096 7.42097 31.0813 6.24926C32.253 5.07755 33.8417 4.41849 35.4987 4.41667H60.4987C62.1557 4.41849 63.7444 5.07755 64.9161 6.24926C66.0878 7.42097 66.7469 9.00962 66.7487 10.6667V16.9167H62.582V10.6667C62.582 10.1141 62.3625 9.58423 61.9718 9.19353C61.5811 8.80283 61.0512 8.58333 60.4987 8.58333H35.4987C34.9462 8.58333 34.4163 8.80283 34.0256 9.19353C33.6349 9.58423 33.4154 10.1141 33.4154 10.6667V16.9167H29.2487V10.6667ZM37.582 16.9167V12.75H58.4154V16.9167H37.582ZM4.2487 23.1667C4.24941 22.6144 4.46914 22.0849 4.85968 21.6943C5.25023 21.3038 5.77972 21.084 6.33203 21.0833H89.6654C90.2177 21.084 90.7472 21.3038 91.1377 21.6943C91.5283 22.0849 91.748 22.6144 91.7487 23.1667V39.8333C91.748 40.3856 91.5283 40.9151 91.1377 41.3057C90.7472 41.6962 90.2177 41.9159 89.6654 41.9167H83.4154V39.8333C83.4143 38.7286 82.9749 37.6694 82.1938 36.8883C81.4126 36.1071 80.3534 35.6678 79.2487 35.6667H75.082C73.9773 35.6678 72.9181 36.1071 72.137 36.8883C71.3558 37.6694 70.9165 38.7286 70.9154 39.8333V41.9167H25.082V39.8333C25.0809 38.7286 24.6416 37.6694 23.8604 36.8883C23.0793 36.1071 22.0201 35.6678 20.9154 35.6667H16.7487C15.644 35.6678 14.5848 36.1071 13.8036 36.8883C13.0225 37.6694 12.5831 38.7286 12.582 39.8333V41.9167H6.33203C5.77972 41.9159 5.25023 41.6962 4.85968 41.3057C4.46914 40.9151 4.24941 40.3856 4.2487 39.8333V23.1667ZM79.2518 48.1667H75.082V39.8333H79.2487L79.2502 43.9925L79.2487 44L79.2502 44.0077L79.2518 48.1667ZM20.9185 48.1667H16.7487V39.8333H20.9154L20.9168 43.9925L20.9154 44L20.9168 44.0077L20.9185 48.1667ZM89.6654 81.5C89.6647 82.0523 89.4449 82.5818 89.0544 82.9723C88.6638 83.3629 88.1344 83.5826 87.582 83.5833H8.41537C7.86305 83.5826 7.33356 83.3629 6.94302 82.9723C6.55247 82.5818 6.33275 82.0523 6.33203 81.5V46.0833H12.582V48.1667C12.5831 49.2714 13.0225 50.3306 13.8036 51.1117C14.5848 51.8929 15.644 52.3322 16.7487 52.3333H20.9154C22.0201 52.3322 23.0793 51.8929 23.8604 51.1117C24.6416 50.3306 25.0809 49.2714 25.082 48.1667V46.0833H70.9154V48.1667C70.9165 49.2714 71.3558 50.3306 72.137 51.1117C72.9181 51.8929 73.9773 52.3322 75.082 52.3333H79.2487C80.3534 52.3322 81.4126 51.8929 82.1938 51.1117C82.9749 50.3306 83.4143 49.2714 83.4154 48.1667V46.0833H89.6654V81.5Z"/>
</mask>
<path d="M89.6654 16.9167H70.9154V10.6667C70.9121 7.90499 69.8136 5.25736 67.8608 3.30456C65.908 1.35177 63.2604 0.253253 60.4987 0.25H35.4987C32.737 0.253253 30.0894 1.35177 28.1366 3.30456C26.1838 5.25736 25.0853 7.90499 25.082 10.6667V16.9167H6.33203C4.67499 16.9185 3.08633 17.5776 1.91462 18.7493C0.742916 19.921 0.083851 21.5096 0.0820312 23.1667V39.8333C0.0843539 40.7074 0.271118 41.5712 0.630115 42.3682C0.989113 43.1651 1.51226 43.8774 2.16536 44.4583V81.5C2.16718 83.157 2.82625 84.7457 3.99796 85.9174C5.16967 87.0891 6.75832 87.7482 8.41537 87.75H87.582C89.2391 87.7482 90.8277 87.0891 91.9995 85.9174C93.1712 84.7457 93.8302 83.157 93.832 81.5V44.4583C94.4851 43.8774 95.0083 43.1651 95.3673 42.3682C95.7263 41.5712 95.913 40.7074 95.9154 39.8333V23.1667C95.9136 21.5096 95.2545 19.921 94.0828 18.7493C92.9111 17.5776 91.3224 16.9185 89.6654 16.9167ZM29.2487 10.6667C29.2505 9.00962 29.9096 7.42097 31.0813 6.24926C32.253 5.07755 33.8417 4.41849 35.4987 4.41667H60.4987C62.1557 4.41849 63.7444 5.07755 64.9161 6.24926C66.0878 7.42097 66.7469 9.00962 66.7487 10.6667V16.9167H62.582V10.6667C62.582 10.1141 62.3625 9.58423 61.9718 9.19353C61.5811 8.80283 61.0512 8.58333 60.4987 8.58333H35.4987C34.9462 8.58333 34.4163 8.80283 34.0256 9.19353C33.6349 9.58423 33.4154 10.1141 33.4154 10.6667V16.9167H29.2487V10.6667ZM37.582 16.9167V12.75H58.4154V16.9167H37.582ZM4.2487 23.1667C4.24941 22.6144 4.46914 22.0849 4.85968 21.6943C5.25023 21.3038 5.77972 21.084 6.33203 21.0833H89.6654C90.2177 21.084 90.7472 21.3038 91.1377 21.6943C91.5283 22.0849 91.748 22.6144 91.7487 23.1667V39.8333C91.748 40.3856 91.5283 40.9151 91.1377 41.3057C90.7472 41.6962 90.2177 41.9159 89.6654 41.9167H83.4154V39.8333C83.4143 38.7286 82.9749 37.6694 82.1938 36.8883C81.4126 36.1071 80.3534 35.6678 79.2487 35.6667H75.082C73.9773 35.6678 72.9181 36.1071 72.137 36.8883C71.3558 37.6694 70.9165 38.7286 70.9154 39.8333V41.9167H25.082V39.8333C25.0809 38.7286 24.6416 37.6694 23.8604 36.8883C23.0793 36.1071 22.0201 35.6678 20.9154 35.6667H16.7487C15.644 35.6678 14.5848 36.1071 13.8036 36.8883C13.0225 37.6694 12.5831 38.7286 12.582 39.8333V41.9167H6.33203C5.77972 41.9159 5.25023 41.6962 4.85968 41.3057C4.46914 40.9151 4.24941 40.3856 4.2487 39.8333V23.1667ZM79.2518 48.1667H75.082V39.8333H79.2487L79.2502 43.9925L79.2487 44L79.2502 44.0077L79.2518 48.1667ZM20.9185 48.1667H16.7487V39.8333H20.9154L20.9168 43.9925L20.9154 44L20.9168 44.0077L20.9185 48.1667ZM89.6654 81.5C89.6647 82.0523 89.4449 82.5818 89.0544 82.9723C88.6638 83.3629 88.1344 83.5826 87.582 83.5833H8.41537C7.86305 83.5826 7.33356 83.3629 6.94302 82.9723C6.55247 82.5818 6.33275 82.0523 6.33203 81.5V46.0833H12.582V48.1667C12.5831 49.2714 13.0225 50.3306 13.8036 51.1117C14.5848 51.8929 15.644 52.3322 16.7487 52.3333H20.9154C22.0201 52.3322 23.0793 51.8929 23.8604 51.1117C24.6416 50.3306 25.0809 49.2714 25.082 48.1667V46.0833H70.9154V48.1667C70.9165 49.2714 71.3558 50.3306 72.137 51.1117C72.9181 51.8929 73.9773 52.3322 75.082 52.3333H79.2487C80.3534 52.3322 81.4126 51.8929 82.1938 51.1117C82.9749 50.3306 83.4143 49.2714 83.4154 48.1667V46.0833H89.6654V81.5Z" fill="#004C8D" stroke="white" stroke-width="2" mask="url(#path-1-inside-1_370_3351)"/>
</svg>
