<svg width="101" height="100" viewBox="0 0 101 100" fill="none" xmlns="http://www.w3.org/2000/svg">
<mask id="mask0_370_3354" style="mask-type:luminance" maskUnits="userSpaceOnUse" x="0" y="0" width="101" height="100">
<path d="M0.5 7.62939e-06H100.5V100H0.5V7.62939e-06Z" fill="white"/>
</mask>
<g mask="url(#mask0_370_3354)">
<path d="M44.7705 17.8604C43.5002 16.0494 40.8098 13.2934 36.4135 13.7844C32.69 14.2002 29.9123 13.0053 28.1484 11.8225" stroke="#004C8D" stroke-width="2" stroke-miterlimit="10" stroke-linecap="round" stroke-linejoin="round"/>
<path d="M44.3893 19.7768C44.3893 19.7768 34.0221 19.0314 30.1562 25.6387" stroke="#004C8D" stroke-width="2" stroke-miterlimit="10" stroke-linecap="round" stroke-linejoin="round"/>
<path d="M63.5725 22.9521C58.004 24.3583 52.5028 24.3585 46.9333 22.9521C44.9948 22.4624 43.896 20.2827 44.5936 18.3013C44.6014 18.2792 44.6092 18.2572 44.6169 18.2351C45.2018 16.5738 46.8606 15.6415 48.4864 16.0497C53.046 17.1945 57.4585 17.1948 62.0194 16.0497C63.6452 15.6415 65.304 16.574 65.8887 18.2351C65.8966 18.2572 65.9044 18.2792 65.9122 18.3015C66.6098 20.2829 65.511 22.4624 63.5725 22.9521Z" stroke="#004C8D" stroke-width="2" stroke-miterlimit="10" stroke-linecap="round" stroke-linejoin="round"/>
<path d="M63.5685 16.0566C66.1963 12.241 70.5955 5.08828 68.6138 2.52227C67.6746 1.30645 66.8738 2.95781 64.9314 2.95781C62.6492 2.95781 62.6492 1.46465 60.3672 1.46465C58.0853 1.46465 58.0853 2.95781 55.8033 2.95781C53.5217 2.95781 53.5217 1.46465 51.2398 1.46465C48.958 1.46465 48.958 2.95781 46.6763 2.95781C44.7318 2.95781 43.9342 1.28496 42.9888 2.50156C41.0217 5.03359 45.2652 12.1107 47.8584 15.9582" stroke="#004C8D" stroke-width="2" stroke-miterlimit="10" stroke-linecap="round" stroke-linejoin="round"/>
<path d="M71.65 26.0469C69.8297 24.4252 67.8475 22.8211 65.6953 21.2428" stroke="#004C8D" stroke-width="2" stroke-miterlimit="10" stroke-linecap="round" stroke-linejoin="round"/>
<path d="M45.1145 21.7291C27.002 35.2922 21.3409 50.7314 23.1874 62.748" stroke="#004C8D" stroke-width="2" stroke-miterlimit="10" stroke-linecap="round" stroke-linejoin="round"/>
<path d="M84.091 73.7305C91.315 63.5754 91.142 46.777 76.5391 30.8482" stroke="#004C8D" stroke-width="2" stroke-miterlimit="10" stroke-linecap="round" stroke-linejoin="round"/>
<path d="M61.4383 74.0668L61.4375 74.1709L61.5064 74.1406C61.484 74.1156 61.4609 74.0914 61.4383 74.0668Z" fill="#FFDDCE"/>
<path d="M46.8281 82.8418H63.3943" stroke="#004C8D" stroke-width="2" stroke-miterlimit="10" stroke-linecap="round" stroke-linejoin="round"/>
<path d="M15.7773 91.3266L32.4211 97.5215C34.2221 98.1918 36.1285 98.5352 38.0504 98.5352H59.9057C62.9641 98.5352 65.9596 97.666 68.5432 96.0289L95.908 78.6891C97.7133 77.0859 98.048 74.3916 96.6896 72.3955C95.2037 70.2115 92.7451 69.8318 90.04 71.1109L63.3975 82.842L63.4291 78.5193C63.0762 74.9715 60.3445 72.124 56.8141 71.6244L40.5896 69.7566C36.8471 69.227 34.9768 67.9729 31.7141 66.0641C27.2596 63.4582 22.192 62.085 17.0313 62.085H15.7773" stroke="#004C8D" stroke-width="2" stroke-miterlimit="10" stroke-linecap="round" stroke-linejoin="round"/>
<path d="M15.7766 74.534V93.8516C15.7766 95.3902 14.5293 96.6377 12.9906 96.6377H6.2666C4.72793 96.6377 3.48047 95.3902 3.48047 93.8516V59.7375C3.48047 58.1988 4.72793 56.9518 6.2666 56.9518H12.9906C14.5293 56.9518 15.7766 58.1988 15.7766 59.7375V67.6863" stroke="#004C8D" stroke-width="2" stroke-miterlimit="10" stroke-linecap="round" stroke-linejoin="round"/>
<path d="M60.9336 37.0031C60.9336 37.0031 58.0109 34.3074 53.5059 35.6644C49.3693 36.9105 48.342 42.5706 51.1529 44.7753C52.767 46.0411 55.1957 47.0822 58.4689 48.2392C65.7947 50.8286 63.0865 61.1601 55.6348 61.2097C52.7266 61.2288 51.3672 61.0445 48.8125 59.3732" stroke="#004C8D" stroke-width="2" stroke-miterlimit="10" stroke-linecap="round" stroke-linejoin="round"/>
<path d="M55.6367 31.7949V64.9805" stroke="#004C8D" stroke-width="2" stroke-miterlimit="10" stroke-linecap="round" stroke-linejoin="round"/>
</g>
</svg>
