<svg width="50" height="50" viewBox="0 0 50 50" fill="none" xmlns="http://www.w3.org/2000/svg">
<g clip-path="url(#clip0_10_135)">
<path d="M49.6584 29.855C49.4783 29.5617 49.1653 29.3865 48.8211 29.3865H48.6467L41.5893 13.8383H43.2415C44.3489 13.8383 45.2499 12.9373 45.2499 11.8299C45.2499 10.7224 44.3489 9.82147 43.2415 9.82147H27.1732V7.17694C28.2244 6.47342 28.9183 5.27558 28.9183 3.91835C28.9183 1.75781 27.1605 0 24.9999 0C22.8394 0 21.0816 1.75781 21.0816 3.91835C21.0816 5.27558 21.7753 6.47342 22.8267 7.17694V9.82137H6.75828C5.65076 9.82137 4.74988 10.7223 4.74988 11.8298C4.74988 12.9372 5.65086 13.8382 6.75828 13.8382H8.41052L1.35311 29.3864H1.1787C0.834462 29.3864 0.521474 29.5616 0.341397 29.8549C0.161319 30.1483 0.146866 30.5068 0.302823 30.8139L1.57841 33.3245C2.07225 34.2967 3.05653 34.9007 4.14705 34.9007H15.4325C16.523 34.9007 17.5072 34.2968 18.0011 33.3245L19.2766 30.8141C19.4327 30.5072 19.4183 30.1488 19.2383 29.8552C19.0583 29.5618 18.7452 29.3865 18.4008 29.3865H18.2265L11.1691 13.8383H22.8266V41.2464H17.5271C16.2261 41.2464 15.1677 42.3048 15.1677 43.6058V44.8883H13.9942C12.6932 44.8883 11.6348 45.9467 11.6348 47.2476V49.265C11.6348 49.6709 11.9638 50 12.3698 50H37.63C38.036 50 38.365 49.671 38.365 49.265V47.2476C38.365 45.9467 37.3066 44.8883 36.0056 44.8883H34.8321V43.6058C34.8321 42.3048 33.7737 41.2464 32.4727 41.2464H27.1732V20.0226C27.1732 19.6168 26.8442 19.2877 26.4382 19.2877C26.0323 19.2877 25.7033 19.6167 25.7033 20.0226V41.2463H24.2963V13.1033C24.2963 12.6974 23.9673 12.3683 23.5614 12.3683H6.75828C6.46131 12.3683 6.21971 12.1267 6.21971 11.8298C6.21971 11.5328 6.46131 11.2912 6.75828 11.2912H23.5615C23.9674 11.2912 24.2964 10.9622 24.2964 10.5562V7.77411C24.3239 7.77909 24.3516 7.7828 24.3792 7.78719C24.3933 7.78944 24.4073 7.79178 24.4212 7.79383C24.4684 7.80077 24.5159 7.80672 24.5634 7.812C24.581 7.81395 24.5986 7.8162 24.6163 7.81786C24.661 7.82215 24.7059 7.82528 24.7508 7.82811C24.7705 7.82938 24.7902 7.83114 24.81 7.83202C24.866 7.83465 24.922 7.83592 24.9781 7.83631C24.9854 7.83631 24.9925 7.8369 24.9998 7.8369C25.0072 7.8369 25.0144 7.83641 25.0216 7.83631C25.0777 7.83602 25.1337 7.83475 25.1897 7.83202C25.2095 7.83104 25.2291 7.82928 25.2489 7.82811C25.2938 7.82528 25.3387 7.82215 25.3834 7.81786C25.4011 7.8161 25.4187 7.81395 25.4364 7.812C25.4839 7.80672 25.5313 7.80086 25.5785 7.79393C25.5925 7.79188 25.6065 7.78954 25.6205 7.78729C25.648 7.7829 25.6758 7.77918 25.7033 7.7742V10.5563C25.7033 10.9622 26.0323 11.2913 26.4382 11.2913H43.2414C43.5384 11.2913 43.78 11.5329 43.78 11.8299C43.78 12.1268 43.5384 12.3684 43.2414 12.3684H26.4383C26.0324 12.3684 25.7034 12.6974 25.7034 13.1034V16.5387C25.7034 16.9446 26.0324 17.2737 26.4383 17.2737C26.8443 17.2737 27.1733 16.9447 27.1733 16.5387V13.8383H38.8308L31.7734 29.3864H31.5991C31.2547 29.3864 30.9416 29.5617 30.7616 29.8551C30.5816 30.1487 30.5672 30.5072 30.7232 30.8139L31.9988 33.3245C32.4926 34.2967 33.4769 34.9007 34.5674 34.9007H45.8528C46.9434 34.9007 47.9275 34.2968 48.4215 33.3245L49.6972 30.8138C49.853 30.5069 49.8386 30.1484 49.6584 29.855ZM32.4728 42.7162C32.9632 42.7162 33.3622 43.1152 33.3622 43.6057V44.8882H22.1169C21.711 44.8882 21.382 45.2172 21.382 45.6232C21.382 46.029 21.711 46.3581 22.1169 46.3581H36.0056C36.496 46.3581 36.895 46.7571 36.895 47.2476V48.5301H13.1048V47.2476C13.1048 46.7571 13.5038 46.3581 13.9942 46.3581H18.706C19.112 46.3581 19.441 46.0291 19.441 45.6232C19.441 45.2173 19.112 44.8882 18.706 44.8882H16.6376V43.6057C16.6376 43.1152 17.0366 42.7162 17.527 42.7162H32.4728ZM16.6907 32.6588C16.4488 33.135 15.9667 33.4308 15.4325 33.4308H4.14715C3.61297 33.4308 3.13084 33.135 2.88895 32.6588L1.97313 30.8563H17.6065L16.6907 32.6588ZM16.6212 29.3864H2.95848L9.78982 14.3362L16.6212 29.3864ZM26.086 6.1121C26.0592 6.12538 26.0322 6.13798 26.0051 6.15028C25.9913 6.15653 25.9777 6.16307 25.9637 6.16903C25.933 6.18221 25.9021 6.19442 25.871 6.20634C25.8472 6.21542 25.8231 6.22411 25.7989 6.23251C25.7734 6.24139 25.7478 6.25028 25.722 6.25829C25.6986 6.26552 25.6747 6.27196 25.651 6.2785C25.633 6.28348 25.6151 6.28856 25.5969 6.29315C25.5724 6.2993 25.5476 6.30487 25.5228 6.31034C25.5046 6.31425 25.4865 6.31815 25.4683 6.32167C25.444 6.32636 25.4197 6.33075 25.3951 6.33475C25.3748 6.33807 25.3545 6.34091 25.3342 6.34364C25.3116 6.34677 25.2889 6.34989 25.2661 6.35233C25.2408 6.35507 25.2152 6.35702 25.1897 6.35897C25.1713 6.36044 25.1531 6.36219 25.1347 6.36317C25.09 6.36561 25.0452 6.36708 25 6.36708C24.9549 6.36708 24.91 6.36561 24.8654 6.36317C24.8469 6.36219 24.8287 6.36044 24.8104 6.35897C24.7849 6.35702 24.7594 6.35507 24.734 6.35233C24.7112 6.34989 24.6885 6.34677 24.6659 6.34364C24.6455 6.34091 24.6252 6.33798 24.605 6.33475C24.5805 6.33075 24.5561 6.32636 24.5318 6.32167C24.5135 6.31815 24.4954 6.31425 24.4773 6.31034C24.4525 6.30497 24.4277 6.2994 24.4032 6.29315C24.3851 6.28856 24.3671 6.28348 24.3491 6.2785C24.3253 6.27196 24.3015 6.26552 24.2781 6.25829C24.2523 6.25028 24.2268 6.24139 24.2012 6.23251C24.177 6.22411 24.1529 6.21552 24.129 6.20634C24.098 6.19442 24.067 6.18221 24.0364 6.16903C24.0224 6.16307 24.0087 6.15653 23.995 6.15028C23.9679 6.13798 23.9409 6.12548 23.9141 6.1121C23.1075 5.71112 22.5516 4.8786 22.5516 3.91835C22.5516 2.56826 23.6499 1.46982 25.0001 1.46982C26.3503 1.46982 27.4487 2.56826 27.4487 3.91835C27.4485 4.8786 26.8927 5.71112 26.086 6.1121ZM40.2101 14.3362L47.0414 29.3864H33.3786L40.2101 14.3362ZM47.1109 32.6588C46.869 33.135 46.3869 33.4308 45.8527 33.4308H34.5673C34.0331 33.4308 33.551 33.135 33.3091 32.6588L32.3933 30.8563H48.0267L47.1109 32.6588Z" fill="white"/>
</g>
<defs>
<clipPath id="clip0_10_135">
<rect width="50" height="50" fill="white"/>
</clipPath>
</defs>
</svg>
