<svg width="189" height="50" viewBox="0 0 189 50" fill="none" xmlns="http://www.w3.org/2000/svg">
<circle cx="24.5921" cy="24.9998" r="24.076" fill="#B0B0B0" fill-opacity="0.1"/>
<mask id="mask0_136_39" style="mask-type:luminance" maskUnits="userSpaceOnUse" x="2" y="2" width="46" height="46">
<circle cx="24.592" cy="24.9999" r="22.5837" fill="white"/>
</mask>
<g mask="url(#mask0_136_39)">
<path d="M44.5212 24.2041C44.5212 35.1277 35.6043 44.0337 24.5422 44.0337C13.4802 44.0337 4.56334 35.1277 4.56334 24.2041C4.56334 13.2804 13.4802 4.37437 24.5422 4.37437C35.6043 4.37437 44.5212 13.2804 44.5212 24.2041Z" fill="#F4F4F4"/>
<path d="M44.5212 24.2041C44.5212 35.1277 35.6043 44.0337 24.5422 44.0337C13.4802 44.0337 4.56334 35.1277 4.56334 24.2041C4.56334 13.2804 13.4802 4.37437 24.5422 4.37437C35.6043 4.37437 44.5212 13.2804 44.5212 24.2041Z" stroke="#C7C6C7" stroke-width="9.88546" style="mix-blend-mode:hard-light"/>
<path d="M-0.379395 34.1468C-0.379395 34.1468 23.9951 69.4709 49.4639 33.125C49.4639 33.125 27.3967 27.2002 -0.379395 34.1468Z" fill="#258B43"/>
<g clip-path="url(#clip0_136_39)">
<path d="M3.15777 28.5284L8.11024 20.2573L15.4834 28.7212C19.3293 28.2485 23.2047 28.0099 27.0941 28.0099C27.6058 28.0099 28.1101 28.0144 28.6085 28.0225L39.1598 15.3592L46.7656 28.5284H47.6093L39.3542 14.2366L31.8022 16.2669L30.5521 17.7765V14.9028L28.8212 14.7248V17.0704L26.2909 17.7528H21.3414L18.066 22.3171L17.8311 22.1192L18.945 20.5771H16.2372V18.8821L14.9503 18.3474V21.6532L13.9513 20.3348L9.44425 19.6015L7.80913 19.3348L2.3045 28.5277L1.01172 30.6872H1.86425L3.15703 28.5277L3.15777 28.5284ZM19.6967 21.5837L21.9068 18.5032L25.1593 22.4058H27.245L24.6926 26.035L19.6768 25.9907L19.6959 21.5845L19.6967 21.5837Z" fill="#BC9E2F"/>
<path d="M37.5212 23.1851H35.9678V25.1001H37.5212V23.1851Z" fill="#0D4C88"/>
<path d="M39.3849 23.1851H37.8315V25.1001H39.3849V23.1851Z" fill="#0D4C88"/>
<path d="M37.8315 22.8734H39.3849V22.6282C39.3849 21.7338 38.7025 20.9997 37.8315 20.9214V22.8734Z" fill="#0D4C88"/>
<path d="M39.3849 25.4116H37.8315V26.3466H39.3849V25.4116Z" fill="#0D4C88"/>
<path d="M37.5212 22.8734V20.9214C36.6502 21.0004 35.9678 21.7338 35.9678 22.6282V22.8734H37.5212Z" fill="#0D4C88"/>
<path d="M37.5212 25.4116H35.9678V26.3466H37.5212V25.4116Z" fill="#0D4C88"/>
<path d="M8.54982 26.3511H7.35938V27.8186H8.54982V26.3511Z" fill="#0D4C88"/>
<path d="M9.97853 26.3511H8.78809V27.8186H9.97853V26.3511Z" fill="#0D4C88"/>
<path d="M8.78809 26.1118H9.97853V25.9242C9.97853 25.2388 9.45583 24.6768 8.78809 24.6162V26.1118Z" fill="#0D4C88"/>
<path d="M9.97853 28.0571H8.78809V28.7735H9.97853V28.0571Z" fill="#0D4C88"/>
<path d="M8.54982 26.1118V24.6162C7.88282 24.6768 7.35938 25.2388 7.35938 25.9242V26.1118H8.54982Z" fill="#0D4C88"/>
<path d="M8.54982 28.0571H7.35938V28.7735H8.54982V28.0571Z" fill="#0D4C88"/>
<path d="M21.7733 22.4966H20.9863V23.4663H21.7733V22.4966Z" fill="#0D4C88"/>
<path d="M22.7182 22.4966H21.9312V23.4663H22.7182V22.4966Z" fill="#0D4C88"/>
<path d="M21.9312 22.3385H22.7182V22.2145C22.7182 21.7617 22.3721 21.3895 21.9312 21.3496V22.3385Z" fill="#0D4C88"/>
<path d="M22.7182 23.6245H21.9312V24.0979H22.7182V23.6245Z" fill="#0D4C88"/>
<path d="M21.7733 22.3385V21.3496C21.3323 21.3895 20.9863 21.761 20.9863 22.2145V22.3385H21.7733Z" fill="#0D4C88"/>
<path d="M21.7733 23.6245H20.9863V24.0979H21.7733V23.6245Z" fill="#0D4C88"/>
<path d="M26.2911 17.7522L29.7895 22.3852L25.1595 22.4058L21.3423 17.7522H26.2911Z" fill="#B71F42"/>
<path d="M46.7654 28.5284L39.1597 15.3592L39.6735 14.7913L47.6084 28.5284" fill="#B71F42"/>
<path d="M30.5521 17.7765L28.8213 17.0704V14.5911L30.5521 14.0564V17.7765Z" fill="#B71F42"/>
<path d="M27.005 28.0101L24.6822 26.0352L19.6988 25.8793V21.6045L19.1658 22.3616L18.0505 22.3328L17.8303 22.1193L18.9442 20.5772H16.2365L14.9496 21.6533L13.9505 20.335L7.80908 19.335L16.0244 28.6556C19.6628 28.2294 23.3276 28.013 27.005 28.0093V28.0101Z" fill="#B71F42"/>
<path d="M-1.47363 32.959C-1.47363 32.959 23.2504 26.1015 50.0609 31.6229C50.0609 31.6229 27.2451 23.8747 -1.47363 32.959Z" fill="#248644"/>
<path d="M3.94195 30.8216V28.7913L4.09876 28.5284L8.51895 21.1465L8.14791 20.7285L3.4774 28.5284L2.31787 30.4657L2.36057 31.284L3.94195 30.8216Z" fill="#EBEBEB"/>
<path d="M43.9126 29.3969L46.0623 29.9346L45.9924 28.0609L39.1118 16.001L38.3115 16.9589L43.9126 26.7056V29.3969Z" fill="#EBEBEB"/>
</g>
</g>
<path d="M83.3633 33.8411C83.3591 33.5341 83.1026 33.2915 82.798 33.3028L59.3435 34.1741L82.8132 34.3948C83.1202 34.3976 83.3676 34.148 83.3633 33.8411Z" fill="black"/>
<path d="M160.578 32.7704C160.573 32.4259 160.822 32.1458 161.127 32.1486L184.598 32.4373L161.144 33.3766C160.837 33.3879 160.583 33.1148 160.578 32.7704Z" fill="black"/>
<path d="M87.5017 37.3532L87.3999 30.009L88.3584 29.9957L88.4601 37.3376L87.5017 37.3509L87.5017 37.3532ZM88.1552 35.9683L88.2112 34.0878L90.0761 29.9719L91.1259 29.9574L88.1529 35.9684L88.1552 35.9683ZM90.37 37.3135L88.9377 33.4097L89.5788 32.6485L91.4621 37.2983L90.37 37.3135Z" fill="black"/>
<path d="M94.2507 37.2597L95.8454 29.892L96.7242 29.8798L98.5226 37.1981L97.4915 37.2124L96.3045 31.3904L95.2794 37.2431L94.2483 37.2574L94.2507 37.2597ZM95.3158 35.6417L95.3032 34.7372L97.4802 34.707L97.4928 35.6116L95.3158 35.6417Z" fill="black"/>
<path d="M101.869 37.147L101.768 29.8098L102.607 29.7982L104.695 35.4015L104.54 35.5349L104.46 29.7725L105.374 29.7598L105.476 37.097L104.627 37.1087L102.553 31.6834L102.708 31.55L102.786 37.1343L101.872 37.147L101.869 37.147Z" fill="black"/>
<path d="M110.911 37.1037C110.527 37.109 110.2 37.0479 109.933 36.918C109.667 36.7881 109.46 36.5965 109.318 36.3406C109.177 36.0848 109.104 35.7717 109.099 35.4014L109.094 35.0382L110.052 35.0249L110.057 35.353C110.061 35.6178 110.136 35.823 110.281 35.964C110.426 36.1049 110.631 36.1747 110.898 36.171C111.165 36.1673 111.354 36.0921 111.49 35.9472C111.627 35.8023 111.692 35.5975 111.688 35.3304L111.679 34.6883C111.676 34.4891 111.625 34.3304 111.522 34.2076C111.422 34.0871 111.292 33.9835 111.131 33.8966C110.971 33.8121 110.801 33.7301 110.617 33.6506C110.433 33.5711 110.251 33.4846 110.07 33.391C109.888 33.2951 109.72 33.1802 109.568 33.0417C109.414 32.9032 109.292 32.7315 109.197 32.5265C109.103 32.3216 109.055 32.0644 109.051 31.7574L109.045 31.3333C109.037 30.7849 109.184 30.361 109.487 30.0638C109.79 29.7666 110.226 29.6129 110.798 29.605C111.369 29.5971 111.786 29.7413 112.086 30.0348C112.385 30.3283 112.541 30.7504 112.549 31.3034L112.554 31.6877L111.596 31.701L111.591 31.3566C111.587 31.0871 111.519 30.8818 111.385 30.743C111.252 30.6042 111.061 30.5342 110.813 30.5376C110.548 30.5413 110.345 30.6121 110.206 30.7476C110.068 30.8831 110.002 31.0762 110.006 31.327L110.012 31.7863C110.015 32.0019 110.072 32.1745 110.181 32.3019C110.291 32.4293 110.433 32.5352 110.607 32.6195C110.782 32.7038 110.966 32.7879 111.159 32.872C111.332 32.9469 111.504 33.0266 111.676 33.1086C111.848 33.1906 112.004 33.2962 112.149 33.4208C112.294 33.5453 112.411 33.7078 112.5 33.9081C112.59 34.1084 112.636 34.3633 112.64 34.675L112.649 35.3475C112.657 35.9029 112.511 36.3315 112.212 36.6333C111.914 36.9351 111.48 37.0911 110.911 37.099L110.911 37.1037Z" fill="black"/>
<path d="M115.967 36.9587L117.562 29.5909L118.441 29.5788L120.239 36.8971L119.208 36.9114L118.021 31.0893L116.996 36.9421L115.965 36.9564L115.967 36.9587ZM117.032 35.3407L117.02 34.4362L119.197 34.406L119.209 35.3105L117.032 35.3407Z" fill="black"/>
<path d="M124.92 36.9094C124.535 36.9147 124.209 36.8536 123.942 36.7237C123.673 36.5938 123.469 36.4021 123.327 36.1463C123.185 35.8904 123.113 35.5773 123.108 35.2071L123.103 34.8439L124.061 34.8306L124.066 35.1586C124.069 35.4235 124.145 35.6287 124.29 35.7696C124.435 35.9106 124.64 35.9804 124.907 35.9767C125.174 35.973 125.363 35.8977 125.499 35.7529C125.635 35.608 125.701 35.4032 125.697 35.136L125.688 34.4939C125.685 34.2948 125.634 34.1361 125.534 34.0133C125.433 33.8904 125.303 33.7891 125.143 33.7023C124.982 33.6178 124.812 33.5357 124.628 33.4562C124.444 33.3791 124.263 33.2902 124.081 33.1966C123.899 33.1007 123.731 32.9859 123.579 32.8473C123.425 32.7088 123.303 32.5371 123.209 32.3321C123.114 32.1272 123.066 31.87 123.062 31.563L123.056 31.1389C123.049 30.5905 123.195 30.1666 123.498 29.8694C123.801 29.5722 124.237 29.4185 124.809 29.4106C125.381 29.4027 125.797 29.5469 126.097 29.8404C126.396 30.1339 126.552 30.556 126.56 31.1091L126.565 31.4934L125.607 31.5067L125.602 31.1622C125.598 30.8927 125.53 30.6874 125.396 30.5486C125.263 30.4098 125.072 30.3398 124.822 30.3433C124.557 30.347 124.354 30.4177 124.215 30.5533C124.077 30.6888 124.011 30.8819 124.015 31.1326L124.021 31.5919C124.024 31.8075 124.08 31.9802 124.19 32.1076C124.3 32.235 124.442 32.3408 124.616 32.4251C124.791 32.5094 124.975 32.5936 125.168 32.6776C125.34 32.7526 125.513 32.8322 125.685 32.9142C125.855 32.9986 126.013 33.1019 126.158 33.2264C126.303 33.351 126.42 33.5134 126.507 33.7138C126.596 33.9141 126.642 34.169 126.646 34.4807L126.656 35.1532C126.663 35.7086 126.517 36.1372 126.219 36.439C125.921 36.7408 125.487 36.8968 124.917 36.9047L124.92 36.9094Z" fill="black"/>
<path d="M136.806 36.7447C136.445 36.7497 136.137 36.679 135.881 36.5348C135.624 36.3908 135.427 36.1802 135.289 35.9008C135.152 35.6215 135.079 35.285 135.073 34.8889L135.022 31.1583C135.016 30.7575 135.079 30.4168 135.209 30.1361C135.339 29.8554 135.53 29.6394 135.784 29.4859C136.035 29.3348 136.341 29.2555 136.702 29.2505C137.062 29.2455 137.375 29.3162 137.633 29.4603C137.888 29.6044 138.085 29.815 138.223 30.0943C138.36 30.3713 138.431 30.7102 138.436 31.1062L138.44 31.4202L137.47 31.4337L137.466 31.1197C137.463 30.9182 137.433 30.7475 137.372 30.6077C137.311 30.4679 137.228 30.3636 137.117 30.2901C137.006 30.2167 136.872 30.1834 136.715 30.1855C136.483 30.1887 136.303 30.2733 136.174 30.4415C136.048 30.6073 135.985 30.8425 135.99 31.1472L136.041 34.8779C136.045 35.1778 136.114 35.4089 136.245 35.5712C136.377 35.7334 136.561 35.8152 136.793 35.812C137.025 35.8088 137.209 35.7242 137.335 35.5561C137.459 35.3903 137.522 35.155 137.518 34.8574L137.513 34.5434L138.483 34.5299L138.488 34.844C138.493 35.2423 138.432 35.5807 138.303 35.8614C138.173 36.1421 137.984 36.358 137.73 36.5116C137.477 36.6627 137.171 36.742 136.806 36.747L136.806 36.7447Z" fill="black"/>
<path d="M142.856 29.2401L142.958 36.582L141.997 36.5953L141.896 29.2534L142.856 29.2401Z" fill="black"/>
<path d="M146.457 30.0997L146.444 29.1904L150.009 29.141L150.021 30.0502L146.457 30.0997ZM147.849 36.5166L147.756 29.7746L148.714 29.7613L148.808 36.5033L147.849 36.5166Z" fill="black"/>
<path d="M157.041 29.0435L155.687 33.3351L155.73 36.4049L154.771 36.4182L154.729 33.3484L153.205 29.0967L154.18 29.0832L155.194 32.231L156.069 29.057L157.044 29.0435L157.041 29.0435Z" fill="black"/>
<path d="M61.5132 20.9629C60.8086 21.2417 60.1578 21.3798 59.5586 21.3798C58.5151 21.3798 57.5792 21.0468 56.7534 20.3808C55.7009 19.5298 55.1758 18.4197 55.1758 17.0531C55.1758 15.6865 55.7009 14.5691 56.7534 13.718C57.5792 13.052 58.5195 12.719 59.5765 12.719C60.151 12.719 60.7973 12.8571 61.5132 13.1359V15.7087C61.3112 15.462 61.1048 15.2746 60.8938 15.1488C60.5078 14.9169 60.0949 14.8009 59.6528 14.8009C59.094 14.8009 58.6071 14.9687 58.1941 15.3042C57.6713 15.7285 57.4087 16.3106 57.4087 17.0506C57.4087 17.7907 57.6713 18.3679 58.1941 18.7922C58.6071 19.1277 59.094 19.2954 59.6528 19.2954C60.0949 19.2954 60.5078 19.1795 60.8938 18.9476C61.1003 18.8267 61.3068 18.6392 61.5132 18.3876V20.9605V20.9629Z" fill="black"/>
<path d="M71.4169 21.1575H69.2625V17.7213H66.1544V21.1575H64V12.8962H66.1544V16.0858H69.2625V12.8962H71.4169V21.1575Z" fill="black"/>
<path d="M81.1668 21.1575H78.4896L76.4317 17.9877V21.1575H74.2773V12.8962H77.6278C78.6063 12.8962 79.3311 13.1898 79.8002 13.7744C80.1817 14.2456 80.3702 14.8006 80.3702 15.4395C80.3702 16.1697 80.1525 16.7518 79.7149 17.1884C79.4366 17.4672 79.0506 17.6596 78.5614 17.7681L81.1668 21.1575ZM78.1395 15.5554C78.1395 15.2619 78.0318 15.0152 77.8163 14.8129C77.6121 14.623 77.2867 14.5293 76.8357 14.5293H76.434V16.5865H76.8357C77.2912 16.5865 77.6166 16.4928 77.8163 16.3029C78.0318 16.0981 78.1395 15.849 78.1395 15.5554Z" fill="black"/>
<path d="M85.3482 21.1575H83.1938V12.8962H85.3482V21.1575Z" fill="black"/>
<path d="M93.9529 18.4244C93.9529 19.823 93.338 20.7333 92.1082 21.1575C91.6796 21.308 91.2173 21.382 90.7236 21.382C89.6868 21.382 88.7263 21.0687 87.8398 20.4446L88.7622 18.713C89.4107 19.2976 90.0458 19.5911 90.6652 19.5911C90.9457 19.5911 91.1814 19.527 91.3766 19.3963C91.6033 19.2507 91.7177 19.0411 91.7177 18.7722C91.7177 18.528 91.592 18.3232 91.3407 18.1604C91.1544 18.0371 90.8403 17.9137 90.3982 17.7879C89.8641 17.6301 89.5274 17.5215 89.3883 17.4623C89.1684 17.3686 88.9821 17.26 88.8295 17.1367C88.3874 16.7741 88.1675 16.2265 88.1675 15.4914C88.1675 14.7563 88.3964 14.0902 88.8542 13.587C89.3883 12.995 90.0997 12.699 90.9906 12.699C91.8815 12.699 92.7612 12.9235 93.6185 13.3699L92.7567 15.0399C92.2855 14.6724 91.812 14.4899 91.3317 14.4899C91.1006 14.4899 90.8941 14.5491 90.7101 14.665C90.5036 14.7982 90.4004 14.9758 90.4004 15.2003C90.4004 15.4248 90.5351 15.6073 90.8088 15.7652C90.93 15.8392 91.2958 15.9625 91.904 16.1426C92.667 16.3646 93.2101 16.6804 93.5332 17.0874C93.8137 17.4352 93.9529 17.8817 93.9529 18.4268V18.4244Z" fill="black"/>
<path d="M107.3 18.8091C107.3 19.4258 107.125 19.929 106.773 20.3163C106.264 20.8763 105.485 21.1575 104.441 21.1575H100.992V12.8962H104.197C105.752 12.8962 106.528 13.6141 106.528 15.0497C106.528 15.4814 106.443 15.8416 106.273 16.1327C106.131 16.3793 105.911 16.589 105.617 16.7617C106.279 16.8998 106.73 17.1638 106.973 17.5535C107.19 17.9137 107.3 18.3305 107.3 18.8066V18.8091ZM104.531 15.3359C104.531 14.9609 104.363 14.7118 104.024 14.5909C103.903 14.5515 103.741 14.5293 103.542 14.5293H103.149V16.145H103.542C103.912 16.145 104.179 16.0537 104.338 15.8736C104.468 15.7281 104.531 15.548 104.531 15.3359ZM105.144 18.6636C105.144 18.1825 104.895 17.9013 104.399 17.8175C104.242 17.7928 103.97 17.7805 103.589 17.7805H103.147V19.522H103.625C104.172 19.522 104.556 19.4579 104.774 19.3296C105.02 19.184 105.144 18.962 105.144 18.6636Z" fill="black"/>
<path d="M117.026 17.6589C117.026 18.1547 116.986 18.579 116.905 18.9293C116.779 19.4744 116.481 19.9703 116.007 20.4168C115.336 21.0507 114.436 21.3665 113.312 21.3665C112.188 21.3665 111.272 21.0433 110.628 20.3995C110.289 20.0615 110.056 19.6348 109.93 19.1217C109.84 18.7591 109.795 18.2707 109.795 17.6564V12.8931H111.95V17.3604C111.95 17.7181 111.957 17.987 111.968 18.1646C112.008 18.7245 112.266 19.1168 112.74 19.3363C112.935 19.43 113.148 19.4744 113.384 19.4744C113.909 19.4744 114.306 19.2919 114.573 18.9244C114.771 18.6555 114.872 18.1325 114.872 17.358V12.8906H117.026V17.654V17.6589Z" fill="black"/>
<path d="M127.118 12.8962L124.017 17.186V21.155H121.862V17.186L118.864 12.8962H121.438L123.005 15.1484L124.511 12.8962H127.12H127.118Z" fill="black"/>
<path d="M134.703 18.4244C134.703 19.823 134.088 20.7333 132.859 21.1575C132.43 21.308 131.968 21.382 131.474 21.382C130.437 21.382 129.477 21.0687 128.59 20.4446L129.513 18.713C130.161 19.2976 130.796 19.5911 131.418 19.5911C131.698 19.5911 131.934 19.527 132.129 19.3963C132.356 19.2507 132.47 19.0411 132.47 18.7722C132.47 18.528 132.345 18.3232 132.093 18.1604C131.907 18.0371 131.593 17.9137 131.151 17.7879C130.617 17.6301 130.28 17.5215 130.141 17.4623C129.921 17.3686 129.735 17.26 129.582 17.1367C129.14 16.7741 128.92 16.2265 128.92 15.4914C128.92 14.7563 129.149 14.0902 129.607 13.587C130.141 12.995 130.852 12.699 131.743 12.699C132.634 12.699 133.514 12.9235 134.371 13.3699L133.509 15.0399C133.038 14.6724 132.565 14.4899 132.084 14.4899C131.853 14.4899 131.647 14.5491 131.463 14.665C131.256 14.7982 131.153 14.9758 131.153 15.2003C131.153 15.4248 131.288 15.6073 131.562 15.7652C131.683 15.8392 132.049 15.9625 132.657 16.1426C133.42 16.3646 133.963 16.6804 134.286 17.0874C134.566 17.4352 134.706 17.8817 134.706 18.4268L134.703 18.4244Z" fill="black"/>
<path d="M149.162 21.1575H147.008V17.7213H143.9V21.1575H141.746V12.8962H143.9V16.0858H147.008V12.8962H149.162V21.1575Z" fill="black"/>
<path d="M160.828 17.0524C160.828 18.1748 160.453 19.159 159.705 20.0051C158.853 20.9696 157.697 21.4506 156.238 21.4506C154.78 21.4506 153.631 20.9696 152.778 20.0051C152.028 19.159 151.656 18.1748 151.656 17.0524C151.656 16.5393 151.757 16.0139 151.959 15.4761C152.161 14.9384 152.432 14.4771 152.771 14.0923C153.624 13.1277 154.78 12.6467 156.238 12.6467C157.697 12.6467 158.85 13.1302 159.705 14.0923C160.455 14.9384 160.828 15.9251 160.828 17.0524ZM158.592 17.0524C158.592 16.4702 158.406 15.967 158.031 15.5427C157.553 15 156.954 14.7287 156.236 14.7287C155.74 14.7287 155.294 14.8668 154.89 15.1431C154.488 15.4194 154.203 15.7894 154.032 16.2507C153.936 16.5146 153.886 16.781 153.886 17.0524C153.886 17.6099 154.073 18.1106 154.447 18.5522C154.91 19.0973 155.507 19.3712 156.236 19.3712C156.965 19.3712 157.565 19.0998 158.031 18.5596C158.404 18.1279 158.592 17.6247 158.592 17.0549V17.0524Z" fill="black"/>
<path d="M173.33 21.1575H171.175L170.563 16.4015L168.561 21.1575H167.706L165.796 16.4015L165.094 21.1575H162.944L164.353 12.8962H166.485L168.161 17.3019L169.934 12.8962H172.084L173.334 21.1575H173.33Z" fill="black"/>
<path d="M180.531 21.1575H175.813V12.8962H180.531V14.6871H177.968V16.0981H180.389V17.889H177.968V19.3666H180.531V21.1575Z" fill="black"/>
<path d="M188.76 18.4244C188.76 19.823 188.146 20.7333 186.916 21.1575C186.487 21.308 186.025 21.382 185.531 21.382C184.494 21.382 183.534 21.0687 182.647 20.4446L183.57 18.713C184.218 19.2976 184.853 19.5911 185.475 19.5911C185.756 19.5911 185.991 19.527 186.186 19.3963C186.413 19.2507 186.528 19.0411 186.528 18.7722C186.528 18.528 186.402 18.3232 186.151 18.1604C185.964 18.0371 185.65 17.9137 185.208 17.7879C184.674 17.6301 184.337 17.5215 184.198 17.4623C183.978 17.3686 183.792 17.26 183.639 17.1367C183.197 16.7741 182.977 16.2265 182.977 15.4914C182.977 14.7563 183.206 14.0902 183.664 13.587C184.198 12.995 184.91 12.699 185.8 12.699C186.691 12.699 187.571 12.9235 188.428 13.3699L187.567 15.0399C187.095 14.6724 186.622 14.4899 186.142 14.4899C185.91 14.4899 185.704 14.5491 185.52 14.665C185.313 14.7982 185.21 14.9758 185.21 15.2003C185.21 15.4248 185.345 15.6073 185.619 15.7652C185.74 15.8392 186.106 15.9625 186.714 16.1426C187.477 16.3646 188.02 16.6804 188.343 17.0874C188.624 17.4352 188.763 17.8817 188.763 18.4268L188.76 18.4244Z" fill="black"/>
<defs>
<clipPath id="clip0_136_39">
<rect width="51.5346" height="18.9026" fill="white" transform="translate(-1.47363 14.0564)"/>
</clipPath>
</defs>
</svg>
