<?xml version="1.0" encoding="UTF-8"?>
<svg xmlns="http://www.w3.org/2000/svg" width="36" height="36" viewBox="0 0 36 36" fill="none">
  <path d="M18.001 0C13.2271 0 8.64871 1.89642 5.27305 5.27208C1.8974 8.64773 0.000976563 13.2261 0.000976562 18C0.000976563 22.7739 1.8974 27.3523 5.27305 30.7279C8.64871 34.1036 13.2271 36 18.001 36C22.7749 36 27.3532 34.1036 30.7289 30.7279C34.1046 27.3523 36.001 22.7739 36.001 18C36.001 13.2261 34.1046 8.64773 30.7289 5.27208C27.3532 1.89642 22.7749 0 18.001 0ZM18.1217 13.4632C18.228 13.2116 18.4653 13.142 18.7762 13.2586C19.8927 13.7334 20.8463 14.5238 21.52 15.5328C22.1937 16.5419 22.5581 17.7256 22.5685 18.9389C22.546 19.2068 22.5317 19.4748 22.501 19.7407C22.5018 19.8018 22.4896 19.8624 22.4653 19.9185C22.441 19.9746 22.4051 20.025 22.36 20.0662C22.3148 20.1075 22.2615 20.1387 22.2034 20.1579C22.1454 20.1771 22.0839 20.1838 22.0231 20.1776C21.9623 20.1713 21.9035 20.1523 21.8505 20.1217C21.7976 20.0911 21.7517 20.0497 21.7159 20.0001C21.6801 19.9506 21.6551 19.894 21.6427 19.8341C21.6303 19.7743 21.6308 19.7124 21.6439 19.6527C21.8751 17.1 20.7337 15.1139 18.4203 14.042C18.1298 13.9091 18.0194 13.7045 18.1217 13.4632ZM17.7719 15.0095C17.843 14.958 17.9253 14.924 18.0121 14.9105C18.0988 14.897 18.1876 14.9043 18.271 14.9318C18.7469 15.1958 19.191 15.5136 19.5944 15.8789C19.9954 16.2745 20.3121 16.7472 20.5255 17.2686C20.7389 17.7899 20.8445 18.349 20.836 18.9123V19.3009C20.8382 19.3606 20.8282 19.4202 20.8066 19.4759C20.785 19.5316 20.7521 19.5823 20.7102 19.6248C20.6682 19.6673 20.618 19.7008 20.5626 19.7232C20.5072 19.7456 20.4478 19.7564 20.388 19.755C20.1405 19.7448 20.0014 19.5505 19.9789 19.2641C19.9665 18.7896 19.9069 18.3175 19.801 17.8548C19.6659 17.3937 19.4361 16.966 19.1261 16.599C18.8161 16.2319 18.4329 15.9337 18.001 15.7234C17.8823 15.662 17.7269 15.57 17.7003 15.4636C17.6776 15.3874 17.6723 15.3071 17.6847 15.2285C17.6971 15.1499 17.7269 15.0751 17.7719 15.0095ZM22.8426 24.9955C22.2801 25.4045 21.6153 25.562 20.9505 25.6827C20.6785 25.7318 20.3982 25.7441 20.1323 25.7727C19.0323 25.7778 17.9684 25.3798 17.1419 24.6539C16.4826 24.0907 15.8797 23.4645 15.3419 22.7843C13.8595 20.9158 12.7347 18.7898 12.0242 16.513C11.7049 15.5532 11.6498 14.5252 11.8646 13.5368C12.1817 12.2195 12.9876 11.252 14.0737 10.4911C14.156 10.4354 14.2437 10.3881 14.3355 10.35C14.8694 10.1107 15.2498 10.2109 15.5055 10.7386C15.8778 11.5077 16.2071 12.2973 16.5282 13.0848C16.6338 13.3435 16.7159 13.6112 16.7737 13.8845C16.8596 14.2793 16.7614 14.4982 16.383 14.6455C16.0421 14.7783 15.6946 14.8937 15.3419 14.9911C14.7528 15.1711 14.5789 15.4248 14.7507 16.0139C15.3833 18.2037 16.5428 20.2053 18.1278 21.8434C18.5369 22.2709 18.8457 22.2525 19.2835 21.8434C19.5453 21.598 19.7989 21.3443 20.0812 21.1234C20.4371 20.8473 20.6948 20.8595 21.0098 21.1745C21.8223 21.9944 22.5294 22.9124 23.1146 23.9073C23.3662 24.3409 23.266 24.6866 22.8426 24.9955ZM24.1578 20.1743C24.1148 20.5057 23.9144 20.6673 23.6444 20.6223C23.3744 20.5773 23.2537 20.3645 23.3069 20.0291C23.5463 18.472 23.2538 16.8797 22.4766 15.5094C21.6994 14.1391 20.4829 13.0709 19.0237 12.4773C18.92 12.443 18.8199 12.3985 18.7251 12.3443C18.6408 12.2908 18.578 12.2094 18.5477 12.1143C18.5174 12.0192 18.5215 11.9165 18.5593 11.8241C18.5971 11.7317 18.6661 11.6555 18.7544 11.6089C18.8427 11.5623 18.9445 11.5482 19.0421 11.5691C19.158 11.5992 19.2709 11.6396 19.3796 11.6898C20.8246 12.2895 22.0598 13.3036 22.9294 14.6041C23.799 15.9047 24.2642 17.4337 24.2662 18.9982C24.2355 19.3827 24.2089 19.7816 24.1578 20.1743Z" fill="#2D3A4B"></path>
</svg>
