<svg width="188" height="45" viewBox="0 0 188 45" fill="none" xmlns="http://www.w3.org/2000/svg">
<path d="M22.2879 44.5837C34.5971 44.5837 44.5757 34.6807 44.5757 22.4647C44.5757 10.2487 34.5971 0.345703 22.2879 0.345703C9.97862 0.345703 0 10.2487 0 22.4647C0 34.6807 9.97862 44.5837 22.2879 44.5837Z" fill="#B0B0B0" fill-opacity="0.1"/>
<mask id="mask0_136_121" style="mask-type:luminance" maskUnits="userSpaceOnUse" x="1" y="1" width="43" height="43">
<path d="M22.2873 43.2125C33.8336 43.2125 43.1937 33.9233 43.1937 22.4645C43.1937 11.0057 33.8336 1.71655 22.2873 1.71655C10.741 1.71655 1.38086 11.0057 1.38086 22.4645C1.38086 33.9233 10.741 43.2125 22.2873 43.2125Z" fill="white"/>
</mask>
<g mask="url(#mask0_136_121)">
<path d="M81.8559 20.4142C81.8559 53.1469 55.1537 79.7266 22.1598 79.7266C-10.8339 79.7266 -37.5361 53.1469 -37.5361 20.4142C-37.5361 -12.3187 -10.8339 -38.8984 22.1598 -38.8984C55.1537 -38.8984 81.8559 -12.3187 81.8559 20.4142Z" fill="#F4F4F4"/>
<g style="mix-blend-mode:hard-light">
<path d="M81.8559 20.4142C81.8559 53.1469 55.1537 79.7266 22.1598 79.7266C-10.8339 79.7266 -37.5361 53.1469 -37.5361 20.4142C-37.5361 -12.3187 -10.8339 -38.8984 22.1598 -38.8984C55.1537 -38.8984 81.8559 -12.3187 81.8559 20.4142Z" stroke="#C7C6C7" stroke-width="53.2192"/>
</g>
<path d="M34.5558 18.6752L32.6104 19.0951C30.607 14.4275 28.0724 10.5848 25.2466 8.85474C27.0117 9.07932 28.6984 10.179 30.2576 11.8867C30.2584 11.8889 30.2599 11.8897 30.2613 11.8919C31.8417 13.6227 33.29 15.9772 34.5558 18.676V18.6752Z" fill="#AB1D39"/>
<path d="M25.2466 8.85511C25.024 8.82666 24.8015 8.81243 24.5774 8.81243C19.9421 8.81243 15.7908 14.9556 12.9984 22.5258L12.6867 22.5774L12.6016 23.4668L9.92676 22.9075C12.7163 14.8793 17.1788 7.86768 22.0195 7.86768C23.1269 7.86768 24.2063 8.21877 25.2466 8.85511Z" fill="#C1A22E"/>
<path d="M30.2444 11.8719C25.5976 6.54767 20.6665 8.02995 20.6665 8.02995L20.6786 8.04491C21.1214 7.92813 21.5696 7.8675 22.0199 7.8675C23.1272 7.8675 24.2067 8.21859 25.247 8.85493C27.0069 9.07876 28.6882 10.1733 30.2444 11.8711V11.8719Z" fill="#0D84A9"/>
<path d="M34.5558 18.6752L32.6104 19.0951C30.607 14.4275 28.0724 10.5848 25.2466 8.85474C27.0117 9.07932 28.6984 10.179 30.2576 11.8867C30.2584 11.8889 30.2599 11.8897 30.2613 11.8919C31.8417 13.6227 33.29 15.9772 34.5558 18.676V18.6752Z" fill="#AB1D39"/>
<path d="M25.2466 8.85511C25.024 8.82666 24.8015 8.81243 24.5774 8.81243C19.9421 8.81243 15.7908 14.9556 12.9984 22.5258L12.6867 22.5774L12.6016 23.4668L9.92676 22.9075C12.7163 14.8793 17.1788 7.86768 22.0195 7.86768C23.1269 7.86768 24.2063 8.21877 25.2466 8.85511Z" fill="#C1A22E"/>
<path d="M30.2444 11.8719C25.5976 6.54767 20.6665 8.02995 20.6665 8.02995L20.6786 8.04491C21.1214 7.92813 21.5696 7.8675 22.0199 7.8675C23.1272 7.8675 24.2067 8.21859 25.247 8.85493C27.0069 9.07876 28.6882 10.1733 30.2444 11.8711V11.8719Z" fill="#0D84A9"/>
<path d="M3.31759 32.3496L7.75235 25.0237L14.3542 32.5203C17.7979 32.1012 21.2679 31.89 24.7498 31.89C25.2077 31.89 25.6595 31.8937 26.1054 31.9012L35.552 20.6853L42.3621 32.3496H43.1172L35.7269 19.6904L28.965 21.4885L27.8457 22.8256V20.2804L26.2955 20.1224V22.1999L24.0301 22.804H19.5991L16.6663 26.8473L16.4558 26.672L17.4531 25.3066H15.0286V23.8049L13.876 23.3317V26.2596L12.9821 25.0918L8.94712 24.4419L7.48368 24.206L2.55483 32.3489L1.39697 34.2617H2.16038L3.31824 32.3489L3.31759 32.3496ZM18.126 26.1982L20.1053 23.4694L23.0178 26.9258H24.8856L22.6006 30.1405L18.1094 30.1008L18.1267 26.1974L18.126 26.1982Z" fill="#0D4D8C"/>
<path d="M34.0859 27.6169H32.6948V29.3126H34.0859V27.6169Z" fill="#AB1D39"/>
<path d="M35.7537 27.6169H34.3628V29.3126H35.7537V27.6169Z" fill="#AB1D39"/>
<path d="M34.3628 27.3407H35.7537V27.1234C35.7537 26.3315 35.1429 25.6817 34.3628 25.6113V27.3399V27.3407Z" fill="#AB1D39"/>
<path d="M35.7537 29.5886H34.3628V30.4167H35.7537V29.5886Z" fill="#AB1D39"/>
<path d="M34.0859 27.3406V25.6121C33.3058 25.6816 32.6948 26.3322 32.6948 27.1242V27.3414H34.0859V27.3406Z" fill="#AB1D39"/>
<path d="M34.0859 29.5886H32.6948V30.4167H34.0859V29.5886Z" fill="#AB1D39"/>
<path d="M8.14598 30.4211H7.08008V31.7208H8.14598V30.4211Z" fill="#AB1D39"/>
<path d="M9.42479 30.4211H8.35889V31.7208H9.42479V30.4211Z" fill="#AB1D39"/>
<path d="M8.35889 30.2094H9.42479V30.0431C9.42479 29.436 8.95635 28.9382 8.35889 28.8843V30.2094Z" fill="#AB1D39"/>
<path d="M9.42479 31.9319H8.35889V32.5668H9.42479V31.9319Z" fill="#AB1D39"/>
<path d="M8.145 30.2094V28.8843C7.54754 28.9374 7.0791 29.436 7.0791 30.0431V30.2094H8.145Z" fill="#AB1D39"/>
<path d="M8.14598 31.9319H7.08008V32.5668H8.14598V31.9319Z" fill="#AB1D39"/>
<path d="M19.9854 27.0068H19.2808V27.8655H19.9854V27.0068Z" fill="#AB1D39"/>
<path d="M20.8304 27.0068H20.126V27.8655H20.8304V27.0068Z" fill="#AB1D39"/>
<path d="M20.126 26.8667H20.8304V26.7566C20.8304 26.3553 20.5212 26.026 20.126 25.9907V26.8667Z" fill="#AB1D39"/>
<path d="M20.8304 28.0054H20.126V28.4246H20.8304V28.0054Z" fill="#AB1D39"/>
<path d="M19.9854 26.8667V25.9907C19.5901 26.026 19.2808 26.3553 19.2808 26.7566V26.8667H19.9854Z" fill="#AB1D39"/>
<path d="M19.9854 28.0054H19.2808V28.4246H19.9854V28.0054Z" fill="#AB1D39"/>
<path d="M24.0301 22.8047L27.1628 26.9079L23.017 26.9267L19.5991 22.8047H24.0301Z" fill="#0D84A9"/>
<path d="M42.3623 32.3497L35.5522 20.6854L36.0132 20.1824L43.1174 32.3497" fill="#0D84A9"/>
<path d="M27.8456 22.8263L26.2954 22.2004V20.0039L27.8456 19.5308V22.8263Z" fill="#0D84A9"/>
<path d="M24.6698 31.8909L22.5901 30.1414L18.1282 30.0036V26.2171L17.6514 26.8879L16.6527 26.8624L16.4557 26.6737L17.453 25.3083H15.0285L13.8759 26.2613L12.9819 25.0933L7.48291 24.2078L14.8384 32.4637C18.0965 32.0864 21.3778 31.8946 24.6698 31.8917V31.8909Z" fill="#0D84A9"/>
<path d="M-0.829102 37.9833C-0.829102 37.9833 18.8801 55.6157 45.3123 36.7998C45.3123 36.7998 24.884 29.9371 -0.829102 37.9833Z" fill="#258B43"/>
<path d="M4.01973 34.3807V32.5826L4.16003 32.3497L8.11804 25.8112L7.7855 25.4414L3.60421 32.3497L2.56543 34.0655L2.60381 34.791L4.01973 34.3807Z" fill="#EBEBEB"/>
<path d="M39.8077 33.1196L41.7328 33.5957L41.6702 31.9361L35.5095 21.2539L34.793 22.1029L39.8077 30.7359V33.1196Z" fill="#EBEBEB"/>
</g>
<path d="M55.1465 19.6336C54.4159 19.9226 53.7411 20.0658 53.1199 20.0658C52.0379 20.0658 51.0676 19.7205 50.2114 19.03C49.1201 18.1476 48.5757 16.9967 48.5757 15.5798C48.5757 14.1629 49.1201 13.0043 50.2114 12.1219C51.0676 11.4315 52.0426 11.0862 53.1385 11.0862C53.7341 11.0862 54.4042 11.2294 55.1465 11.5184V14.1859C54.937 13.9301 54.723 13.7357 54.5043 13.6054C54.1041 13.365 53.6759 13.2448 53.2176 13.2448C52.6382 13.2448 52.1333 13.4187 51.7052 13.7664C51.163 14.2063 50.8908 14.81 50.8908 15.5773C50.8908 16.3445 51.163 16.9429 51.7052 17.3829C52.1333 17.7307 52.6382 17.9046 53.2176 17.9046C53.6759 17.9046 54.1041 17.7844 54.5043 17.544C54.7183 17.4187 54.9324 17.2243 55.1465 16.9635V19.631V19.6336Z" fill="black"/>
<path d="M65.4156 19.8367H63.1819V16.2739H59.9593V19.8367H57.7256V11.2712H59.9593V14.5782H63.1819V11.2712H65.4156V19.8367Z" fill="black"/>
<path d="M75.5245 19.8367H72.7487L70.6149 16.5501V19.8367H68.3813V11.2712H71.8551C72.8695 11.2712 73.6212 11.5757 74.1074 12.1818C74.503 12.6703 74.6985 13.2458 74.6985 13.9082C74.6985 14.6653 74.4728 15.2688 74.0191 15.7215C73.7304 16.0105 73.3303 16.2101 72.8231 16.3226L75.5245 19.8367ZM72.3856 14.0284C72.3856 13.724 72.274 13.4682 72.0506 13.2585C71.8389 13.0617 71.5015 12.9645 71.0338 12.9645H70.6174V15.0974H71.0338C71.506 15.0974 71.8435 15.0003 72.0506 14.8033C72.274 14.5911 72.3856 14.3327 72.3856 14.0284Z" fill="black"/>
<path d="M79.8587 19.8367H77.625V11.2712H79.8587V19.8367Z" fill="black"/>
<path d="M88.7805 16.9976C88.7805 18.4476 88.143 19.3913 86.8678 19.8313C86.4234 19.9873 85.9442 20.0641 85.4323 20.0641C84.3573 20.0641 83.3614 19.7392 82.4424 19.0921L83.3987 17.2968C84.0711 17.9029 84.7295 18.2072 85.3717 18.2072C85.6626 18.2072 85.907 18.1407 86.1093 18.0051C86.3444 17.8542 86.4629 17.6368 86.4629 17.358C86.4629 17.1049 86.3328 16.8927 86.0721 16.7238C85.879 16.5959 85.5532 16.468 85.0949 16.3377C84.541 16.1739 84.1922 16.0613 84.0478 16.0001C83.8198 15.9029 83.6267 15.7904 83.4684 15.6625C83.0101 15.2865 82.7821 14.7188 82.7821 13.9565C82.7821 13.1944 83.0194 12.5038 83.4941 11.9821C84.0478 11.3682 84.7854 11.0613 85.7092 11.0613C86.6328 11.0613 87.545 11.294 88.4339 11.7571L87.5403 13.4885C87.0518 13.1073 86.5608 12.9182 86.0628 12.9182C85.8232 12.9182 85.6091 12.9794 85.4183 13.0997C85.2043 13.2378 85.0972 13.4219 85.0972 13.6547C85.0972 13.8874 85.2368 14.0767 85.5207 14.2404C85.6463 14.3171 86.0255 14.445 86.6562 14.6317C87.4472 14.8618 88.0103 15.1893 88.3453 15.6112C88.6362 15.9718 88.7805 16.4349 88.7805 17V16.9976Z" fill="black"/>
<path d="M102.62 17.4019C102.62 18.0412 102.439 18.563 102.073 18.9645C101.545 19.5451 100.738 19.8367 99.6559 19.8367H96.0796V11.2712H99.4022C101.015 11.2712 101.82 12.0155 101.82 13.5041C101.82 13.9517 101.731 14.325 101.554 14.6269C101.408 14.8827 101.18 15.1001 100.875 15.2791C101.561 15.4223 102.029 15.6959 102.28 16.1C102.506 16.4735 102.62 16.9057 102.62 17.3993V17.4019ZM99.749 13.8008C99.749 13.412 99.5744 13.1536 99.2231 13.0284C99.0975 12.9875 98.9299 12.9645 98.7228 12.9645H98.3156V14.6396H98.7228C99.1068 14.6396 99.3836 14.5451 99.5489 14.3584C99.6838 14.2074 99.749 14.0208 99.749 13.8008ZM100.384 17.251C100.384 16.7521 100.126 16.4606 99.6116 16.3737C99.4488 16.3481 99.1672 16.3353 98.7716 16.3353H98.3133V18.141H98.8089C99.3766 18.141 99.7745 18.0745 100 17.9415C100.256 17.7906 100.384 17.5605 100.384 17.251Z" fill="black"/>
<path d="M112.704 16.211C112.704 16.725 112.662 17.1648 112.578 17.5281C112.448 18.0934 112.138 18.6074 111.648 19.0702C110.952 19.7277 110.019 20.055 108.853 20.055C107.687 20.055 106.738 19.72 106.07 19.0524C105.719 18.7019 105.477 18.2595 105.347 17.7275C105.254 17.3517 105.207 16.8452 105.207 16.2084V11.2697H107.441V15.9015C107.441 16.2724 107.448 16.551 107.459 16.7353C107.501 17.3157 107.769 17.7224 108.26 17.9501C108.462 18.0473 108.683 18.0934 108.928 18.0934C109.472 18.0934 109.884 17.9041 110.161 17.523C110.366 17.2442 110.47 16.7019 110.47 15.8988V11.2671H112.704V16.2057V16.211Z" fill="black"/>
<path d="M123.168 11.2712L119.952 15.7189V19.834H117.718V15.7189L114.61 11.2712H117.279L118.903 13.6064L120.464 11.2712H123.17H123.168Z" fill="black"/>
<path d="M131.031 16.9976C131.031 18.4476 130.394 19.3913 129.119 19.8313C128.674 19.9873 128.195 20.0641 127.683 20.0641C126.608 20.0641 125.612 19.7392 124.693 19.0921L125.65 17.2968C126.322 17.9029 126.98 18.2072 127.625 18.2072C127.916 18.2072 128.16 18.1407 128.363 18.0051C128.598 17.8542 128.716 17.6368 128.716 17.358C128.716 17.1049 128.586 16.8927 128.325 16.7238C128.132 16.5959 127.807 16.468 127.348 16.3377C126.794 16.1739 126.445 16.0613 126.301 16.0001C126.073 15.9029 125.88 15.7904 125.722 15.6625C125.263 15.2865 125.035 14.7188 125.035 13.9565C125.035 13.1944 125.273 12.5038 125.747 11.9821C126.301 11.3682 127.039 11.0613 127.962 11.0613C128.886 11.0613 129.798 11.294 130.687 11.7571L129.794 13.4885C129.305 13.1073 128.814 12.9182 128.316 12.9182C128.076 12.9182 127.862 12.9794 127.672 13.0997C127.458 13.2378 127.351 13.4219 127.351 13.6547C127.351 13.8874 127.49 14.0767 127.774 14.2404C127.9 14.3171 128.279 14.445 128.909 14.6317C129.701 14.8618 130.264 15.1893 130.599 15.6112C130.889 15.9718 131.034 16.4349 131.034 17L131.031 16.9976Z" fill="black"/>
<path d="M146.023 19.8367H143.789V16.2739H140.567V19.8367H138.333V11.2712H140.567V14.5782H143.789V11.2712H146.023V19.8367Z" fill="black"/>
<path d="M158.117 15.5772C158.117 16.7407 157.728 17.7612 156.953 18.6385C156.069 19.6386 154.871 20.1372 153.359 20.1372C151.846 20.1372 150.655 19.6386 149.771 18.6385C148.994 17.7612 148.607 16.7407 148.607 15.5772C148.607 15.0452 148.712 14.5003 148.922 13.9429C149.131 13.3853 149.412 12.907 149.764 12.508C150.648 11.5079 151.846 11.0093 153.359 11.0093C154.871 11.0093 156.067 11.5105 156.953 12.508C157.731 13.3853 158.117 14.4084 158.117 15.5772ZM155.799 15.5772C155.799 14.9735 155.606 14.4518 155.218 14.0118C154.722 13.4493 154.101 13.1679 153.356 13.1679C152.842 13.1679 152.379 13.3111 151.96 13.5976C151.544 13.8841 151.248 14.2676 151.071 14.746C150.971 15.0196 150.92 15.2957 150.92 15.5772C150.92 16.1552 151.113 16.6743 151.502 17.1321C151.981 17.6974 152.6 17.9812 153.356 17.9812C154.113 17.9812 154.734 17.7 155.218 17.1398C155.604 16.6922 155.799 16.1705 155.799 15.5796V15.5772Z" fill="black"/>
<path d="M171.08 19.8367H168.846L168.211 14.9057L166.135 19.8367H165.249L163.269 14.9057L162.541 19.8367H160.312L161.773 11.2712H163.983L165.721 15.8391L167.559 11.2712H169.788L171.084 19.8367H171.08Z" fill="black"/>
<path d="M178.546 19.8367H173.655V11.2712H178.546V13.1282H175.889V14.5911H178.4V16.4479H175.889V17.9799H178.546V19.8367Z" fill="black"/>
<path d="M187.078 16.9978C187.078 18.4478 186.441 19.3916 185.166 19.8316C184.721 19.9876 184.242 20.0643 183.73 20.0643C182.655 20.0643 181.659 19.7395 180.74 19.0924L181.697 17.297C182.369 17.9031 183.028 18.2074 183.672 18.2074C183.963 18.2074 184.207 18.141 184.41 18.0054C184.645 17.8545 184.763 17.6371 184.763 17.3583C184.763 17.1051 184.633 16.8929 184.372 16.7241C184.179 16.5962 183.853 16.4683 183.395 16.3379C182.841 16.1741 182.492 16.0616 182.348 16.0003C182.12 15.9031 181.927 15.7906 181.769 15.6627C181.31 15.2867 181.082 14.719 181.082 13.9567C181.082 13.1946 181.32 12.5041 181.794 11.9824C182.348 11.3684 183.086 11.0615 184.009 11.0615C184.933 11.0615 185.845 11.2943 186.734 11.7573L185.841 13.4888C185.352 13.1076 184.861 12.9184 184.363 12.9184C184.123 12.9184 183.909 12.9797 183.719 13.0999C183.504 13.2381 183.397 13.4221 183.397 13.6549C183.397 13.8876 183.537 14.0769 183.821 14.2406C183.947 14.3174 184.326 14.4453 184.956 14.6319C185.747 14.8621 186.311 15.1896 186.646 15.6114C186.937 15.9721 187.081 16.4351 187.081 17.0002L187.078 16.9978Z" fill="black"/>
<path d="M85.2786 33.9191C84.8808 33.9191 84.5435 33.85 84.2666 33.7119C83.9896 33.5738 83.7802 33.3718 83.636 33.1057C83.4918 32.8398 83.4219 32.515 83.4219 32.1313V31.7553H84.4179V32.0955C84.4179 32.3717 84.4922 32.5841 84.6411 32.7298C84.7901 32.8756 85.0018 32.9524 85.2786 32.9524C85.5556 32.9524 85.7534 32.8782 85.8977 32.7298C86.0419 32.5814 86.1116 32.3693 86.1116 32.0955V31.4306C86.1116 31.226 86.0605 31.0572 85.9558 30.9318C85.8534 30.8039 85.7185 30.6966 85.5556 30.6045C85.3903 30.515 85.2159 30.4255 85.0251 30.3436C84.8342 30.2618 84.6482 30.1671 84.462 30.0675C84.2759 29.9677 84.1036 29.8424 83.9455 29.6991C83.7872 29.5533 83.6616 29.3743 83.5685 29.1595C83.4732 28.9446 83.4266 28.6786 83.4266 28.3615V27.9216C83.4266 27.3537 83.5849 26.9191 83.9035 26.6146C84.2224 26.3103 84.6784 26.1594 85.2718 26.1594C85.865 26.1594 86.2955 26.3128 86.6049 26.6223C86.9121 26.9318 87.0656 27.3717 87.0656 27.942V28.3384H86.0698V27.983C86.0698 27.7042 86.0023 27.4919 85.865 27.3462C85.7278 27.2003 85.5323 27.1262 85.2718 27.1262C84.9948 27.1262 84.7854 27.1953 84.6389 27.3359C84.4946 27.4765 84.4202 27.6735 84.4202 27.9317V28.4075C84.4202 28.63 84.476 28.809 84.5876 28.9421C84.6993 29.0777 84.846 29.1876 85.0251 29.2771C85.2043 29.3666 85.3951 29.4561 85.5952 29.5456C85.7743 29.625 85.9511 29.7093 86.1279 29.7988C86.3048 29.8883 86.4677 29.9984 86.6166 30.1287C86.7654 30.2592 86.8842 30.4305 86.9725 30.6378C87.0611 30.8475 87.1074 31.1108 87.1074 31.4331V32.1289C87.1074 32.7043 86.9493 33.1467 86.6353 33.4536C86.321 33.7605 85.8674 33.9165 85.2763 33.9165L85.2786 33.9191Z" fill="black"/>
<path d="M90.5326 33.8413L92.2962 26.2402H93.2084L94.9698 33.8413H93.8995L92.7499 27.7978L91.6006 33.8413H90.5303H90.5326ZM91.6587 32.184V31.248H93.9204V32.184H91.6587Z" fill="black"/>
<path d="M99.4299 26.2397V33.8409H98.4341V26.2397H99.4299Z" fill="black"/>
<path d="M103.263 33.8369V26.2409H104.133L106.22 32.0695L106.057 32.2051V26.2383H107.007V33.8343H106.125L104.047 28.1871L104.21 28.0516V33.8343H103.261L103.263 33.8369Z" fill="black"/>
<path d="M110.746 27.1809V26.2397H114.45V27.1809H110.746ZM112.097 33.8409V26.8612H113.093V33.8409H112.097Z" fill="black"/>
<path d="M122.719 33.8409V26.2397H123.715V33.8409H122.719ZM123.254 33.8409V32.8997H125.888V33.8409H123.254Z" fill="black"/>
<path d="M131.151 33.9194C130.753 33.9194 130.411 33.8452 130.128 33.6943C129.844 33.5434 129.627 33.3286 129.481 33.0446C129.332 32.7607 129.257 32.4154 129.257 32.0113V28.0702C129.257 27.6635 129.332 27.3157 129.481 27.0317C129.63 26.7478 129.846 26.5304 130.128 26.3821C130.411 26.2338 130.751 26.1597 131.151 26.1597C131.551 26.1597 131.896 26.2338 132.177 26.3821C132.459 26.5304 132.673 26.7454 132.822 27.0317C132.971 27.3157 133.045 27.661 133.045 28.0702V32.0113C133.045 32.4154 132.971 32.7607 132.822 33.0446C132.673 33.3286 132.459 33.546 132.177 33.6943C131.896 33.8426 131.554 33.9194 131.151 33.9194ZM131.151 32.9526C131.435 32.9526 131.654 32.8732 131.812 32.7122C131.97 32.551 132.047 32.3285 132.047 32.042V28.0368C132.047 27.7479 131.968 27.5228 131.812 27.3642C131.654 27.2056 131.435 27.1264 131.151 27.1264C130.867 27.1264 130.644 27.2056 130.488 27.3642C130.332 27.5228 130.255 27.7479 130.255 28.0368V32.042C130.255 32.3285 130.332 32.551 130.488 32.7122C130.644 32.8732 130.865 32.9526 131.151 32.9526Z" fill="black"/>
<path d="M138.357 33.9201C137.796 33.9201 137.368 33.7667 137.073 33.4598C136.777 33.1529 136.626 32.7104 136.626 32.1324V26.2397H137.622V32.1734C137.622 32.424 137.685 32.6157 137.813 32.7513C137.941 32.8868 138.122 32.9533 138.355 32.9533C138.587 32.9533 138.781 32.8868 138.909 32.7513C139.037 32.6183 139.099 32.424 139.099 32.1734V26.2397H140.095V32.1324C140.095 32.7104 139.946 33.1529 139.646 33.4598C139.346 33.7667 138.916 33.9201 138.352 33.9201H138.357Z" fill="black"/>
<path d="M144.769 26.2397V33.8409H143.773V26.2397H144.769Z" fill="black"/>
<path d="M150.405 33.9194C150.007 33.9194 149.67 33.8503 149.393 33.7121C149.116 33.5741 148.907 33.3721 148.762 33.106C148.618 32.8401 148.548 32.5152 148.548 32.1316V31.7556H149.544V32.0958C149.544 32.372 149.619 32.5843 149.768 32.73C149.916 32.8759 150.128 32.9526 150.405 32.9526C150.682 32.9526 150.88 32.8785 151.024 32.73C151.168 32.5817 151.238 32.3694 151.238 32.0958V31.4309C151.238 31.2262 151.187 31.0573 151.082 30.932C150.98 30.8042 150.845 30.6969 150.682 30.6047C150.519 30.5126 150.342 30.4257 150.151 30.3439C149.961 30.2621 149.774 30.1673 149.588 30.0675C149.402 29.9679 149.23 29.8426 149.072 29.6994C148.914 29.5535 148.788 29.3745 148.695 29.1597C148.599 28.9448 148.553 28.6789 148.553 28.3617V27.9218C148.553 27.3539 148.711 26.9192 149.03 26.6149C149.349 26.3106 149.805 26.1597 150.398 26.1597C150.991 26.1597 151.422 26.313 151.731 26.6226C152.041 26.9321 152.192 27.3719 152.192 27.9423V28.3387H151.196V27.9833C151.196 27.7045 151.129 27.4921 150.991 27.3463C150.854 27.2006 150.656 27.1264 150.398 27.1264C150.121 27.1264 149.912 27.1955 149.765 27.3361C149.621 27.4768 149.546 27.6738 149.546 27.932V28.4078C149.546 28.6302 149.602 28.8092 149.714 28.9423C149.826 29.0779 149.972 29.1878 150.151 29.2773C150.331 29.3668 150.521 29.4564 150.721 29.5459C150.901 29.6252 151.078 29.7095 151.254 29.799C151.431 29.8885 151.594 29.9986 151.743 30.1289C151.892 30.2594 152.011 30.4308 152.099 30.6379C152.187 30.8478 152.232 31.1111 152.232 31.4333V32.1291C152.232 32.7045 152.073 33.147 151.759 33.4539C151.445 33.7608 150.991 33.9168 150.401 33.9168L150.405 33.9194Z" fill="black"/>
<path d="M77.7243 30.1493C77.7243 29.8321 77.4614 29.5765 77.145 29.5842L52.7744 30.1493L77.145 30.7146C77.4637 30.7222 77.7243 30.4665 77.7243 30.1493Z" fill="black"/>
<path d="M157.933 30.1469C157.933 29.7915 158.196 29.5024 158.512 29.5127L182.882 30.1469L158.512 30.7813C158.193 30.789 157.933 30.5025 157.933 30.1469Z" fill="black"/>
</svg>
