<svg width="189" height="51" viewBox="0 0 189 51" fill="none" xmlns="http://www.w3.org/2000/svg">
<circle cx="25.137" cy="25.5796" r="25.0041" fill="#F7F7F7"/>
<circle cx="25.1368" cy="25.5797" r="22.4454" fill="#F4F4F4"/>
<mask id="mask0_136_189" style="mask-type:alpha" maskUnits="userSpaceOnUse" x="2" y="3" width="46" height="46">
<circle cx="25.1368" cy="25.5797" r="22.4454" fill="#F4F4F4"/>
</mask>
<g mask="url(#mask0_136_189)">
<path d="M1.58109 29.2627L7.00341 20.2357L15.076 29.4731C19.2869 28.9572 23.5299 28.6969 27.7883 28.6969C28.3485 28.6969 28.9006 28.7017 29.4463 28.7106L40.9987 14.89L49.326 29.2627H50.2498L41.2115 13.6648L32.943 15.8806L31.5743 17.5282V14.3919L29.6793 14.1976V16.7576L26.9089 17.5024H21.4898L17.9037 22.4838L17.6465 22.2678L18.8661 20.5848H15.9014V18.7349L14.4924 18.1513V21.7592L13.3986 20.3204L8.46398 19.52L6.67373 19.229L0.646875 29.2619L-0.768555 31.6188H0.164855L1.58028 29.2619L1.58109 29.2627ZM19.6891 21.6834L22.1088 18.3214L25.67 22.5805H27.9535L25.1589 26.5415L19.6673 26.4931L19.6883 21.6842L19.6891 21.6834Z" fill="#263678"/>
<path d="M39.2042 23.4307H37.5034V25.5208H39.2042V23.4307Z" fill="#814840"/>
<path d="M41.2452 23.4307H39.5444V25.5208H41.2452V23.4307Z" fill="#814840"/>
<path d="M39.5444 23.0906H41.2452V22.823C41.2452 21.8469 40.498 21.0456 39.5444 20.9602V23.0906Z" fill="#814840"/>
<path d="M41.2452 25.8611H39.5444V26.8815H41.2452V25.8611Z" fill="#814840"/>
<path d="M39.2042 23.0906V20.9602C38.2506 21.0465 37.5034 21.8469 37.5034 22.823V23.0906H39.2042Z" fill="#814840"/>
<path d="M39.2042 25.8611H37.5034V26.8815H39.2042V25.8611Z" fill="#814840"/>
<path d="M7.48454 26.8862H6.18115V28.4879H7.48454V26.8862Z" fill="#814840"/>
<path d="M9.04899 26.8862H7.74561V28.4879H9.04899V26.8862Z" fill="#814840"/>
<path d="M7.74561 26.6252H9.04899V26.4204C9.04899 25.6724 8.4767 25.059 7.74561 24.9929V26.6252Z" fill="#814840"/>
<path d="M9.04899 28.7483H7.74561V29.5302H9.04899V28.7483Z" fill="#814840"/>
<path d="M7.48454 26.6252V24.9929C6.75426 25.059 6.18115 25.6724 6.18115 26.4204V26.6252H7.48454Z" fill="#814840"/>
<path d="M7.48454 28.7483H6.18115V29.5302H7.48454V28.7483Z" fill="#814840"/>
<path d="M21.9627 22.6794H21.1011V23.7378H21.9627V22.6794Z" fill="#814840"/>
<path d="M22.9969 22.6794H22.1353V23.7378H22.9969V22.6794Z" fill="#814840"/>
<path d="M22.1353 22.507H22.9969V22.3716C22.9969 21.8775 22.6181 21.4713 22.1353 21.4277V22.507Z" fill="#814840"/>
<path d="M22.9969 23.9104H22.1353V24.4271H22.9969V23.9104Z" fill="#814840"/>
<path d="M21.9627 22.507V21.4277C21.4799 21.4713 21.1011 21.8767 21.1011 22.3716V22.507H21.9627Z" fill="#814840"/>
<path d="M21.9627 23.9104H21.1011V24.4271H21.9627V23.9104Z" fill="#814840"/>
<path d="M26.909 17.5015L30.7394 22.5578L25.6701 22.5804L21.4907 17.5015H26.909Z" fill="#436DB5"/>
<path d="M49.3259 29.2626L40.9985 14.8899L41.5612 14.27L50.2488 29.2626" fill="#436DB5"/>
<path d="M31.5742 17.5281L29.6792 16.7575V14.0516L31.5742 13.468V17.5281Z" fill="#436DB5"/>
<path d="M27.6909 28.6967L25.1478 26.5413L19.6916 26.3712V21.7058L19.108 22.532L17.8868 22.5005L17.6458 22.2676L18.8654 20.5845H15.9007L14.4917 21.759L13.3979 20.3202L6.67383 19.2288L15.6686 29.4011C19.6521 28.9361 23.6646 28.6999 27.6909 28.6959V28.6967Z" fill="#436DB5"/>
<path d="M-3.48975 34.0981C-3.48975 34.0981 23.5799 26.6139 52.934 32.64C52.934 32.64 27.9536 24.1836 -3.48975 34.0981Z" fill="#814840"/>
<path d="M2.43929 31.7655V29.5497L2.61098 29.2627L7.45052 21.2062L7.04427 20.75L1.93067 29.2627L0.661133 31.377L0.707884 32.2701L2.43929 31.7655Z" fill="#EBEBEB"/>
<path d="M46.2023 30.2105L48.556 30.7973L48.4794 28.7524L40.946 15.5903L40.0698 16.6358L46.2023 27.2733V30.2105Z" fill="#EBEBEB"/>
<path d="M-11.3438 38.1193C-11.3438 38.1193 20.067 67.4339 62.1919 36.1507C62.1919 36.1507 29.6358 24.7409 -11.3438 38.1193Z" fill="#258B43"/>
</g>
<path d="M61.4802 22.4534C60.7758 22.7328 60.1232 22.8713 59.5245 22.8713C58.4797 22.8713 57.5453 22.538 56.7188 21.8688C55.667 21.0142 55.1411 19.9014 55.1411 18.5303C55.1411 17.1591 55.667 16.0392 56.7188 15.1846C57.5453 14.5179 58.4844 14.1821 59.5409 14.1821C60.1161 14.1821 60.7618 14.3206 61.4778 14.6V17.1803C61.2759 16.9314 61.0693 16.7436 60.858 16.6168C60.473 16.3844 60.0598 16.2693 59.6184 16.2693C59.0596 16.2693 58.5736 16.4384 58.158 16.7741C57.6345 17.2014 57.3739 17.7837 57.3739 18.5279C57.3739 19.2722 57.6345 19.8497 58.158 20.2747C58.5713 20.6104 59.0572 20.7795 59.6184 20.7795C60.0598 20.7795 60.473 20.6621 60.858 20.432C61.0646 20.3099 61.2712 20.1221 61.4778 19.8685V22.4534H61.4802Z" fill="black"/>
<path d="M71.3834 22.6459H69.2281V19.197H66.1196V22.6459H63.9644V14.3582H66.1196V17.5582H69.2281V14.3582H71.3834V22.6459Z" fill="black"/>
<path d="M81.1359 22.6459H78.4594L76.4004 19.4646V22.6459H74.2451V14.3582H77.5954C78.5745 14.3582 79.2999 14.6516 79.7695 15.2386C80.1498 15.7128 80.34 16.2693 80.34 16.9079C80.34 17.6404 80.1217 18.225 79.685 18.6617C79.4056 18.9411 79.0205 19.1359 78.5322 19.2439L81.1359 22.6436V22.6459ZM78.1049 17.0276C78.1049 16.7341 77.9969 16.4853 77.7809 16.2834C77.5766 16.0932 77.2503 15.9993 76.7995 15.9993H76.3981V18.063H76.7995C77.255 18.063 77.5813 17.9691 77.7809 17.7789C77.9969 17.5723 78.1049 17.3234 78.1049 17.0276Z" fill="black"/>
<path d="M85.315 22.6459H83.1597V14.3582H85.315V22.6459Z" fill="black"/>
<path d="M93.9198 19.9062C93.9198 21.3078 93.3047 22.2211 92.0745 22.6484C91.6448 22.7987 91.1846 22.8738 90.6893 22.8738C89.6539 22.8738 88.6913 22.5592 87.8062 21.9324L88.7288 20.195C89.3768 20.7819 90.0131 21.0754 90.6329 21.0754C90.9123 21.0754 91.1494 21.0097 91.3443 20.8782C91.572 20.7303 91.6847 20.5237 91.6847 20.2537C91.6847 20.0095 91.5579 19.8029 91.3067 19.6409C91.1212 19.5188 90.8066 19.3944 90.3629 19.2676C89.8276 19.1103 89.4919 19 89.3534 18.9413C89.135 18.8473 88.9472 18.7393 88.7946 18.6149C88.3532 18.251 88.1325 17.7016 88.1325 16.9644C88.1325 16.2272 88.3602 15.5604 88.8181 15.0533C89.3534 14.4593 90.0647 14.1611 90.9546 14.1611C91.8444 14.1611 92.7248 14.3865 93.5841 14.835L92.7225 16.5113C92.2529 16.1427 91.7763 15.9595 91.2973 15.9595C91.0672 15.9595 90.8583 16.0182 90.6775 16.1356C90.4709 16.2695 90.3676 16.4479 90.3676 16.6709C90.3676 16.894 90.5038 17.0795 90.7761 17.2368C90.8982 17.3095 91.2621 17.4363 91.8702 17.6148C92.6332 17.8378 93.1756 18.1547 93.4996 18.5633C93.779 18.9131 93.9198 19.3592 93.9198 19.9062Z" fill="black"/>
<path d="M107.267 20.2911C107.267 20.9109 107.091 21.4133 106.739 21.803C106.229 22.3665 105.452 22.6459 104.407 22.6459H100.958V14.3582H104.163C105.717 14.3582 106.495 15.0789 106.495 16.5205C106.495 16.9548 106.41 17.3164 106.239 17.6075C106.098 17.854 105.879 18.0653 105.584 18.2391C106.246 18.3776 106.697 18.6429 106.938 19.035C107.157 19.3942 107.265 19.8144 107.265 20.2911H107.267ZM104.499 16.8069C104.499 16.4313 104.33 16.1824 103.992 16.0603C103.872 16.0204 103.71 15.9993 103.508 15.9993H103.116V17.6193H103.508C103.879 17.6193 104.144 17.5277 104.306 17.3469C104.436 17.2013 104.499 17.0206 104.499 16.8069ZM105.112 20.1455C105.112 19.6642 104.863 19.3801 104.368 19.2956C104.21 19.2721 103.94 19.2604 103.558 19.2604H103.116V21.0095H103.595C104.144 21.0095 104.527 20.9437 104.746 20.8146C104.992 20.669 105.114 20.446 105.114 20.1478L105.112 20.1455Z" fill="black"/>
<path d="M116.994 19.1383C116.994 19.636 116.954 20.061 116.872 20.4131C116.747 20.9602 116.447 21.4579 115.973 21.9063C115.301 22.5426 114.402 22.8595 113.277 22.8595C112.153 22.8595 111.237 22.5356 110.594 21.8876C110.253 21.5471 110.021 21.1198 109.897 20.6057C109.807 20.2417 109.763 19.7511 109.763 19.1359V14.3582H111.918V18.8401C111.918 19.1993 111.925 19.4693 111.937 19.6478C111.977 20.2089 112.235 20.601 112.707 20.824C112.902 20.9179 113.115 20.9625 113.35 20.9625C113.876 20.9625 114.273 20.7794 114.54 20.4108C114.738 20.1408 114.839 19.6172 114.839 18.8401V14.3582H116.994V19.1359V19.1383Z" fill="black"/>
<path d="M127.087 14.3606L123.986 18.6641V22.646H121.831V18.6641L118.833 14.3606H121.406L122.972 16.6192L124.477 14.3606H127.087Z" fill="black"/>
<path d="M134.671 19.9062C134.671 21.3078 134.056 22.2211 132.825 22.6484C132.396 22.7987 131.936 22.8738 131.44 22.8738C130.405 22.8738 129.442 22.5592 128.557 21.9324L129.48 20.195C130.128 20.7819 130.764 21.0754 131.384 21.0754C131.663 21.0754 131.9 21.0097 132.095 20.8782C132.323 20.7303 132.436 20.5237 132.436 20.2537C132.436 20.0095 132.309 19.8029 132.058 19.6409C131.872 19.5188 131.558 19.3944 131.116 19.2676C130.581 19.1103 130.245 19 130.107 18.9413C129.888 18.8473 129.701 18.7393 129.548 18.6149C129.107 18.251 128.886 17.7016 128.886 16.9644C128.886 16.2272 129.114 15.5604 129.571 15.0533C130.107 14.4593 130.818 14.1611 131.708 14.1611C132.598 14.1611 133.478 14.3865 134.337 14.835L133.476 16.5113C133.006 16.1427 132.53 15.9595 132.051 15.9595C131.821 15.9595 131.612 16.0182 131.431 16.1356C131.224 16.2695 131.121 16.4479 131.121 16.6709C131.121 16.894 131.257 17.0795 131.529 17.2368C131.652 17.3095 132.015 17.4363 132.624 17.6148C133.387 17.8378 133.929 18.1547 134.253 18.5633C134.532 18.9131 134.673 19.3592 134.673 19.9062H134.671Z" fill="black"/>
<path d="M149.13 22.6459H146.975V19.197H143.867V22.6459H141.711V14.3582H143.867V17.5582H146.975V14.3582H149.13V22.6459Z" fill="black"/>
<path d="M160.794 18.5303C160.794 19.6549 160.421 20.6433 159.672 21.4932C158.818 22.4605 157.662 22.9442 156.204 22.9442C154.747 22.9442 153.598 22.4605 152.744 21.4932C151.995 20.6433 151.622 19.6549 151.622 18.5303C151.622 18.0161 151.723 17.4902 151.924 16.9479C152.126 16.4079 152.399 15.9454 152.737 15.5603C153.591 14.593 154.747 14.1094 156.204 14.1094C157.662 14.1094 158.818 14.593 159.672 15.5603C160.421 16.4102 160.794 17.3986 160.794 18.5279V18.5303ZM158.562 18.5303C158.562 17.9457 158.376 17.4409 158.003 17.0136C157.524 16.4689 156.925 16.1989 156.207 16.1989C155.711 16.1989 155.263 16.3374 154.862 16.6168C154.46 16.8962 154.174 17.2648 154.002 17.7273C153.904 17.9903 153.857 18.2579 153.857 18.5303C153.857 19.0914 154.042 19.5915 154.415 20.0329C154.878 20.5799 155.474 20.8546 156.204 20.8546C156.935 20.8546 157.533 20.5823 158.001 20.0399C158.374 19.6056 158.559 19.1032 158.559 18.5303H158.562Z" fill="black"/>
<path d="M173.297 22.6459H171.142L170.529 17.8728L168.528 22.6459H167.674L165.763 17.8728L165.058 22.6459H162.91L164.319 14.3582H166.451L168.127 18.7791L169.9 14.3582H172.048L173.299 22.6459H173.297Z" fill="black"/>
<path d="M180.5 22.6459H175.783V14.3582H180.5V16.1542H177.938V17.5676H180.361V19.3637H177.938V20.8451H180.5V22.6459Z" fill="black"/>
<path d="M188.729 19.9062C188.729 21.3078 188.114 22.2211 186.884 22.6484C186.454 22.7987 185.994 22.8738 185.498 22.8738C184.463 22.8738 183.5 22.5592 182.615 21.9324L183.538 20.195C184.186 20.7819 184.822 21.0754 185.442 21.0754C185.721 21.0754 185.959 21.0097 186.153 20.8782C186.381 20.7303 186.494 20.5237 186.494 20.2537C186.494 20.0095 186.367 19.8029 186.116 19.6409C185.93 19.5188 185.616 19.3944 185.174 19.2676C184.639 19.1103 184.303 19 184.165 18.9413C183.946 18.8473 183.759 18.7393 183.606 18.6149C183.165 18.251 182.944 17.7016 182.944 16.9644C182.944 16.2272 183.172 15.5604 183.629 15.0533C184.165 14.4593 184.876 14.1611 185.766 14.1611C186.656 14.1611 187.536 14.3865 188.396 14.835L187.534 16.5113C187.064 16.1427 186.588 15.9595 186.109 15.9595C185.879 15.9595 185.67 16.0182 185.489 16.1356C185.282 16.2695 185.179 16.4479 185.179 16.6709C185.179 16.894 185.315 17.0795 185.588 17.2368C185.71 17.3095 186.074 17.4363 186.682 17.6148C187.445 17.8378 187.987 18.1547 188.311 18.5633C188.59 18.9131 188.731 19.3592 188.731 19.9062H188.729Z" fill="black"/>
<path d="M77.5886 33.3965C77.5886 33.1617 77.3961 32.9739 77.1613 32.9786L59.1865 33.3965L77.1613 33.8144C77.3961 33.8191 77.5886 33.6313 77.5886 33.3965Z" fill="black"/>
<path d="M166.274 33.3965C166.274 33.1335 166.467 32.9199 166.702 32.9269L184.676 33.3965L166.702 33.866C166.467 33.8731 166.274 33.6594 166.274 33.3965Z" fill="black"/>
<path d="M84.1154 29.6165H84.9606V36.9721H84.0802V31.4008L84.1671 31.7248L82.9016 35.7677H82.2841L81.0234 31.8257L81.1407 31.4008V36.9721H80.2251V29.6165H81.1055L82.594 34.2346L84.1178 29.6165H84.1154Z" fill="black"/>
<path d="M88.6655 29.6165H89.6258V36.9721H88.6655V29.6165ZM89.1656 29.6165H91.821V30.5274H89.1656V29.6165ZM89.1656 32.8635H91.5698V33.7744H89.1656V32.8635ZM89.1656 36.0612H91.821V36.9721H89.1656V36.0612Z" fill="black"/>
<path d="M94.9717 29.6165H98.5427V30.5274H94.9717V29.6165ZM96.2771 30.2175H97.2373V36.9721H96.2771V30.2175Z" fill="black"/>
<path d="M101.945 29.6118H102.905V36.9722H101.945V29.6118ZM102.396 32.9504H103.75C103.922 32.9504 104.07 32.9175 104.194 32.8541C104.316 32.7907 104.41 32.6968 104.476 32.5771C104.539 32.455 104.572 32.3094 104.572 32.1357V31.3868C104.572 31.2036 104.539 31.0487 104.476 30.9195C104.412 30.7904 104.318 30.6918 104.194 30.6237C104.072 30.5556 103.924 30.5228 103.75 30.5228H102.396V29.6118H103.666C104.058 29.6118 104.394 29.6776 104.673 29.8067C104.952 29.9358 105.166 30.1283 105.314 30.3795C105.462 30.6308 105.535 30.9313 105.535 31.2835V32.1427C105.535 32.5043 105.462 32.8142 105.314 33.0701C105.166 33.326 104.955 33.5256 104.673 33.6594C104.391 33.7933 104.058 33.8613 103.666 33.8613H102.396V32.9504ZM103.661 33.6336L104.567 33.4012L105.741 36.9722H104.689L103.663 33.6336H103.661Z" fill="black"/>
<path d="M109.958 36.8313C109.685 36.6858 109.476 36.4745 109.333 36.1998C109.19 35.9227 109.117 35.5917 109.117 35.202V31.3868C109.117 30.9947 109.19 30.6613 109.333 30.3843C109.476 30.1072 109.685 29.8983 109.958 29.7551C110.23 29.6118 110.559 29.5391 110.944 29.5391C111.329 29.5391 111.658 29.6118 111.93 29.7551C112.202 29.8983 112.411 30.1072 112.554 30.3843C112.698 30.6613 112.77 30.9947 112.77 31.3868V35.202C112.77 35.5893 112.698 35.9227 112.554 36.1998C112.411 36.4768 112.202 36.6881 111.93 36.8313C111.658 36.9769 111.329 37.0497 110.944 37.0497C110.559 37.0497 110.23 36.9769 109.958 36.8313ZM111.411 36.0073C111.54 35.9392 111.639 35.8382 111.707 35.7067C111.775 35.5753 111.808 35.4156 111.808 35.2301V31.3539C111.808 31.1684 111.775 31.0088 111.707 30.8773C111.639 30.7458 111.54 30.6449 111.411 30.5768C111.282 30.5087 111.125 30.4735 110.944 30.4735C110.763 30.4735 110.606 30.5087 110.477 30.5768C110.347 30.6449 110.249 30.7458 110.181 30.8773C110.113 31.0088 110.08 31.1684 110.08 31.3539V35.2301C110.08 35.4156 110.113 35.5753 110.181 35.7067C110.249 35.8382 110.347 35.9392 110.477 36.0073C110.606 36.0753 110.763 36.1106 110.944 36.1106C111.125 36.1106 111.282 36.0753 111.411 36.0073Z" fill="black"/>
<path d="M121.253 29.6165H122.213V36.9722H121.253V29.6165ZM121.866 36.0612H123.206C123.382 36.0612 123.516 36.0096 123.61 35.9039C123.704 35.7983 123.751 35.6504 123.751 35.4578V31.1262C123.751 30.9336 123.704 30.7857 123.61 30.6801C123.516 30.5744 123.38 30.5228 123.206 30.5228H121.866V29.6118H123.176C123.502 29.6118 123.782 29.6705 124.012 29.7902C124.242 29.91 124.415 30.0837 124.535 30.3138C124.655 30.5439 124.716 30.8209 124.716 31.1496V35.4297C124.716 35.7537 124.655 36.0307 124.533 36.2608C124.411 36.4909 124.237 36.667 124.007 36.7867C123.777 36.9064 123.5 36.9651 123.171 36.9651H121.866V36.0542V36.0612Z" fill="black"/>
<path d="M128.32 29.6165H129.28V36.9721H128.32V29.6165ZM128.82 29.6165H131.475V30.5274H128.82V29.6165ZM128.82 32.8635H131.224V33.7744H128.82V32.8635ZM128.82 36.0612H131.475V36.9721H128.82V36.0612Z" fill="black"/>
<path d="M134.626 29.6165H138.197V30.5274H134.626V29.6165ZM135.929 30.2175H136.889V36.9721H135.929V30.2175Z" fill="black"/>
<path d="M141.599 29.6118H142.559V36.9722H141.599V29.6118ZM142.05 32.9504H143.407C143.578 32.9504 143.726 32.9175 143.851 32.8541C143.973 32.7907 144.067 32.6968 144.132 32.5771C144.196 32.455 144.229 32.3094 144.229 32.1357V31.3868C144.229 31.2036 144.196 31.0487 144.132 30.9195C144.069 30.7904 143.975 30.6918 143.851 30.6237C143.729 30.5556 143.581 30.5228 143.407 30.5228H142.05V29.6118H143.32C143.712 29.6118 144.048 29.6776 144.327 29.8067C144.607 29.9358 144.82 30.1283 144.968 30.3795C145.114 30.6308 145.189 30.9313 145.189 31.2835V32.1427C145.189 32.5043 145.116 32.8142 144.968 33.0701C144.823 33.3284 144.609 33.5256 144.327 33.6594C144.046 33.7933 143.712 33.8613 143.32 33.8613H142.05V32.9504ZM143.313 33.6336L144.219 33.4012L145.393 36.9722H144.341L143.315 33.6336H143.313Z" fill="black"/>
<path d="M149.61 36.8313C149.337 36.6858 149.128 36.4745 148.985 36.1998C148.842 35.9251 148.769 35.5917 148.769 35.202V31.3868C148.769 30.9947 148.839 30.6613 148.985 30.3843C149.131 30.1072 149.337 29.8983 149.61 29.7551C149.882 29.6118 150.211 29.5391 150.596 29.5391C150.981 29.5391 151.309 29.6118 151.582 29.7551C151.854 29.8983 152.063 30.1072 152.206 30.3843C152.349 30.6613 152.422 30.9947 152.422 31.3868V35.202C152.422 35.5893 152.352 35.9227 152.206 36.1998C152.063 36.4768 151.854 36.6881 151.582 36.8313C151.309 36.9769 150.981 37.0497 150.596 37.0497C150.211 37.0497 149.882 36.9769 149.61 36.8313ZM151.065 36.0073C151.194 35.9392 151.293 35.8382 151.361 35.7067C151.429 35.5753 151.462 35.4156 151.462 35.2301V31.3539C151.462 31.1684 151.429 31.0088 151.361 30.8773C151.293 30.7458 151.194 30.6449 151.065 30.5768C150.936 30.5087 150.779 30.4735 150.598 30.4735C150.417 30.4735 150.26 30.5087 150.131 30.5768C150.002 30.6449 149.903 30.7458 149.835 30.8773C149.767 31.0088 149.734 31.1684 149.734 31.3539V35.2301C149.734 35.4156 149.767 35.5753 149.835 35.7067C149.903 35.8382 150.002 35.9392 150.131 36.0073C150.26 36.0753 150.417 36.1106 150.598 36.1106C150.779 36.1106 150.936 36.0753 151.065 36.0073Z" fill="black"/>
<path d="M156.979 36.9721H156.019V29.6165H156.979V36.9721Z" fill="black"/>
<path d="M160.574 29.6165H164.145V30.5274H160.574V29.6165ZM161.879 30.2175H162.839V36.9721H161.879V30.2175Z" fill="black"/>
</svg>
