<svg width="188" height="45" viewBox="0 0 188 45" fill="none" xmlns="http://www.w3.org/2000/svg">
<path d="M23.1062 44.3214C35.4155 44.3214 45.3941 34.4184 45.3941 22.2024C45.3941 9.98644 35.4155 0.0834351 23.1062 0.0834351C10.797 0.0834351 0.818359 9.98644 0.818359 22.2024C0.818359 34.4184 10.797 44.3214 23.1062 44.3214Z" fill="#B0B0B0" fill-opacity="0.1"/>
<mask id="mask0_322_2063" style="mask-type:luminance" maskUnits="userSpaceOnUse" x="2" y="1" width="43" height="42">
<path d="M23.1059 42.9503C34.6522 42.9503 44.0123 33.6611 44.0123 22.2023C44.0123 10.7435 34.6522 1.45435 23.1059 1.45435C11.5596 1.45435 2.19946 10.7435 2.19946 22.2023C2.19946 33.6611 11.5596 42.9503 23.1059 42.9503Z" fill="white"/>
</mask>
<g mask="url(#mask0_322_2063)">
<path d="M82.6744 20.1521C82.6744 52.8848 55.9722 79.4645 22.9783 79.4645C-10.0154 79.4645 -36.7177 52.8848 -36.7177 20.1521C-36.7177 -12.5808 -10.0154 -39.1605 22.9783 -39.1605C55.9722 -39.1605 82.6744 -12.5808 82.6744 20.1521Z" fill="#F4F4F4"/>
<g style="mix-blend-mode:hard-light">
<path d="M82.6744 20.1521C82.6744 52.8848 55.9722 79.4645 22.9783 79.4645C-10.0154 79.4645 -36.7177 52.8848 -36.7177 20.1521C-36.7177 -12.5808 -10.0154 -39.1605 22.9783 -39.1605C55.9722 -39.1605 82.6744 -12.5808 82.6744 20.1521Z" stroke="#C7C6C7" stroke-width="53.2192"/>
</g>
<path d="M35.3743 18.4132L33.4289 18.8331C31.4254 14.1655 28.8909 10.3228 26.0651 8.59271C27.8302 8.81729 29.5169 9.91702 31.0761 11.6246C31.0769 11.6269 31.0784 11.6276 31.0798 11.6299C32.6602 13.3607 34.1085 15.7151 35.3743 18.414V18.4132Z" fill="#AB1D39"/>
<path d="M26.0652 8.5929C25.8426 8.56445 25.6201 8.55023 25.396 8.55023C20.7607 8.55023 16.6094 14.6934 13.817 22.2636L13.5053 22.3152L13.4202 23.2046L10.7454 22.6453C13.5349 14.6171 17.9974 7.60547 22.8381 7.60547C23.9455 7.60547 25.0249 7.95657 26.0652 8.5929Z" fill="#C1A22E"/>
<path d="M31.063 11.6097C26.4162 6.28546 21.4851 7.76774 21.4851 7.76774L21.4972 7.7827C21.94 7.66592 22.3882 7.60529 22.8385 7.60529C23.9459 7.60529 25.0253 7.95639 26.0656 8.59273C27.8255 8.81655 29.5068 9.91105 31.063 11.6089V11.6097Z" fill="#0D84A9"/>
<path d="M35.3743 18.4132L33.4289 18.8331C31.4254 14.1655 28.8909 10.3228 26.0651 8.59271C27.8302 8.81729 29.5169 9.91702 31.0761 11.6246C31.0769 11.6269 31.0784 11.6276 31.0798 11.6299C32.6602 13.3607 34.1085 15.7151 35.3743 18.414V18.4132Z" fill="#AB1D39"/>
<path d="M26.0652 8.5929C25.8426 8.56445 25.6201 8.55023 25.396 8.55023C20.7607 8.55023 16.6094 14.6934 13.817 22.2636L13.5053 22.3152L13.4202 23.2046L10.7454 22.6453C13.5349 14.6171 17.9974 7.60547 22.8381 7.60547C23.9455 7.60547 25.0249 7.95657 26.0652 8.5929Z" fill="#C1A22E"/>
<path d="M31.063 11.6097C26.4162 6.28546 21.4851 7.76774 21.4851 7.76774L21.4972 7.7827C21.94 7.66592 22.3882 7.60529 22.8385 7.60529C23.9459 7.60529 25.0253 7.95639 26.0656 8.59273C27.8255 8.81655 29.5068 9.91105 31.063 11.6089V11.6097Z" fill="#0D84A9"/>
<path d="M4.13582 32.0875L8.57059 24.7616L15.1724 32.2582C18.6161 31.8391 22.0861 31.6279 25.568 31.6279C26.026 31.6279 26.4777 31.6316 26.9236 31.6392L36.3702 20.4232L43.1803 32.0875H43.9354L36.5452 19.4283L29.7832 21.2265L28.6639 22.5635V20.0183L27.1138 19.8604V21.9378L24.8484 22.5419H20.4173L17.4846 26.5852L17.274 26.4099L18.2713 25.0445H15.8468V23.5428L14.6942 23.0697V25.9975L13.8003 24.8297L9.76536 24.1798L8.30191 23.944L3.37306 32.0868L2.21521 33.9996H2.97862L4.13648 32.0868L4.13582 32.0875ZM18.9443 25.9361L20.9235 23.2073L23.836 26.6638H25.7039L23.4189 29.8784L18.9276 29.8388L18.9449 25.9353L18.9443 25.9361Z" fill="#0D4D8C"/>
<path d="M34.9043 27.3549H33.5132V29.0506H34.9043V27.3549Z" fill="#AB1D39"/>
<path d="M36.5722 27.3549H35.1813V29.0506H36.5722V27.3549Z" fill="#AB1D39"/>
<path d="M35.1813 27.0787H36.5722V26.8614C36.5722 26.0694 35.9613 25.4197 35.1813 25.3493V27.0778V27.0787Z" fill="#AB1D39"/>
<path d="M36.5722 29.3265H35.1813V30.1546H36.5722V29.3265Z" fill="#AB1D39"/>
<path d="M34.9043 27.0784V25.3499C34.1242 25.4195 33.5132 26.07 33.5132 26.862V27.0793H34.9043V27.0784Z" fill="#AB1D39"/>
<path d="M34.9043 29.3265H33.5132V30.1546H34.9043V29.3265Z" fill="#AB1D39"/>
<path d="M8.96434 30.1591H7.89844V31.4587H8.96434V30.1591Z" fill="#AB1D39"/>
<path d="M10.2431 30.1591H9.17725V31.4587H10.2431V30.1591Z" fill="#AB1D39"/>
<path d="M9.17725 29.9472H10.2431V29.781C10.2431 29.1739 9.77471 28.676 9.17725 28.6221V29.9472Z" fill="#AB1D39"/>
<path d="M10.2431 31.6697H9.17725V32.3046H10.2431V31.6697Z" fill="#AB1D39"/>
<path d="M8.96336 29.9472V28.6221C8.3659 28.6752 7.89746 29.1739 7.89746 29.781V29.9472H8.96336Z" fill="#AB1D39"/>
<path d="M8.96434 31.6697H7.89844V32.3046H8.96434V31.6697Z" fill="#AB1D39"/>
<path d="M20.8039 26.7446H20.0992V27.6033H20.8039V26.7446Z" fill="#AB1D39"/>
<path d="M21.649 26.7446H20.9446V27.6033H21.649V26.7446Z" fill="#AB1D39"/>
<path d="M20.9446 26.6047H21.649V26.4946C21.649 26.0933 21.3398 25.764 20.9446 25.7288V26.6047Z" fill="#AB1D39"/>
<path d="M21.649 27.7433H20.9446V28.1626H21.649V27.7433Z" fill="#AB1D39"/>
<path d="M20.8039 26.6047V25.7288C20.4086 25.764 20.0992 26.0933 20.0992 26.4946V26.6047H20.8039Z" fill="#AB1D39"/>
<path d="M20.8039 27.7433H20.0992V28.1626H20.8039V27.7433Z" fill="#AB1D39"/>
<path d="M24.8487 22.5425L27.9814 26.6457L23.8356 26.6645L20.4177 22.5425H24.8487Z" fill="#0D84A9"/>
<path d="M43.1807 32.0877L36.3706 20.4233L36.8315 19.9203L43.9358 32.0877" fill="#0D84A9"/>
<path d="M28.6639 22.5643L27.1138 21.9384V19.7419L28.6639 19.2687V22.5643Z" fill="#0D84A9"/>
<path d="M25.4884 31.6288L23.4087 29.8793L18.9468 29.7415V25.955L18.47 26.6258L17.4713 26.6003L17.2743 26.4117L18.2716 25.0462H15.8471L14.6945 25.9992L13.8006 24.8313L8.30151 23.9457L15.657 32.2016C18.9151 31.8243 22.1964 31.6325 25.4884 31.6296V31.6288Z" fill="#0D84A9"/>
<path d="M-0.010376 37.7211C-0.010376 37.7211 19.6988 55.3535 46.131 36.5376C46.131 36.5376 25.7027 29.6749 -0.010376 37.7211Z" fill="#258B43"/>
<path d="M4.83809 34.1186V32.3205L4.97839 32.0876L8.9364 25.5491L8.60386 25.1793L4.42257 32.0876L3.38379 33.8034L3.42217 34.5289L4.83809 34.1186Z" fill="#EBEBEB"/>
<path d="M40.6263 32.8574L42.5514 33.3335L42.4888 31.6739L36.3281 20.9917L35.6116 21.8407L40.6263 30.4737V32.8574Z" fill="#EBEBEB"/>
</g>
<path d="M55.8845 19.3714C55.1539 19.6604 54.4791 19.8036 53.8579 19.8036C52.7759 19.8036 51.8057 19.4583 50.9494 18.7678C49.8582 17.8854 49.3137 16.7344 49.3137 15.3175C49.3137 13.9006 49.8582 12.7421 50.9494 11.8597C51.8057 11.1693 52.7806 10.824 53.8765 10.824C54.4721 10.824 55.1423 10.9672 55.8845 11.2561V13.9237C55.6751 13.6679 55.461 13.4735 55.2423 13.3432C54.8421 13.1028 54.414 12.9826 53.9556 12.9826C53.3762 12.9826 52.8713 13.1565 52.4432 13.5042C51.9011 13.9441 51.6288 14.5478 51.6288 15.3151C51.6288 16.0823 51.9011 16.6807 52.4432 17.1207C52.8713 17.4685 53.3762 17.6424 53.9556 17.6424C54.414 17.6424 54.8421 17.5222 55.2423 17.2818C55.4564 17.1565 55.6704 16.9621 55.8845 16.7013V19.3688V19.3714Z" fill="black"/>
<path d="M66.1535 19.5745H63.9198V16.0117H60.6972V19.5745H58.4635V11.009H60.6972V14.316H63.9198V11.009H66.1535V19.5745Z" fill="black"/>
<path d="M76.2624 19.5745H73.4866L71.3528 16.2879V19.5745H69.1193V11.009H72.593C73.6074 11.009 74.3591 11.3135 74.8453 11.9196C75.2409 12.4081 75.4364 12.9835 75.4364 13.646C75.4364 14.4031 75.2107 15.0066 74.757 15.4593C74.4684 15.7483 74.0682 15.9478 73.5611 16.0604L76.2624 19.5745ZM73.1235 13.7662C73.1235 13.4618 73.0119 13.206 72.7885 12.9963C72.5768 12.7995 72.2394 12.7023 71.7718 12.7023H71.3553V14.8352H71.7718C72.244 14.8352 72.5814 14.738 72.7885 14.5411C73.0119 14.3289 73.1235 14.0705 73.1235 13.7662Z" fill="black"/>
<path d="M80.5969 19.5745H78.3632V11.009H80.5969V19.5745Z" fill="black"/>
<path d="M89.5185 16.7352C89.5185 18.1853 88.881 19.129 87.6059 19.569C87.1615 19.725 86.6822 19.8018 86.1704 19.8018C85.0953 19.8018 84.0995 19.4769 83.1804 18.8298L84.1367 17.0344C84.8092 17.6406 85.4675 17.9449 86.1098 17.9449C86.4007 17.9449 86.645 17.8784 86.8474 17.7428C87.0824 17.5919 87.201 17.3745 87.201 17.0957C87.201 16.8425 87.0708 16.6304 86.8101 16.4615C86.6171 16.3336 86.2912 16.2057 85.8329 16.0754C85.2791 15.9115 84.9302 15.799 84.7858 15.7378C84.5578 15.6406 84.3647 15.528 84.2065 15.4002C83.7482 15.0242 83.5201 14.4564 83.5201 13.6942C83.5201 12.9321 83.7575 12.2415 84.2321 11.7198C84.7858 11.1058 85.5234 10.799 86.4472 10.799C87.3708 10.799 88.2831 11.0317 89.1719 11.4947L88.2783 13.2262C87.7898 12.845 87.2988 12.6559 86.8008 12.6559C86.5612 12.6559 86.3471 12.7171 86.1563 12.8373C85.9424 12.9755 85.8352 13.1596 85.8352 13.3923C85.8352 13.6251 85.9749 13.8144 86.2587 13.978C86.3843 14.0548 86.7636 14.1827 87.3942 14.3694C88.1852 14.5995 88.7484 14.927 89.0834 15.3489C89.3743 15.7095 89.5185 16.1725 89.5185 16.7377V16.7352Z" fill="black"/>
<path d="M103.358 17.1397C103.358 17.779 103.177 18.3008 102.811 18.7023C102.283 19.2829 101.476 19.5745 100.394 19.5745H96.8176V11.009H100.14C101.753 11.009 102.558 11.7533 102.558 13.2419C102.558 13.6895 102.469 14.0628 102.292 14.3647C102.146 14.6205 101.918 14.8378 101.613 15.0169C102.3 15.1601 102.767 15.4337 103.018 15.8378C103.244 16.2113 103.358 16.6435 103.358 17.1371V17.1397ZM100.487 13.5385C100.487 13.1498 100.312 12.8914 99.9611 12.7662C99.8355 12.7253 99.6679 12.7023 99.4608 12.7023H99.0536V14.3774H99.4608C99.8448 14.3774 100.122 14.2828 100.287 14.0962C100.422 13.9452 100.487 13.7586 100.487 13.5385ZM101.122 16.9888C101.122 16.4899 100.864 16.1984 100.35 16.1115C100.187 16.0859 99.9052 16.0731 99.5097 16.0731H99.0513V17.8787H99.5469C100.115 17.8787 100.513 17.8123 100.738 17.6793C100.994 17.5284 101.122 17.2983 101.122 16.9888Z" fill="black"/>
<path d="M113.442 15.9487C113.442 16.4627 113.4 16.9026 113.316 17.2658C113.186 17.8311 112.877 18.3451 112.386 18.808C111.69 19.4654 110.757 19.7927 109.591 19.7927C108.425 19.7927 107.476 19.4577 106.808 18.7902C106.457 18.4397 106.215 17.9972 106.085 17.4652C105.992 17.0894 105.945 16.5829 105.945 15.9461V11.0074H108.179V15.6392C108.179 16.0101 108.186 16.2888 108.197 16.473C108.239 17.0535 108.507 17.4602 108.998 17.6878C109.2 17.785 109.421 17.8311 109.666 17.8311C110.21 17.8311 110.622 17.6418 110.899 17.2607C111.104 16.9819 111.208 16.4397 111.208 15.6366V11.0048H113.442V15.9435V15.9487Z" fill="black"/>
<path d="M123.906 11.009L120.69 15.4567V19.5718H118.456V15.4567L115.348 11.009H118.016L119.64 13.3442L121.202 11.009H123.908H123.906Z" fill="black"/>
<path d="M131.77 16.7352C131.77 18.1853 131.132 19.129 129.857 19.569C129.413 19.725 128.933 19.8018 128.421 19.8018C127.346 19.8018 126.351 19.4769 125.432 18.8298L126.388 17.0344C127.06 17.6406 127.719 17.9449 128.363 17.9449C128.654 17.9449 128.898 17.8784 129.101 17.7428C129.336 17.5919 129.455 17.3745 129.455 17.0957C129.455 16.8425 129.324 16.6304 129.064 16.4615C128.87 16.3336 128.545 16.2057 128.086 16.0754C127.533 15.9115 127.184 15.799 127.039 15.7378C126.811 15.6406 126.618 15.528 126.46 15.4002C126.002 15.0242 125.774 14.4564 125.774 13.6942C125.774 12.9321 126.011 12.2415 126.485 11.7198C127.039 11.1058 127.777 10.799 128.701 10.799C129.624 10.799 130.536 11.0317 131.425 11.4947L130.532 13.2262C130.043 12.845 129.552 12.6559 129.054 12.6559C128.815 12.6559 128.601 12.7171 128.41 12.8373C128.196 12.9755 128.089 13.1596 128.089 13.3923C128.089 13.6251 128.228 13.8144 128.512 13.978C128.638 14.0548 129.017 14.1827 129.648 14.3694C130.439 14.5995 131.002 14.927 131.337 15.3489C131.628 15.7095 131.772 16.1725 131.772 16.7377L131.77 16.7352Z" fill="black"/>
<path d="M146.761 19.5745H144.527V16.0117H141.305V19.5745H139.071V11.009H141.305V14.316H144.527V11.009H146.761V19.5745Z" fill="black"/>
<path d="M158.855 15.3149C158.855 16.4785 158.466 17.499 157.692 18.3762C156.808 19.3763 155.609 19.8749 154.097 19.8749C152.584 19.8749 151.393 19.3763 150.509 18.3762C149.732 17.499 149.346 16.4785 149.346 15.3149C149.346 14.7829 149.45 14.2381 149.66 13.6806C149.869 13.123 150.151 12.6448 150.502 12.2457C151.386 11.2457 152.584 10.747 154.097 10.747C155.609 10.747 156.805 11.2483 157.692 12.2457C158.469 13.123 158.855 14.1461 158.855 15.3149ZM156.538 15.3149C156.538 14.7112 156.344 14.1895 155.956 13.7495C155.46 13.187 154.839 12.9056 154.094 12.9056C153.58 12.9056 153.117 13.0488 152.698 13.3353C152.282 13.6218 151.986 14.0053 151.81 14.4837C151.709 14.7573 151.658 15.0335 151.658 15.3149C151.658 15.8929 151.851 16.412 152.24 16.8698C152.719 17.4351 153.338 17.719 154.094 17.719C154.851 17.719 155.472 17.4377 155.956 16.8775C156.342 16.43 156.538 15.9083 156.538 15.3173V15.3149Z" fill="black"/>
<path d="M171.818 19.5745H169.584L168.949 14.6435L166.873 19.5745H165.987L164.007 14.6435L163.278 19.5745H161.049L162.511 11.009H164.721L166.459 15.5769L168.297 11.009H170.526L171.822 19.5745H171.818Z" fill="black"/>
<path d="M179.284 19.5745H174.393V11.009H179.284V12.8659H176.627V14.3289H179.138V16.1857H176.627V17.7177H179.284V19.5745Z" fill="black"/>
<path d="M187.816 16.7354C187.816 18.1855 187.179 19.1292 185.904 19.5692C185.459 19.7252 184.98 19.802 184.468 19.802C183.393 19.802 182.397 19.4771 181.478 18.83L182.434 17.0346C183.107 17.6407 183.765 17.945 184.41 17.945C184.701 17.945 184.945 17.8786 185.147 17.743C185.382 17.5921 185.501 17.3747 185.501 17.0959C185.501 16.8427 185.371 16.6305 185.11 16.4617C184.917 16.3338 184.591 16.2059 184.133 16.0755C183.579 15.9117 183.23 15.7992 183.086 15.7379C182.858 15.6408 182.665 15.5282 182.507 15.4003C182.048 15.0243 181.82 14.4566 181.82 13.6943C181.82 12.9322 182.058 12.2417 182.532 11.72C183.086 11.106 183.823 10.7991 184.747 10.7991C185.671 10.7991 186.583 11.0319 187.472 11.4949L186.578 13.2264C186.09 12.8452 185.599 12.656 185.101 12.656C184.861 12.656 184.647 12.7173 184.456 12.8375C184.242 12.9757 184.135 13.1598 184.135 13.3925C184.135 13.6253 184.275 13.8146 184.559 13.9782C184.684 14.055 185.064 14.1829 185.694 14.3696C186.485 14.5997 187.048 14.9272 187.383 15.3491C187.674 15.7097 187.819 16.1727 187.819 16.7379L187.816 16.7354Z" fill="black"/>
<path d="M86.0164 33.6568C85.6185 33.6568 85.2813 33.5877 85.0044 33.4495C84.7274 33.3115 84.518 33.1095 84.3738 32.8434C84.2296 32.5775 84.1597 32.2526 84.1597 31.869V31.493H85.1557V31.8332C85.1557 32.1094 85.23 32.3217 85.3789 32.4674C85.5279 32.6133 85.7396 32.69 86.0164 32.69C86.2934 32.69 86.4912 32.6159 86.6354 32.4674C86.7797 32.3191 86.8494 32.1069 86.8494 31.8332V31.1683C86.8494 30.9636 86.7983 30.7949 86.6936 30.6695C86.5912 30.5416 86.4563 30.4343 86.2934 30.3422C86.1281 30.2526 85.9537 30.1631 85.7629 30.0813C85.572 29.9995 85.386 29.9048 85.1998 29.8051C85.0137 29.7053 84.8414 29.5801 84.6833 29.4368C84.525 29.291 84.3994 29.1119 84.3063 28.8972C84.211 28.6822 84.1644 28.4163 84.1644 28.0991V27.6593C84.1644 27.0914 84.3227 26.6567 84.6413 26.3523C84.9602 26.048 85.4162 25.8971 86.0096 25.8971C86.6028 25.8971 87.0333 26.0505 87.3427 26.36C87.6499 26.6695 87.8034 27.1093 87.8034 27.6797V28.0761H86.8076V27.7207C86.8076 27.4419 86.7401 27.2296 86.6028 27.0839C86.4656 26.938 86.2701 26.8639 86.0096 26.8639C85.7325 26.8639 85.5232 26.9329 85.3767 27.0736C85.2324 27.2142 85.1579 27.4112 85.1579 27.6694V28.1452C85.1579 28.3676 85.2138 28.5467 85.3254 28.6798C85.4371 28.8153 85.5838 28.9253 85.7629 29.0148C85.9421 29.1043 86.1329 29.1938 86.333 29.2833C86.5121 29.3627 86.6889 29.4469 86.8657 29.5364C87.0426 29.6259 87.2055 29.736 87.3544 29.8664C87.5032 29.9969 87.622 30.1682 87.7103 30.3755C87.7989 30.5852 87.8452 30.8485 87.8452 31.1707V31.8665C87.8452 32.4419 87.6871 32.8844 87.373 33.1913C87.0588 33.4982 86.6052 33.6542 86.0141 33.6542L86.0164 33.6568Z" fill="black"/>
<path d="M91.2705 33.579L93.0341 25.9778H93.9463L95.7077 33.579H94.6374L93.4879 27.5354L92.3385 33.579H91.2682H91.2705ZM92.3966 31.9216V30.9856H94.6583V31.9216H92.3966Z" fill="black"/>
<path d="M100.168 25.9776V33.5787H99.1721V25.9776H100.168Z" fill="black"/>
<path d="M104.001 33.5747V25.9786H104.871L106.958 31.8073L106.795 31.9428V25.976H107.745V33.5721H106.863L104.785 27.9249L104.948 27.7893V33.5721H103.998L104.001 33.5747Z" fill="black"/>
<path d="M111.484 26.9187V25.9776H115.188V26.9187H111.484ZM112.835 33.5787V26.5991H113.831V33.5787H112.835Z" fill="black"/>
<path d="M123.457 33.5787V25.9776H124.452V33.5787H123.457ZM123.992 33.5787V32.6376H126.626V33.5787H123.992Z" fill="black"/>
<path d="M131.889 33.657C131.491 33.657 131.149 33.5829 130.865 33.432C130.581 33.2811 130.365 33.0663 130.218 32.7822C130.069 32.4984 129.995 32.1531 129.995 31.749V27.8078C129.995 27.4011 130.069 27.0534 130.218 26.7694C130.367 26.4855 130.584 26.2681 130.865 26.1198C131.149 25.9715 131.489 25.8973 131.889 25.8973C132.289 25.8973 132.633 25.9715 132.915 26.1198C133.197 26.2681 133.411 26.483 133.56 26.7694C133.708 27.0534 133.783 27.3987 133.783 27.8078V31.749C133.783 32.1531 133.708 32.4984 133.56 32.7822C133.411 33.0663 133.197 33.2837 132.915 33.432C132.633 33.5803 132.291 33.657 131.889 33.657ZM131.889 32.6903C132.173 32.6903 132.392 32.6109 132.55 32.4499C132.708 32.2887 132.785 32.0662 132.785 31.7797V27.7745C132.785 27.4856 132.706 27.2605 132.55 27.1019C132.392 26.9433 132.173 26.8641 131.889 26.8641C131.605 26.8641 131.382 26.9433 131.226 27.1019C131.07 27.2605 130.993 27.4856 130.993 27.7745V31.7797C130.993 32.0662 131.07 32.2887 131.226 32.4499C131.382 32.6109 131.603 32.6903 131.889 32.6903Z" fill="black"/>
<path d="M139.095 33.6579C138.534 33.6579 138.106 33.5046 137.811 33.1977C137.515 32.8908 137.364 32.4483 137.364 31.8703V25.9776H138.36V31.9113C138.36 32.1618 138.423 32.3536 138.551 32.4891C138.679 32.6247 138.86 32.6912 139.093 32.6912C139.325 32.6912 139.519 32.6247 139.647 32.4891C139.775 32.3562 139.837 32.1618 139.837 31.9113V25.9776H140.833V31.8703C140.833 32.4483 140.684 32.8908 140.384 33.1977C140.084 33.5046 139.654 33.6579 139.09 33.6579H139.095Z" fill="black"/>
<path d="M145.507 25.9776V33.5787H144.511V25.9776H145.507Z" fill="black"/>
<path d="M151.143 33.657C150.745 33.657 150.408 33.588 150.131 33.4498C149.854 33.3118 149.645 33.1097 149.5 32.8437C149.356 32.5778 149.286 32.2529 149.286 31.8692V31.4932H150.282V31.8335C150.282 32.1096 150.357 32.322 150.506 32.4677C150.654 32.6135 150.866 32.6903 151.143 32.6903C151.42 32.6903 151.618 32.6161 151.762 32.4677C151.906 32.3194 151.976 32.107 151.976 31.8335V31.1685C151.976 30.9639 151.925 30.795 151.82 30.6697C151.718 30.5418 151.583 30.4345 151.42 30.3424C151.257 30.2503 151.08 30.1634 150.889 30.0816C150.699 29.9997 150.512 29.905 150.326 29.8052C150.14 29.7056 149.968 29.5803 149.81 29.4371C149.652 29.2912 149.526 29.1122 149.433 28.8974C149.337 28.6825 149.291 28.4166 149.291 28.0994V27.6595C149.291 27.0916 149.449 26.6568 149.768 26.3525C150.087 26.0483 150.543 25.8973 151.136 25.8973C151.729 25.8973 152.16 26.0507 152.469 26.3602C152.779 26.6697 152.93 27.1096 152.93 27.6799V28.0763H151.934V27.7209C151.934 27.4421 151.867 27.2298 151.729 27.0839C151.592 26.9383 151.394 26.8641 151.136 26.8641C150.859 26.8641 150.65 26.9332 150.503 27.0738C150.359 27.2144 150.284 27.4114 150.284 27.6696V28.1454C150.284 28.3679 150.34 28.5469 150.452 28.68C150.564 28.8156 150.71 28.9255 150.889 29.015C151.069 29.1045 151.259 29.194 151.459 29.2835C151.639 29.3629 151.815 29.4472 151.992 29.5367C152.169 29.6262 152.332 29.7363 152.481 29.8666C152.63 29.9971 152.749 30.1685 152.837 30.3756C152.925 30.5854 152.97 30.8487 152.97 31.171V31.8668C152.97 32.4422 152.811 32.8847 152.497 33.1916C152.183 33.4985 151.729 33.6544 151.138 33.6544L151.143 33.657Z" fill="black"/>
<path d="M78.4624 29.8871C78.4624 29.5699 78.1994 29.3143 77.883 29.322L53.5125 29.8871L77.883 30.4524C78.2017 30.4601 78.4624 30.2043 78.4624 29.8871Z" fill="black"/>
<path d="M158.671 29.8847C158.671 29.5293 158.934 29.2402 159.25 29.2504L183.62 29.8847L159.25 30.519C158.931 30.5267 158.671 30.2402 158.671 29.8847Z" fill="black"/>
</svg>
