<svg width="23" height="19" viewBox="0 0 23 19" fill="none" xmlns="http://www.w3.org/2000/svg">
<path id="Union" fill-rule="evenodd" clip-rule="evenodd" d="M14.0901 2.73035L12.6985 4.15947L12.6987 4.15966L12.6996 4.16052L12.7032 4.16405L12.7178 4.17823L12.775 4.23405L12.9933 4.44711C13.1815 4.63102 13.4506 4.89429 13.7736 5.21126C14.4199 5.84553 15.2805 6.69334 16.1402 7.54992C16.254 7.66334 16.3677 7.77677 16.4807 7.88972H2.61523C1.51066 7.88972 0.615234 8.78516 0.615234 9.88972C0.615234 10.9943 1.51066 11.8897 2.61523 11.8897H16.25C16.2134 11.9262 16.1768 11.9627 16.1402 11.9992C15.2805 12.8558 14.4199 13.7036 13.7736 14.3379C13.4506 14.6549 13.1815 14.9181 12.9933 15.102L12.775 15.3151L12.7178 15.3709L12.7032 15.3851L12.6996 15.3886L12.6987 15.3895L12.6985 15.3897L14.0938 16.8226L12.6985 15.3897C11.9071 16.1604 11.8903 17.4266 12.6609 18.2179C13.4316 19.0093 14.6978 19.0261 15.4891 18.2554L14.0938 16.8226C15.4891 18.2554 15.4892 18.2554 15.4892 18.2553L15.4895 18.2551L15.4905 18.2541L15.4944 18.2503L15.5095 18.2356L15.5679 18.1786L15.7887 17.9631C15.9787 17.7775 16.2499 17.5121 16.5753 17.1928C17.2257 16.5545 18.0942 15.699 18.9636 14.8327C19.8307 13.9686 20.7079 13.0848 21.3721 12.3929C21.7016 12.0497 21.9947 11.7371 22.2118 11.4913C22.3168 11.3723 22.4287 11.2413 22.5235 11.1169C22.5678 11.0587 22.6385 10.9628 22.7074 10.8474C22.7413 10.7907 22.7976 10.6914 22.851 10.5633C22.8881 10.4744 23.0099 10.1761 23.0099 9.77456C23.0099 9.37303 22.8881 9.07476 22.851 8.98585C22.7976 8.85775 22.7413 8.75842 22.7074 8.70172C22.6385 8.58632 22.5678 8.49044 22.5235 8.43217C22.4287 8.30778 22.3168 8.17678 22.2118 8.05786C21.9947 7.81205 21.7016 7.49942 21.3721 7.15621C20.7079 6.46432 19.8307 5.58048 18.9635 4.71644C18.0942 3.85015 17.2257 2.99465 16.5753 2.35633C16.2499 2.03701 15.9787 1.77166 15.7887 1.58603L15.5679 1.3705L15.5095 1.31356L15.4944 1.29885L15.4905 1.29506L15.4895 1.29408L15.4892 1.29382C15.4892 1.29375 15.4891 1.29371 14.2143 2.60281L15.4891 1.29371C14.6978 0.523092 13.4315 0.539897 12.6609 1.33124C11.8903 2.12259 11.9071 3.3888 12.6985 4.15942L14.0901 2.73035Z" fill="white"/>
</svg>
