<svg width="61" height="60" viewBox="0 0 61 60" fill="none" xmlns="http://www.w3.org/2000/svg">
<path d="M55.9585 8.97208C47.2276 8.97208 35.7401 6.02592 31.6454 0.567564C31.1006 -0.095734 30.1215 -0.191406 29.4582 0.353331C29.3799 0.417418 29.308 0.489286 29.244 0.567564C25.1488 6.02547 13.6613 8.97208 4.93081 8.97208C4.1018 8.97208 3.42981 9.64408 3.42981 10.4731V29.9834C3.42981 46.4866 17.761 56.4356 30.0327 59.9412C30.3018 60.0195 30.5875 60.0195 30.8566 59.9412C43.1283 56.4356 57.4595 46.4866 57.4595 29.9834V10.4731C57.4595 9.64408 56.7875 8.97208 55.9585 8.97208ZM54.4575 29.9834C54.4575 44.6341 41.6186 53.6154 30.4447 56.9369C19.2707 53.6154 6.43136 44.6341 6.43136 29.9834V11.9475C15.1064 11.6541 25.3649 8.85764 30.4447 3.74856C35.5249 8.85764 45.7829 11.6541 54.458 11.9471V29.9834H54.4575Z" fill="#004C8D"/>
<path d="M24.4415 23.9801V26.9817H22.9405C22.1114 26.9817 21.4395 27.6537 21.4395 28.4827V40.4889C21.4395 41.3179 22.1114 41.9899 22.9405 41.9899H37.9487C38.7777 41.9899 39.4497 41.3179 39.4497 40.4889V28.4827C39.4497 27.6537 38.7777 26.9817 37.9487 26.9817H36.4477V23.9801C36.4477 20.6646 33.7601 17.9771 30.4446 17.9771C27.129 17.9771 24.4415 20.6646 24.4415 23.9801ZM36.4477 38.9883H24.4415V29.9832H36.4477V38.9883ZM33.4461 23.9801V26.9817H27.443V23.9801C27.443 22.3226 28.7865 20.9786 30.4446 20.9786C32.1021 20.9786 33.4461 22.3226 33.4461 23.9801Z" fill="#004C8D"/>
</svg>
